<svg width="99" height="32" viewBox="0 0 99 32" fill="none" xmlns="http://www.w3.org/2000/svg">
<path d="M65.5618 26C65.0781 26.0014 64.6246 25.9674 64.0518 25.9243C64.0515 25.9243 64.0512 25.9243 64.0509 25.9243C63.9691 25.9181 63.8847 25.9117 63.7976 25.9052C63.0959 25.8533 62.1841 25.7925 60.8093 25.7575C59.2902 25.7189 58.0842 25.5791 57.3477 25.445C57.2104 25.42 57.0682 25.4062 56.7096 25.3937C56.4744 25.3855 56.1565 25.3781 55.6976 25.3674C55.4536 25.3616 55.1695 25.3551 54.837 25.3469C53.7363 25.3197 52.0113 25.3282 50.4217 25.3361C49.457 25.3409 48.542 25.3456 47.847 25.3417C46.8305 25.3361 45.8498 25.3111 44.7836 25.2836C43.8072 25.2585 42.7591 25.2314 41.5463 25.216C40.6158 25.2042 39.7117 25.1026 38.793 24.9892C38.6761 24.9747 38.5587 24.9602 38.4411 24.9455C37.6304 24.8443 36.8016 24.7406 35.9054 24.6813C34.3079 24.5756 33.0331 24.6193 31.6217 24.6676C31.0696 24.6866 30.4966 24.7062 29.8751 24.7179C28.8923 24.7364 27.4794 24.7327 26.0607 24.7275C25.9399 24.727 25.8189 24.7267 25.6982 24.7262C25.6976 24.7262 25.697 24.7262 25.6964 24.7262C24.3977 24.7213 23.1232 24.7165 22.1881 24.7272C20.7021 24.7443 20.1431 24.7846 19.6768 24.8183C19.5015 24.831 19.3392 24.8428 19.1458 24.852C18.449 24.885 17.3973 24.8789 16.3311 24.8727C16.3271 24.8727 16.323 24.8727 16.3189 24.8727C16.142 24.8717 15.9992 24.7588 16 24.6205C16.0009 24.4823 16.145 24.371 16.322 24.372C16.8867 24.3753 17.4378 24.3784 17.9312 24.3761C17.9567 24.2574 18.0896 24.1674 18.2488 24.1684C18.6475 24.1706 19.8685 24.0812 21.7794 23.935C21.6485 23.9133 21.5389 23.8922 21.4428 23.8722C21.3301 23.8487 21.2437 23.8285 21.1694 23.8112C21.0146 23.7751 20.9115 23.7513 20.7287 23.7338C20.3052 23.7139 19.6396 23.7098 18.9392 23.7057C18.7623 23.7046 18.6195 23.5919 18.6202 23.4537C18.6211 23.3155 18.7653 23.2042 18.9422 23.2052C18.9457 23.2052 18.9491 23.2052 18.9526 23.2052C19.6463 23.2092 20.3333 23.2133 20.7757 23.2345C20.8883 23.2399 20.9852 23.2463 21.058 23.2521C21.1162 23.2567 21.1888 23.263 21.2292 23.2711C21.2346 23.2722 21.2448 23.2744 21.257 23.2777C21.2572 23.2778 21.2574 23.2779 21.2576 23.278C21.2644 23.2798 21.2992 23.2891 21.3363 23.3095C21.3438 23.3136 21.3601 23.3227 21.379 23.3375C21.3839 23.3387 21.3888 23.3398 21.3937 23.3409C21.4618 23.3568 21.5312 23.3729 21.6064 23.3886C21.8999 23.4497 22.3649 23.5269 23.3331 23.6085C24.2236 23.6836 25.729 23.7173 27.6074 23.7179C27.4805 23.7076 27.3533 23.6975 27.2262 23.6879C26.9064 23.6637 26.5851 23.6416 26.2637 23.6205C26.1406 23.6124 26.0191 23.6046 25.8953 23.5968C25.6961 23.5843 25.4963 23.572 25.2966 23.5599C25.1616 23.5518 25.0264 23.5438 24.8913 23.5358C24.891 23.5358 24.8907 23.5358 24.8904 23.5358C24.7029 23.5246 24.5149 23.5134 24.3255 23.5018C24.2592 23.4975 24.1937 23.4934 24.1287 23.4894C23.8698 23.4734 23.6155 23.4578 23.3227 23.4276C23.2871 23.4226 23.2484 23.4162 23.2196 23.4108C23.1885 23.4051 23.1587 23.3993 23.1304 23.3934C23.1055 23.3882 23.0818 23.383 23.059 23.3781C23.056 23.3774 23.0529 23.3768 23.0499 23.3761C23.0244 23.3706 23.0001 23.3655 22.9766 23.3607C22.9532 23.3559 22.9308 23.3513 22.9086 23.3473C22.9084 23.3473 22.9082 23.3473 22.908 23.3473C22.8848 23.3432 22.8672 23.3401 22.8427 23.3366C22.8118 23.3321 22.7853 23.3287 22.7532 23.3253C22.7222 23.322 22.6898 23.3191 22.6571 23.3165C22.6244 23.314 22.5911 23.3117 22.5573 23.3097C22.5235 23.3077 22.4891 23.3058 22.4545 23.3041C22.4199 23.3024 22.3848 23.3009 22.3495 23.2994C22.3142 23.298 22.2785 23.2965 22.2427 23.295C22.1602 23.2917 22.081 23.264 22.023 23.2169C21.9649 23.1698 21.9326 23.1075 21.9329 23.0431C21.9333 22.9786 21.9665 22.9167 22.0251 22.8702C22.0838 22.8238 22.1632 22.7969 22.2457 22.7945C22.2682 22.7939 22.2908 22.7932 22.3135 22.7926C22.327 22.7922 22.3405 22.792 22.3541 22.7916C22.3905 22.7907 22.4272 22.7896 22.4642 22.7889C22.5012 22.7882 22.5385 22.7878 22.5762 22.7875C22.6141 22.7872 22.6524 22.7871 22.6913 22.7875C22.7301 22.7879 22.7697 22.7887 22.81 22.7901C22.8493 22.7915 22.8941 22.794 22.9342 22.797C22.9635 22.7991 22.9996 22.8027 23.0297 22.806C23.0612 22.8094 23.0921 22.8133 23.1219 22.8172C23.1518 22.8212 23.1807 22.8255 23.2083 22.8295C23.2112 22.8299 23.2142 22.8303 23.2171 22.8307C23.2415 22.8342 23.265 22.8376 23.2873 22.8407C23.3122 22.8441 23.3357 22.847 23.3581 22.8495C23.3827 22.8523 23.3977 22.8534 23.4161 22.8546C23.6589 22.8627 23.9591 22.861 24.2453 22.8595C24.2812 22.8593 24.317 22.8592 24.3524 22.859C24.5403 22.8578 24.7279 22.8563 24.9154 22.8548C25.0517 22.8538 25.1881 22.8526 25.3247 22.8517C25.5256 22.8502 25.7272 22.8491 25.9286 22.8483C26.0537 22.8478 26.1765 22.8474 26.3012 22.8473C26.627 22.8468 26.9539 22.8475 27.2811 22.8505C27.608 22.8534 27.9369 22.8587 28.2659 22.8675C28.5938 22.8764 28.9344 22.8896 29.2633 22.9098C29.5051 22.9248 29.7529 22.9511 29.9823 22.9781C30.1055 22.9927 30.2262 23.0075 30.3451 23.0223C30.3455 23.0224 30.3459 23.0225 30.3463 23.0226C30.4507 23.0356 30.5538 23.0484 30.6561 23.0607C30.8755 23.087 31.0909 23.1105 31.3064 23.1302C31.5215 23.15 31.7358 23.1662 31.9516 23.1786C32.1657 23.1909 32.3835 23.1997 32.5991 23.2052C32.8159 23.2107 33.0286 23.2129 33.2522 23.2128C33.5462 23.2123 33.8381 23.2078 34.1378 23.2025C34.4354 23.1971 34.7353 23.1903 35.036 23.1835C35.1411 23.1811 35.2464 23.1788 35.3518 23.1764C35.3522 23.1764 35.3526 23.1764 35.3531 23.1764C35.5481 23.1719 35.7436 23.1673 35.9393 23.163C36.2414 23.1562 36.5443 23.1498 36.8484 23.1447C37.1524 23.1395 37.4583 23.1354 37.7658 23.1339C38.0733 23.1325 38.3891 23.1334 38.7063 23.1415C38.9893 23.1485 39.2746 23.1578 39.5535 23.1671C39.6271 23.1696 39.7008 23.172 39.7744 23.1744C40.1239 23.1859 40.4622 23.195 40.7968 23.1967C41.1311 23.1985 41.4652 23.1934 41.8023 23.1825C42.1385 23.1717 42.4788 23.1554 42.8219 23.1359C43.1665 23.1162 43.5067 23.0935 43.8537 23.0687C44.1981 23.044 44.5442 23.0175 44.8944 22.9894C45.0891 22.9738 45.2962 22.9595 45.4919 22.9474C45.6895 22.9351 45.8859 22.9243 46.0797 22.9142C46.1583 22.9101 46.2366 22.9062 46.3144 22.9022C46.4277 22.8964 46.5401 22.8908 46.6507 22.8849C46.8373 22.8749 47.0194 22.8642 47.1963 22.8517C47.3731 22.8391 47.5448 22.8246 47.7105 22.8068C47.8821 22.7882 48.0236 22.7694 48.1927 22.7425C48.6047 22.6907 48.86 22.6748 49.1437 22.6568C49.1995 22.6533 49.2566 22.6496 49.3161 22.6456C49.6562 22.6255 49.996 22.6105 50.3314 22.5992C50.67 22.5879 51.0033 22.5802 51.3409 22.5758C51.6753 22.5714 52.012 22.5703 52.3474 22.5721C52.6823 22.5739 53.0166 22.5787 53.3517 22.5865C53.6867 22.5943 54.0285 22.6054 54.3567 22.6188C54.5464 22.6265 54.7478 22.6368 54.935 22.6473C55.07 22.6549 55.2031 22.6629 55.3335 22.6708C55.3868 22.674 55.4398 22.6772 55.4922 22.6803C55.6731 22.691 55.8489 22.701 56.0187 22.7086C56.1885 22.7162 56.3528 22.7216 56.5137 22.7235C56.6748 22.7255 56.8324 22.724 56.99 22.7191C57.1535 22.7138 57.2892 22.7068 57.4628 22.694C57.5758 22.6855 57.6865 22.6769 57.7969 22.6683C57.9622 22.6555 58.1263 22.6424 58.2916 22.6288C58.4567 22.6152 58.6197 22.6013 58.7836 22.5868C58.8362 22.5821 58.8919 22.5772 58.9447 22.5724C59.1079 22.5575 59.2693 22.5422 59.4305 22.526C59.5914 22.5098 59.7509 22.4929 59.9097 22.475C60.0691 22.4569 60.2259 22.4382 60.3857 22.4178C60.6575 22.3832 60.9176 22.3671 61.1453 22.3563C61.3758 22.3456 61.5912 22.3397 61.8008 22.3341C61.8401 22.333 61.8794 22.332 61.9186 22.3309C62.0877 22.3265 62.2541 22.3223 62.4179 22.3172C62.6198 22.311 62.8181 22.3036 63.017 22.2948C63.2141 22.286 63.4132 22.2758 63.6093 22.2638C63.8072 22.2516 63.9965 22.2384 64.2004 22.2223C64.4022 22.2064 64.607 22.1857 64.8315 22.1632C65.054 22.1408 65.2875 22.1178 65.524 22.0977C65.7602 22.0776 66.0002 22.0602 66.2384 22.0465C66.4771 22.0327 66.7166 22.0223 66.9528 22.015C67.1903 22.0076 67.4263 22.0033 67.6611 22.0013C67.8954 21.9993 68.1374 21.9996 68.364 22.002C68.7307 22.0059 69.0959 22.0114 69.4617 22.0174C69.8254 22.0235 70.1904 22.0303 70.5545 22.0374C70.918 22.0446 71.2819 22.0521 71.6452 22.0599C72.0087 22.0677 72.3721 22.0757 72.735 22.0838C72.8153 22.0856 72.8955 22.0874 72.9758 22.0892C73.2584 22.0955 73.5409 22.1018 73.8223 22.108C73.8243 22.1081 73.8262 22.1082 73.8281 22.1082C74.1903 22.1161 74.5459 22.1237 74.9051 22.1302C75.0369 22.1325 75.1636 22.1347 75.2924 22.1366C75.4213 22.1384 75.5477 22.1399 75.6754 22.141C75.8032 22.142 75.9302 22.1427 76.0553 22.1427C76.1818 22.1426 76.305 22.1421 76.4295 22.1405C76.5435 22.1391 76.6567 22.1365 76.7804 22.1339C76.7917 22.1336 76.803 22.1334 76.8143 22.1331C76.9496 22.1302 77.1036 22.1284 77.2467 22.1297C77.6258 22.1337 77.9952 22.1355 78.3713 22.1353C78.7476 22.1352 79.1231 22.133 79.5017 22.13C79.6495 22.1288 79.798 22.1274 79.9466 22.1261C80.1777 22.1241 80.4097 22.122 80.6424 22.1205C81.0253 22.1178 81.4089 22.1167 81.7951 22.1183C82.1797 22.1199 82.5669 22.1244 82.9523 22.1322C83.3374 22.1399 83.7258 22.151 84.1092 22.1649C84.5364 22.1805 84.961 22.1977 85.3876 22.2157C85.8135 22.2337 86.2396 22.2525 86.6638 22.2718C87.0896 22.2912 87.5143 22.311 87.9392 22.3314C88.3643 22.3518 88.7891 22.3726 89.2142 22.3939C89.4686 22.4066 89.723 22.4196 89.9774 22.4327C90.1121 22.421 90.2412 22.4095 90.3653 22.3985C91.2828 22.3179 91.9462 22.2597 92.8214 22.2196C92.9052 22.2135 92.9734 22.2049 93.0564 22.1944C93.0722 22.1924 93.089 22.1904 93.1061 22.1883C93.2145 22.1749 93.3391 22.1608 93.5123 22.1519C93.8579 22.1342 94.3876 22.1381 95.0721 22.255C95.245 22.2845 95.355 22.4178 95.3177 22.5528C95.2915 22.6475 95.1997 22.7179 95.0876 22.7413C95.2947 22.7574 95.5012 22.7742 95.7071 22.7909C95.7893 22.7976 95.8665 22.8286 95.9214 22.878C95.9762 22.9275 96.0042 22.9909 95.9995 23.0553C95.9947 23.1197 95.9574 23.18 95.8957 23.224C95.834 23.2679 95.7531 23.2917 95.6705 23.2907C95.4514 23.2878 95.2331 23.2849 95.0147 23.2828C94.7961 23.2808 94.5786 23.2796 94.3604 23.2789C94.1423 23.2783 93.9242 23.2784 93.7055 23.2789C93.4876 23.2795 93.2693 23.2804 93.0506 23.2819C92.8305 23.2833 92.6145 23.2852 92.395 23.2872C92.2636 23.2885 92.1305 23.2897 91.9998 23.2911C91.9512 23.2916 91.9036 23.2923 91.8561 23.2928C91.8173 23.2933 91.7782 23.2936 91.738 23.2941C91.3151 23.299 90.8882 23.3045 90.4651 23.3104C90.04 23.3164 89.6154 23.3226 89.1907 23.3292C88.7658 23.3358 88.3413 23.3428 87.9166 23.35C87.4921 23.3571 87.0678 23.3645 86.6428 23.3722C86.2193 23.3799 85.7941 23.3878 85.3699 23.3964C85.0418 23.403 84.7164 23.4101 84.3906 23.4176C84.2623 23.4305 84.1353 23.4427 84.01 23.4545C83.6453 23.4887 83.28 23.5336 82.9202 23.578C83.5606 23.5559 84.0751 23.5214 84.5648 23.4884C84.6305 23.484 84.6957 23.4796 84.7608 23.4752C85.4246 23.4311 86.0659 23.3937 86.9284 23.402C89.3816 23.4256 90.8041 23.4428 91.6904 23.475C92.5766 23.5071 92.9574 23.5548 93.3127 23.6495C93.8149 23.7834 94.784 23.8596 95.271 23.8624C95.4479 23.8635 95.5907 23.9764 95.5899 24.1146C95.5891 24.2529 95.4449 24.3642 95.268 24.3632C94.7537 24.3602 93.705 24.2828 93.1073 24.1234C92.8411 24.0525 92.535 24.0067 91.6623 23.975C90.7895 23.9433 89.3802 23.9264 86.9223 23.9027C86.0908 23.8947 85.4737 23.9303 84.8169 23.974C84.7525 23.9783 84.6876 23.9828 84.6222 23.9872C84.6218 23.9872 84.6214 23.9872 84.621 23.9872C84.0177 24.0278 83.3608 24.0721 82.475 24.0917C80.4333 24.1369 77.6869 24.2244 77.0349 24.2738C76.907 24.2835 76.7833 24.2944 76.6528 24.3058C76.1521 24.3496 75.5476 24.4024 74.1852 24.4374C73.8872 24.4451 73.5382 24.4495 73.1574 24.4516C72.5858 24.5189 72.031 24.5814 71.5485 24.6186C71.1321 24.6506 70.7481 24.7095 70.376 24.7741C70.2689 24.7927 70.161 24.8121 70.0534 24.8315C69.7938 24.8781 69.5341 24.9248 69.281 24.9609C69.0793 24.9896 68.868 25.0242 68.6447 25.0607C67.8314 25.1938 66.8567 25.3533 65.5865 25.3554C64.2401 25.3576 63.0874 25.3288 62.0932 25.3007C62.8233 25.3332 63.387 25.3722 63.8565 25.4069C63.9451 25.4135 64.0299 25.4198 64.1116 25.426C64.6887 25.4693 65.1082 25.5008 65.5579 25.4995C67.7055 25.4931 68.511 25.4507 69.4199 25.3281C69.6592 25.2958 69.9231 25.2528 70.2075 25.2065C70.7759 25.114 71.4261 25.0082 72.1246 24.9477C72.7753 24.8913 73.503 24.8082 74.274 24.7201C74.2743 24.7201 74.2746 24.7201 74.2749 24.7201C74.4256 24.7029 74.578 24.6856 74.7318 24.6681C75.6692 24.5619 76.6552 24.4551 77.6151 24.3879C77.7177 24.3807 77.8407 24.3707 77.9819 24.3593C78.7968 24.2932 80.2274 24.1772 81.9745 24.2516C82.3582 24.268 82.757 24.3026 83.212 24.3422C83.3506 24.3543 83.4945 24.3669 83.6447 24.3795C84.2933 24.434 85.0814 24.4917 86.1307 24.5265C86.9967 24.5552 88.0521 24.569 89.148 24.5834C89.6878 24.5905 90.2374 24.5979 90.7791 24.6071C92.4154 24.6349 93.9151 24.6789 95.412 24.7231C95.4123 24.7231 95.4126 24.7231 95.4129 24.7231C95.5898 24.7283 95.7283 24.8447 95.7221 24.9828C95.7158 25.1209 95.5674 25.2287 95.3907 25.2236C93.8929 25.1794 92.3978 25.1353 90.7669 25.1076C90.2335 25.0985 89.6881 25.0912 89.1504 25.0842C88.0492 25.0697 86.9791 25.0558 86.1051 25.0268C85.0379 24.9914 84.2354 24.9325 83.5779 24.8774C83.4195 24.8641 83.2706 24.8511 83.1293 24.8388C82.6793 24.7996 82.3052 24.7669 81.9412 24.7514C80.2496 24.6794 78.8731 24.7907 78.0551 24.8569C77.9101 24.8686 77.7825 24.8788 77.674 24.8864C76.733 24.9524 75.762 25.0574 74.8254 25.1635C74.6735 25.1807 74.5223 25.1979 74.3723 25.215C74.372 25.2151 74.3717 25.2152 74.3713 25.2153C73.6005 25.3033 72.8597 25.3879 72.197 25.4453C71.5243 25.5035 70.9376 25.5995 70.3888 25.6892C70.0943 25.7373 69.8107 25.7834 69.5306 25.8212C68.5664 25.9513 67.7164 25.9936 65.5618 26ZM94.7675 22.7171C94.3419 22.6544 93.9951 22.6412 93.7369 22.6454C93.9562 22.6596 94.175 22.6746 94.394 22.69C94.5186 22.6989 94.643 22.7079 94.7675 22.7171ZM73.1052 23.9513C73.1741 23.9432 73.2436 23.9349 73.3133 23.9267C73.1209 23.9306 72.9284 23.9342 72.7362 23.9379C72.5003 23.9424 72.2643 23.9466 72.0285 23.9508C72.4035 23.9525 72.7668 23.9529 73.1052 23.9513ZM65.5835 24.8547C66.7813 24.8527 67.6764 24.7067 68.4836 24.5749C68.716 24.5369 68.9414 24.5002 69.1644 24.4684C69.2569 24.4552 69.3493 24.4407 69.4424 24.4252C68.9 24.4174 68.4014 24.4091 67.9932 24.4023C66.7751 24.3818 66.0819 24.3391 65.4727 24.3017C65.2965 24.2908 65.1271 24.2805 64.9542 24.2711C64.8112 24.288 64.6627 24.3046 64.5126 24.3192C64.3025 24.3399 64.0754 24.3598 63.8592 24.3766C63.6423 24.3936 63.4218 24.4088 63.2053 24.4215C62.9869 24.4344 62.7706 24.4452 62.5552 24.4545C62.3526 24.4633 62.1507 24.4707 61.9553 24.4779C61.9441 24.4783 61.9329 24.4788 61.9217 24.4792C61.7152 24.4868 61.5142 24.4942 61.3296 24.5043C61.1417 24.5147 60.9855 24.527 60.8469 24.5456C60.6737 24.5687 60.4961 24.5909 60.3204 24.6115C60.1446 24.6321 59.9695 24.6514 59.7949 24.6694C59.62 24.6874 59.4468 24.7042 59.2731 24.7201C59.2169 24.7253 59.1581 24.7306 59.1025 24.7355C59.0768 24.7378 59.0511 24.7401 59.0256 24.7424C59.3653 24.7441 59.7181 24.7468 60.0827 24.7509C60.6094 24.7569 61.1717 24.7732 61.792 24.7912C62.8501 24.8218 64.077 24.8571 65.5835 24.8547ZM53.8754 24.787C54.0231 24.7857 54.2394 24.7818 54.5184 24.7768C54.5844 24.7756 54.654 24.7742 54.7269 24.7729C54.7251 24.7728 54.7234 24.7727 54.7217 24.7726C54.541 24.7599 54.3741 24.7487 54.194 24.7384C53.873 24.7202 53.5611 24.7045 53.2461 24.6911C52.9299 24.6776 52.6146 24.6666 52.2989 24.6579C51.9827 24.6491 51.6656 24.6429 51.3513 24.6391C51.0339 24.6353 50.7211 24.6339 50.4053 24.6357C50.3047 24.6362 50.2037 24.6371 50.1028 24.6383C50.3281 24.6509 50.5619 24.6613 50.809 24.6723C51.0063 24.681 51.2121 24.6902 51.4285 24.7011C51.5113 24.7053 51.6116 24.7117 51.7285 24.7192C52.1919 24.7488 52.9191 24.7955 53.8754 24.787ZM47.5833 24.7763C47.51 24.7796 47.4371 24.7826 47.3651 24.7851C47.16 24.7921 46.9602 24.7961 46.7642 24.7992C46.6266 24.8014 46.4905 24.803 46.3565 24.8046C46.2999 24.8053 46.2434 24.8061 46.1874 24.8068C46.0936 24.808 46.0006 24.8095 45.9082 24.811C46.5563 24.826 47.1898 24.8376 47.85 24.8412C47.8587 24.8413 47.8675 24.8412 47.8763 24.8412C47.7763 24.8191 47.6787 24.7975 47.5833 24.7763Z" fill="white"/>
<path d="M90.5458 21.526C90.5529 21.4295 90.5947 21.3421 90.6476 21.2318C90.6476 21.2317 90.6476 21.2317 90.6476 21.2316C90.6551 21.2158 90.663 21.1996 90.671 21.1828C90.7349 21.0475 90.8114 20.8711 90.8702 20.6003C90.9351 20.301 91.0954 20.0729 91.2419 19.9378C91.2692 19.9126 91.2853 19.8855 91.3041 19.8152C91.3163 19.769 91.3292 19.7063 91.348 19.6158C91.3579 19.5677 91.3694 19.5117 91.3834 19.4462C91.4296 19.2292 91.4513 18.8848 91.4711 18.5674C91.4831 18.3748 91.4944 18.192 91.5103 18.0539C91.5336 17.8519 91.5757 17.6587 91.6216 17.4486C91.6637 17.2563 91.7089 17.0498 91.7454 16.8095C91.7734 16.6252 91.8904 16.4539 92.0194 16.2807C92.0358 16.2587 92.0524 16.2366 92.069 16.2144C92.184 16.0617 92.3017 15.9056 92.3764 15.7322C92.5096 15.4232 92.4883 15.1654 92.4647 14.8799C92.4555 14.7683 92.4459 14.6524 92.445 14.5276C92.4437 14.3302 92.4721 14.049 92.502 13.7668C92.5046 13.7427 92.507 13.7187 92.5096 13.6947C92.5096 13.6945 92.5096 13.6944 92.5096 13.6943C92.5371 13.436 92.5642 13.1825 92.5698 12.9952C92.5787 12.6977 92.5483 12.5828 92.5228 12.4869C92.5133 12.4509 92.5043 12.4175 92.4985 12.3782C92.4777 12.2365 92.5022 12.0275 92.5269 11.8156C92.527 11.8148 92.5271 11.814 92.5271 11.8132C92.5312 11.778 92.6462 11.7594 92.7839 11.7716C92.9216 11.7838 93.03 11.8223 93.0259 11.8574C93.0128 11.9696 93.0001 12.0792 92.9937 12.1777C93.1116 12.1931 93.1989 12.2274 93.1952 12.2591C93.186 12.3383 93.2538 12.5894 93.3662 12.9828C93.39 12.9587 93.4129 12.9386 93.4345 12.9212C93.4599 12.9008 93.4816 12.8854 93.5001 12.8721C93.5388 12.8444 93.5643 12.8259 93.5849 12.791C93.6121 12.7084 93.6278 12.5761 93.644 12.4369C93.6482 12.4018 93.763 12.3832 93.9006 12.3954C94.0383 12.4076 94.1466 12.446 94.1426 12.4812C94.1425 12.4819 94.1425 12.4825 94.1424 12.4832C94.1263 12.6211 94.1103 12.7576 94.0814 12.8439C94.0741 12.8659 94.0661 12.8846 94.059 12.8986C94.0534 12.9098 94.0458 12.9237 94.0371 12.9311C94.0359 12.9321 94.0335 12.9339 94.03 12.936C94.0299 12.9361 94.0298 12.9361 94.0298 12.9361C94.0278 12.9373 94.0179 12.9435 93.997 12.9491C93.9928 12.9502 93.9834 12.9527 93.9683 12.9551C93.9671 12.956 93.9659 12.9569 93.9646 12.9578C93.9477 12.9699 93.9304 12.9824 93.9135 12.996C93.8474 13.0491 93.7625 13.1351 93.6643 13.3208C93.5739 13.4917 93.5141 13.7887 93.4808 14.1629C93.4933 14.1385 93.5055 14.1141 93.5173 14.0896C93.5471 14.028 93.5747 13.9659 93.6013 13.9037C93.6114 13.8799 93.6214 13.8564 93.6313 13.8324C93.6472 13.7938 93.663 13.755 93.6784 13.7163C93.6889 13.6901 93.6992 13.6639 93.7096 13.6376C93.7096 13.6376 93.7096 13.6375 93.7096 13.6375C93.724 13.6011 93.7384 13.5646 93.7532 13.5279C93.7587 13.515 93.7639 13.5023 93.7691 13.4897C93.7896 13.4396 93.8095 13.3902 93.8447 13.3345C93.8503 13.3279 93.8574 13.3207 93.8632 13.3155C93.8694 13.3098 93.8757 13.3043 93.8821 13.2992C93.8877 13.2947 93.8933 13.2904 93.8986 13.2863C93.8993 13.2858 93.9 13.2852 93.9007 13.2847C93.9067 13.2801 93.9121 13.2757 93.9173 13.2714C93.9225 13.2672 93.9275 13.2631 93.9319 13.259C93.9319 13.259 93.9319 13.259 93.9319 13.2589C93.9364 13.2547 93.9398 13.2514 93.9438 13.2468C93.9487 13.2411 93.9526 13.2361 93.9565 13.23C93.9603 13.2241 93.9638 13.2179 93.9669 13.2116C93.97 13.2053 93.9729 13.1989 93.9755 13.1923C93.9781 13.1858 93.9806 13.1791 93.9829 13.1723C93.9851 13.1656 93.9872 13.1587 93.9893 13.1518C93.9914 13.1449 93.9935 13.1379 93.9956 13.1309C94.0003 13.1148 94.0293 13.1014 94.0772 13.0939C94.1251 13.0865 94.1878 13.0855 94.252 13.0912C94.3162 13.0969 94.3773 13.1089 94.4225 13.1246C94.4678 13.1403 94.4932 13.1585 94.4941 13.1751C94.4943 13.1797 94.4947 13.1842 94.4949 13.1888C94.495 13.1915 94.495 13.1943 94.4951 13.197C94.4954 13.2043 94.4958 13.2117 94.4959 13.2192C94.4959 13.2266 94.4958 13.2341 94.4954 13.2416C94.495 13.2492 94.4945 13.2568 94.4934 13.2645C94.4923 13.2722 94.4908 13.2801 94.4886 13.288C94.4866 13.2957 94.4834 13.3044 94.4797 13.3121C94.477 13.3178 94.4728 13.3246 94.469 13.3303C94.465 13.3363 94.4607 13.3421 94.4562 13.3477C94.4517 13.3533 94.447 13.3587 94.4425 13.3639C94.4421 13.3644 94.4416 13.365 94.4412 13.3655C94.4372 13.3701 94.4334 13.3745 94.43 13.3786C94.4261 13.3833 94.4228 13.3877 94.42 13.392C94.4168 13.3967 94.4154 13.3995 94.4139 13.4031C94.4016 13.4508 94.398 13.5107 94.3946 13.5679C94.3941 13.575 94.3936 13.5822 94.3932 13.5893C94.3911 13.6268 94.3893 13.6643 94.3875 13.7018C94.3862 13.729 94.3849 13.7563 94.3835 13.7836C94.3814 13.8238 94.3791 13.864 94.3764 13.9042C94.3747 13.9292 94.3729 13.9537 94.3709 13.9786C94.3657 14.0435 94.3593 14.1086 94.3506 14.1735C94.342 14.2384 94.331 14.3034 94.3164 14.3682C94.3019 14.4328 94.2828 14.4995 94.257 14.5633C94.2378 14.6101 94.2073 14.6572 94.1763 14.7006C94.1597 14.7238 94.1428 14.7466 94.126 14.769C94.1259 14.7691 94.1258 14.7692 94.1257 14.7692C94.111 14.7889 94.0964 14.8083 94.0824 14.8276C94.0523 14.869 94.0252 14.9099 94.0017 14.9511C93.9783 14.9923 93.9584 15.0335 93.9423 15.0755C93.9264 15.1171 93.9137 15.1597 93.9045 15.2022C93.8953 15.2449 93.8893 15.2871 93.8856 15.3316C93.881 15.3902 93.8803 15.4488 93.8804 15.509C93.8806 15.5687 93.8821 15.6291 93.8837 15.6896C93.8843 15.7107 93.8847 15.7319 93.8853 15.7531C93.8852 15.7532 93.8852 15.7533 93.8852 15.7534C93.8863 15.7926 93.8875 15.832 93.8884 15.8713C93.8898 15.9321 93.8909 15.993 93.8908 16.0541C93.8906 16.1151 93.8893 16.1764 93.8855 16.2378C93.8815 16.2992 93.8752 16.362 93.8616 16.4245C93.8496 16.4803 93.8354 16.5363 93.8213 16.5911C93.8175 16.6055 93.8138 16.62 93.8101 16.6344C93.7926 16.7031 93.7777 16.7697 93.7702 16.8362C93.7624 16.9026 93.7618 16.9696 93.7667 17.0378C93.7717 17.1057 93.7819 17.1749 93.7954 17.245C93.809 17.3153 93.8256 17.3851 93.8443 17.4564C93.8629 17.5272 93.8834 17.5984 93.9052 17.6707C93.9173 17.7108 93.9279 17.7533 93.9366 17.7934C93.9454 17.8338 93.9528 17.8739 93.9595 17.9134C93.9622 17.9294 93.9647 17.9453 93.9673 17.9612C93.9711 17.9843 93.9747 18.0071 93.9787 18.0297C93.9854 18.0677 93.9929 18.105 94.0023 18.1413C94.0117 18.1776 94.0232 18.2131 94.0381 18.2477C94.0535 18.2835 94.0698 18.3133 94.0936 18.3493C94.1381 18.4359 94.1495 18.4882 94.1624 18.5463C94.165 18.5577 94.1677 18.5694 94.1706 18.5816C94.1847 18.6511 94.1937 18.7201 94.1991 18.7879C94.2045 18.8564 94.2063 18.9235 94.2049 18.9911C94.2034 19.0581 94.1986 19.1253 94.191 19.192C94.1833 19.2585 94.1727 19.3247 94.1591 19.3908C94.1455 19.4569 94.1286 19.524 94.1095 19.5882C94.0985 19.6253 94.0847 19.6646 94.071 19.7009C94.061 19.7272 94.0508 19.753 94.0407 19.7783C94.0365 19.7887 94.0324 19.7989 94.0284 19.8091C94.0145 19.8442 94.0015 19.8784 93.991 19.9115C93.9805 19.9447 93.9723 19.977 93.9675 20.0088C93.9628 20.0408 93.9615 20.0723 93.9636 20.1041C93.966 20.1372 93.9706 20.1648 93.9804 20.2005C93.9869 20.2238 93.9935 20.2466 94.0001 20.2693C94.0101 20.3034 94.0203 20.3372 94.0309 20.3713C94.0416 20.4054 94.0526 20.4391 94.0642 20.473C94.0679 20.4839 94.0719 20.4954 94.0757 20.5064C94.0877 20.5402 94.1001 20.5737 94.1135 20.6072C94.1268 20.6407 94.1408 20.6739 94.1559 20.7071C94.1711 20.7405 94.1871 20.7733 94.2046 20.807C94.2344 20.8641 94.2459 20.9173 94.2526 20.9637C94.2592 21.0105 94.2613 21.0539 94.2633 21.0962C94.2637 21.1041 94.2641 21.112 94.2644 21.1199C94.2659 21.154 94.2672 21.1875 94.2693 21.2206C94.272 21.2614 94.2759 21.3015 94.2813 21.3419C94.2865 21.382 94.2933 21.4225 94.3018 21.4626C94.3105 21.5031 94.3203 21.542 94.3329 21.584C94.3452 21.6256 94.3622 21.6682 94.3807 21.7149C94.3991 21.7612 94.418 21.8097 94.4339 21.8586C94.4498 21.9074 94.463 21.9567 94.4725 22.0054C94.482 22.0542 94.4882 22.1028 94.4914 22.1505C94.4946 22.1984 94.4948 22.2458 94.4927 22.2928C94.4906 22.3397 94.486 22.3878 94.4797 22.4328C94.4694 22.5055 94.4576 22.5778 94.4452 22.6501C94.4328 22.7221 94.4197 22.7942 94.4062 22.8661C94.3928 22.9379 94.379 23.0098 94.3649 23.0815C94.3507 23.1532 94.3364 23.2249 94.322 23.2965C94.3188 23.3124 94.3157 23.3282 94.3125 23.344C94.3013 23.3998 94.29 23.4555 94.279 23.511C94.2789 23.5114 94.2788 23.5118 94.2786 23.5122C94.2645 23.5837 94.2507 23.6539 94.238 23.7248C94.2334 23.7509 94.229 23.776 94.2249 23.8014C94.2209 23.827 94.2172 23.852 94.2139 23.8774C94.2105 23.9027 94.2077 23.928 94.2055 23.9529C94.2033 23.9781 94.2018 24.0027 94.2012 24.0277C94.2006 24.0505 94.2012 24.0733 94.2016 24.0982C94.2017 24.1004 94.2017 24.1027 94.2018 24.105C94.2023 24.1322 94.2015 24.163 94.1977 24.1914C94.1871 24.2666 94.1788 24.34 94.1725 24.415C94.1661 24.49 94.1617 24.565 94.1581 24.6407C94.1567 24.6702 94.1555 24.7 94.1542 24.7297C94.1522 24.7759 94.1502 24.8223 94.1477 24.8688C94.1436 24.9453 94.1381 25.0218 94.1298 25.0986C94.1215 25.1751 94.1103 25.2519 94.0958 25.328C94.0813 25.404 94.0636 25.4805 94.043 25.5556C94.02 25.6394 93.9955 25.7225 93.9701 25.8059C93.9448 25.8892 93.9186 25.9725 93.892 26.0553C93.8653 26.1384 93.8381 26.2213 93.8104 26.3042C93.7827 26.3871 93.7545 26.4699 93.7259 26.5528C93.7087 26.6024 93.6914 26.6519 93.6739 26.7015C93.6833 26.7293 93.6925 26.756 93.7012 26.7817C93.7656 26.9716 93.812 27.1088 93.8367 27.2867C93.8413 27.3039 93.8487 27.3182 93.8576 27.3357C93.8593 27.339 93.861 27.3425 93.8628 27.3461C93.8743 27.3689 93.8862 27.3949 93.892 27.4302C93.9036 27.5006 93.8906 27.6058 93.7622 27.732C93.7297 27.7639 93.595 27.7742 93.4612 27.755C93.3673 27.7415 93.2988 27.7171 93.2774 27.6927C93.2578 27.7326 93.2375 27.7723 93.2172 27.8118C93.2091 27.8276 93.1768 27.8403 93.1267 27.8469C93.0765 27.8535 93.0128 27.8536 92.9487 27.847C92.8847 27.8405 92.8252 27.8278 92.7825 27.8117C92.7398 27.7955 92.7175 27.7773 92.72 27.761C92.7267 27.7176 92.7334 27.6743 92.7392 27.631C92.7451 27.5876 92.7501 27.5444 92.7545 27.501C92.7589 27.4576 92.7627 27.4141 92.7659 27.3705C92.7692 27.327 92.772 27.2835 92.7744 27.2398C92.7769 27.1958 92.7787 27.1526 92.7805 27.1087C92.7816 27.0824 92.7827 27.0558 92.7835 27.0296C92.7839 27.0199 92.784 27.0103 92.7843 27.0008C92.7845 26.993 92.7849 26.9852 92.7851 26.9772C92.7876 26.8925 92.7896 26.807 92.791 26.7221C92.7925 26.6369 92.7937 26.5518 92.7945 26.4666C92.7954 26.3814 92.7958 26.2962 92.7961 26.2109C92.7963 26.1257 92.7964 26.0406 92.7961 25.9552C92.7958 25.8702 92.7954 25.7847 92.7942 25.6995C92.7934 25.6335 92.792 25.5681 92.7902 25.5025C92.7795 25.4758 92.7696 25.4495 92.7601 25.4235C92.7323 25.3478 92.694 25.2711 92.656 25.1956C92.6668 25.3251 92.6923 25.4306 92.7166 25.5311C92.7198 25.5445 92.7231 25.5579 92.7263 25.5712C92.7587 25.7074 92.7848 25.8384 92.7615 26.0095C92.6952 26.4962 92.6532 26.7781 92.6058 26.9519C92.5583 27.1257 92.5042 27.1974 92.4036 27.2599C92.2614 27.3483 92.1687 27.5348 92.1573 27.6316C92.1532 27.6667 92.0382 27.6853 91.9005 27.6731C91.7628 27.6609 91.6545 27.6225 91.6586 27.5873C91.6705 27.4851 91.7659 27.2829 91.9351 27.1777C92.0104 27.1309 92.0614 27.0739 92.1081 26.9028C92.1549 26.7316 92.1963 26.4523 92.2627 25.9647C92.2852 25.7997 92.2605 25.6736 92.2284 25.539C92.2253 25.5258 92.2219 25.5124 92.2187 25.499C92.2187 25.4989 92.2187 25.4989 92.2187 25.4988C92.1888 25.375 92.1561 25.2403 92.152 25.0621C92.1426 24.6514 92.1032 24.0966 92.0654 23.9624C92.058 23.936 92.0493 23.9104 92.0402 23.8834C92.0053 23.7799 91.9633 23.6548 91.9521 23.3803C91.9497 23.3203 91.9513 23.2504 91.9559 23.1743C91.8988 23.0546 91.8462 22.9386 91.8176 22.8392C91.793 22.7534 91.7409 22.6718 91.6831 22.592C91.6665 22.5691 91.649 22.5459 91.6316 22.5228C91.5896 22.467 91.5477 22.4112 91.5161 22.3576C91.491 22.3149 91.4603 22.2698 91.4278 22.2221C91.3093 22.0485 91.1674 21.8404 91.1875 21.5871C91.2088 21.3187 91.2575 21.0915 91.3029 20.8959C91.2578 21.0385 91.2091 21.1474 91.1663 21.2379C91.1583 21.255 91.1505 21.2714 91.1429 21.2871C91.0897 21.3983 91.051 21.4792 91.0445 21.5689C91.0134 21.9973 91.0416 22.1615 91.1479 22.3533C91.1759 22.4037 91.2142 22.4601 91.2553 22.5208C91.3376 22.6421 91.4316 22.7809 91.4797 22.9253C91.5245 23.0599 91.5947 23.2121 91.6689 23.3734C91.6689 23.3734 91.6689 23.3735 91.6689 23.3736C91.6834 23.4051 91.6981 23.437 91.7128 23.4691C91.8022 23.6651 91.8914 23.8709 91.9417 24.068C91.9471 24.0891 91.9548 24.1145 91.9638 24.1436C92.0154 24.3117 92.106 24.6068 92.0014 24.9485C91.9785 25.0235 91.937 25.0999 91.8896 25.1871C91.8752 25.2137 91.86 25.2412 91.8449 25.2701C91.7794 25.3946 91.7081 25.5465 91.6551 25.7526C91.6114 25.9226 91.5793 26.1317 91.5459 26.3488C91.5294 26.4557 91.5124 26.5646 91.4938 26.6717C91.4376 26.9953 91.3676 27.2902 91.2975 27.5846C91.2975 27.5847 91.2975 27.5848 91.2975 27.5848C91.2893 27.6196 91.1709 27.6371 91.0334 27.6238C90.8959 27.6105 90.7911 27.5715 90.7993 27.5368C90.8694 27.2422 90.9394 26.9482 90.9954 26.6256C91.0138 26.5201 91.0305 26.4121 91.047 26.3056C91.0806 26.0875 91.1131 25.8755 91.1572 25.7039C91.2111 25.4943 91.2837 25.3396 91.3501 25.2134C91.3661 25.183 91.3816 25.1544 91.3964 25.1274C91.4432 25.0411 91.4824 24.9694 91.5041 24.8983C91.6054 24.5675 91.5184 24.2835 91.4668 24.1148C91.4577 24.0849 91.4497 24.0586 91.444 24.0363C91.3947 23.8431 91.307 23.6405 91.2176 23.4446C91.2031 23.4128 91.1887 23.3812 91.1742 23.3498C91.1741 23.3498 91.1741 23.3497 91.174 23.3496C91.0997 23.1884 91.0284 23.0334 90.9828 22.8964C90.9365 22.7572 90.8511 22.632 90.7713 22.5148C90.7285 22.452 90.6875 22.3914 90.6547 22.3323C90.5419 22.1289 90.5146 21.9558 90.5458 21.526ZM93.3071 27.631C93.377 27.5517 93.3962 27.4838 93.3965 27.432C93.3785 27.4744 93.3598 27.5167 93.3406 27.559C93.3296 27.5831 93.3185 27.6071 93.3071 27.631ZM92.4552 23.2075C92.4621 23.222 92.4691 23.2365 92.4761 23.2511C92.4756 23.2124 92.4753 23.1738 92.475 23.1352C92.4746 23.0878 92.4745 23.0404 92.4744 22.993C92.4663 23.0676 92.4595 23.14 92.4552 23.2075ZM91.6864 21.6302C91.6675 21.869 91.7974 22.0601 91.9146 22.2324C91.9483 22.282 91.981 22.3301 92.0087 22.3773C92.0203 22.3969 92.0332 22.4165 92.047 22.4364C92.0642 22.3291 92.0811 22.2304 92.0951 22.1497C92.1367 21.9088 92.1913 21.7744 92.2392 21.6563C92.2531 21.6221 92.2664 21.5893 92.2787 21.5556C92.2644 21.5257 92.2504 21.4946 92.2384 21.4635C92.2215 21.4198 92.2057 21.3728 92.1927 21.3283C92.1796 21.2836 92.1683 21.2383 92.1593 21.1941C92.1503 21.1495 92.1433 21.1054 92.1378 21.0617C92.1326 21.0206 92.1287 20.9797 92.1249 20.9401C92.1247 20.9378 92.1245 20.9356 92.1243 20.9333C92.1203 20.8915 92.1164 20.8508 92.1096 20.8132C92.1025 20.7748 92.093 20.7426 92.0769 20.7134C92.0569 20.6769 92.0379 20.6395 92.0204 20.6028C92.0029 20.5659 91.9868 20.5294 91.9719 20.493C91.957 20.4566 91.9433 20.4206 91.9304 20.3846C91.9263 20.373 91.922 20.3608 91.9181 20.3493C91.9162 20.344 91.9144 20.3386 91.9126 20.3334C91.9049 20.4009 91.8961 20.471 91.8856 20.5432C91.8705 20.6477 91.8444 20.7583 91.8157 20.8803C91.7668 21.0884 91.7102 21.3298 91.6864 21.6302ZM91.9579 19.3034C91.9566 19.3329 91.9567 19.3763 91.9569 19.4324C91.9569 19.4456 91.9571 19.4596 91.9571 19.4742C91.9573 19.4739 91.9573 19.4735 91.9575 19.4732C91.9733 19.4383 91.9873 19.406 92.0007 19.3711C92.0245 19.3087 92.0455 19.2479 92.0644 19.1863C92.0833 19.1245 92.0998 19.0626 92.114 19.0005C92.1282 18.9383 92.14 18.8756 92.1492 18.8133C92.1585 18.7504 92.1654 18.6882 92.1691 18.6252C92.1703 18.6051 92.1712 18.5849 92.1717 18.5647C92.1553 18.6084 92.1408 18.6541 92.1256 18.7024C92.1135 18.741 92.1008 18.7812 92.0861 18.8233C92.0805 18.8395 92.0724 18.8589 92.0629 18.8815C92.0253 18.9713 91.9661 19.1121 91.9579 19.3034ZM92.0782 18.0507C92.0762 18.0358 92.0745 18.021 92.0733 18.0064C92.0698 17.9649 92.0693 17.9248 92.0696 17.8855C92.0699 17.8579 92.0707 17.8306 92.0714 17.8038C92.0717 17.7924 92.0719 17.7811 92.0722 17.7699C92.0726 17.7511 92.0728 17.7324 92.0729 17.7139C92.0466 17.8417 92.024 17.9669 92.0089 18.0981C92.0087 18.0999 92.0086 18.1016 92.0084 18.1034C92.0322 18.0854 92.0555 18.0678 92.0782 18.0507Z" fill="white"/>
</svg>
