<svg width="99" height="31" viewBox="0 0 99 31" fill="none" xmlns="http://www.w3.org/2000/svg">
<path d="M33.4335 4.16586C33.9172 4.15599 34.3712 4.1821 34.9446 4.21518C34.9449 4.21517 34.9452 4.21517 34.9455 4.21516C35.0275 4.21989 35.1119 4.22486 35.1991 4.22978C35.9016 4.26941 36.8143 4.31438 38.1895 4.32532C39.7091 4.33741 40.9174 4.45611 41.6561 4.57737C41.7938 4.59998 41.9362 4.61124 42.295 4.61749C42.5303 4.62159 42.8483 4.62345 43.3073 4.62619C43.5514 4.62766 43.8355 4.62928 44.1681 4.63168C45.2691 4.63961 46.9937 4.60106 48.5829 4.56536C49.5474 4.5437 50.4622 4.52312 51.1572 4.51481C52.1735 4.50267 53.1546 4.51064 54.2211 4.51945C55.1978 4.52752 56.2462 4.53633 57.4591 4.53057C58.3897 4.52615 59.2953 4.61191 60.2159 4.70929C60.3331 4.72169 60.4507 4.73423 60.5685 4.74685C61.3809 4.8339 62.2113 4.92304 63.1084 4.96672C64.7075 5.04458 65.9813 4.97864 67.3918 4.90563C67.9434 4.87708 68.516 4.84741 69.1371 4.82486C70.1195 4.78921 71.5322 4.76829 72.9508 4.74877C73.0716 4.74711 73.1926 4.74531 73.3133 4.74367C73.3139 4.74366 73.3145 4.74364 73.3151 4.74363C74.6137 4.72589 75.8881 4.70848 76.8229 4.68143C78.3083 4.63844 78.8666 4.58839 79.3322 4.54655C79.5073 4.53082 79.6693 4.51615 79.8625 4.50359C80.5586 4.45836 81.6103 4.44615 82.6764 4.43372C82.6805 4.43365 82.6845 4.43358 82.6886 4.43351C82.8655 4.43145 83.0103 4.54188 83.0119 4.68011C83.0134 4.81835 82.8712 4.93217 82.6943 4.93423C82.1296 4.94081 81.5785 4.94727 81.0853 4.95817C81.0618 5.07737 80.9305 5.16959 80.7713 5.17145C80.3726 5.17612 79.1534 5.2869 77.2453 5.46644C77.3765 5.4858 77.4865 5.50495 77.5829 5.5233C77.6961 5.54483 77.7828 5.56354 77.8574 5.57955C78.0128 5.61294 78.1162 5.63495 78.2994 5.64925C78.7231 5.66173 79.3887 5.65425 80.0891 5.64609C80.266 5.64406 80.4108 5.75427 80.4124 5.89244C80.4139 6.03065 80.2717 6.14445 80.0948 6.14657C80.0913 6.14663 80.0879 6.14669 80.0844 6.14675C79.3907 6.15483 78.7038 6.16274 78.2611 6.14927C78.1484 6.14584 78.0514 6.14115 77.9785 6.13662C77.9203 6.133 77.8475 6.12797 77.807 6.12057C77.8016 6.11958 77.7914 6.11758 77.7791 6.11446C77.7789 6.11438 77.7787 6.11431 77.7785 6.11423C77.7717 6.11251 77.7367 6.10378 77.6992 6.08411C77.6917 6.08014 77.6752 6.07126 77.656 6.05679C77.6511 6.05573 77.6462 6.05468 77.6413 6.05362C77.573 6.039 77.5033 6.02409 77.4278 6.00973C77.1333 5.95368 76.6671 5.88468 75.6976 5.81993C74.8059 5.76037 73.3001 5.75297 71.422 5.78516C71.5491 5.7933 71.6764 5.80112 71.8036 5.80853C72.1238 5.82717 72.4455 5.84366 72.7672 5.85911C72.8904 5.86501 73.012 5.87077 73.1359 5.87636C73.3353 5.88542 73.5353 5.89424 73.7352 5.90277C73.8703 5.90855 74.0057 5.91418 74.1408 5.91987C74.1411 5.91986 74.1415 5.91986 74.1418 5.91985C74.3294 5.92774 74.5176 5.93569 74.7071 5.94392C74.7735 5.94706 74.8391 5.95004 74.9042 5.95294C75.1633 5.96445 75.4178 5.97557 75.7111 6.00063C75.7468 6.00501 75.7856 6.0108 75.8145 6.01567C75.8456 6.02081 75.8756 6.02606 75.9039 6.03145C75.9289 6.0362 75.9528 6.04107 75.9756 6.04558C75.9787 6.04618 75.9817 6.04678 75.9848 6.04738C76.0104 6.05243 76.0348 6.05708 76.0583 6.06148C76.0817 6.06587 76.1043 6.07009 76.1266 6.07372C76.1268 6.07371 76.127 6.07371 76.1272 6.07371C76.1504 6.07741 76.168 6.0802 76.1927 6.08331C76.2236 6.0872 76.2501 6.09015 76.2823 6.09297C76.3134 6.09572 76.3458 6.09809 76.3785 6.10008C76.4113 6.10207 76.4446 6.10373 76.4784 6.10518C76.5123 6.10662 76.5467 6.10792 76.5813 6.109C76.616 6.11008 76.6511 6.11094 76.6864 6.1118C76.7217 6.11267 76.7574 6.11354 76.7933 6.11433C76.8758 6.11619 76.9554 6.14255 77.0143 6.18861C77.0732 6.23469 77.1066 6.29639 77.1074 6.36085C77.1081 6.42532 77.0761 6.48784 77.0182 6.53529C76.9604 6.58271 76.8815 6.61102 76.7989 6.61481C76.7765 6.61584 76.7539 6.61694 76.7312 6.61795C76.7178 6.61855 76.7042 6.61905 76.6907 6.61963C76.6543 6.6212 76.6176 6.62289 76.5806 6.62424C76.5436 6.62559 76.5063 6.62671 76.4686 6.62766C76.4308 6.62861 76.3925 6.62938 76.3536 6.62967C76.3148 6.62996 76.2751 6.62982 76.2348 6.62906C76.1955 6.62836 76.1507 6.62672 76.1105 6.62439C76.0812 6.62277 76.045 6.61977 76.0149 6.61702C75.9834 6.61415 75.9524 6.61086 75.9225 6.6074C75.8926 6.60393 75.8636 6.60021 75.836 6.5967C75.833 6.59635 75.83 6.59599 75.8271 6.59564C75.8026 6.59254 75.779 6.58951 75.7567 6.58685C75.7318 6.58388 75.7082 6.58139 75.6858 6.5793C75.6611 6.57695 75.6461 6.57611 75.6277 6.57519C75.3848 6.57138 75.0847 6.57828 74.7986 6.58478C74.7626 6.58559 74.7269 6.58635 74.6915 6.58713C74.5036 6.59159 74.316 6.59635 74.1286 6.60111C73.9924 6.60457 73.856 6.60808 73.7195 6.61143C73.5186 6.61637 73.317 6.62102 73.1157 6.62538C72.9907 6.62806 72.8679 6.63052 72.7432 6.63286C72.4174 6.63903 72.0906 6.64406 71.7633 6.64679C71.4365 6.64951 71.1076 6.65003 70.7784 6.64689C70.4504 6.64376 70.1097 6.63646 69.7805 6.62207C69.5385 6.61124 69.2902 6.58934 69.0604 6.56626C68.9369 6.55383 68.816 6.54114 68.6968 6.52841C68.6964 6.52834 68.696 6.52826 68.6956 6.52819C68.591 6.51702 68.4878 6.50595 68.3852 6.49551C68.1654 6.47302 67.9496 6.45332 67.7338 6.43729C67.5183 6.42125 67.3039 6.40885 67.0879 6.40022C66.8736 6.39168 66.6556 6.3866 66.44 6.38491C66.2232 6.38319 66.0104 6.38467 65.7868 6.38874C65.4929 6.39436 65.2011 6.40392 64.9015 6.41445C64.6042 6.42505 64.3044 6.43706 64.0039 6.44917C63.8988 6.45341 63.7936 6.45747 63.6882 6.46176C63.6878 6.46176 63.6874 6.46177 63.687 6.46178C63.492 6.4697 63.2966 6.47766 63.101 6.48544C62.7991 6.49743 62.4963 6.50911 62.1924 6.51961C61.8885 6.53008 61.5827 6.53947 61.2754 6.54636C60.9679 6.55312 60.6521 6.55779 60.3348 6.55521C60.0517 6.55314 59.7663 6.54877 59.4873 6.54436C59.4136 6.54321 59.34 6.54205 59.2663 6.5409C58.9167 6.53557 58.5782 6.53237 58.2437 6.53652C57.9094 6.54047 57.5755 6.55147 57.2386 6.56823C56.9027 6.58493 56.5626 6.6071 56.2199 6.63265C55.8757 6.65832 55.536 6.68692 55.1895 6.71779C54.8455 6.74852 54.5 6.7811 54.1503 6.81529C53.956 6.83423 53.7491 6.85213 53.5536 6.8677C53.3563 6.88342 53.1602 6.8977 52.9665 6.91116C52.888 6.91663 52.8098 6.9219 52.7321 6.92722C52.6189 6.93497 52.5066 6.94257 52.3962 6.95042C52.2097 6.96366 52.0278 6.97751 51.8512 6.99314C51.6746 7.00876 51.5032 7.02633 51.3378 7.04703C51.1666 7.06852 51.0255 7.08981 50.8568 7.11965C50.4458 7.17869 50.1908 7.19907 49.9075 7.22193C49.8517 7.22643 49.7947 7.23117 49.7353 7.23616C49.3956 7.26218 49.0561 7.28309 48.721 7.30026C48.3826 7.31751 48.0495 7.33098 47.712 7.34132C47.3778 7.35158 47.0411 7.35851 46.7058 7.36254C46.3709 7.36657 46.0366 7.36762 45.7013 7.36567C45.3663 7.36374 45.0243 7.35866 44.696 7.35099C44.5062 7.34658 44.3046 7.3398 44.1173 7.33252C43.9821 7.32728 43.8489 7.32161 43.7183 7.31604C43.665 7.31376 43.612 7.31149 43.5595 7.30929C43.3785 7.30169 43.2026 7.29479 43.0327 7.29016C42.8627 7.28551 42.6983 7.28304 42.5375 7.28391C42.3764 7.28476 42.2188 7.28896 42.0613 7.29662C41.8979 7.30472 41.7623 7.31412 41.589 7.33001C41.4762 7.34047 41.3656 7.35097 41.2554 7.36147C41.0903 7.37719 40.9265 7.39316 40.7615 7.40965C40.5966 7.42612 40.4339 7.44286 40.2703 7.46022C40.2177 7.46581 40.1622 7.4717 40.1095 7.47744C39.9465 7.49516 39.7854 7.51329 39.6245 7.5323C39.4639 7.55128 39.3048 7.57096 39.1463 7.59168C38.9872 7.61248 38.8308 7.63399 38.6713 7.65711C38.4002 7.69652 38.1405 7.71714 37.9129 7.73188C37.6827 7.74656 37.4674 7.75622 37.2579 7.76554C37.2187 7.76728 37.1794 7.76902 37.1402 7.77077C36.9712 7.77815 36.805 7.78523 36.6412 7.79315C36.4394 7.80288 36.2414 7.81375 36.0427 7.82606C35.8457 7.83824 35.6468 7.85195 35.4509 7.8674C35.2533 7.88303 35.0643 7.8995 34.8606 7.91922C34.6592 7.9386 34.4548 7.96287 34.2306 7.98931C34.0086 8.01555 33.7755 8.0426 33.5395 8.06681C33.3036 8.09109 33.064 8.11269 32.826 8.13055C32.5876 8.14848 32.3483 8.16308 32.1123 8.1745C31.875 8.18601 31.6391 8.19444 31.4043 8.20054C31.1701 8.20663 30.9281 8.21051 30.7016 8.21207C30.3348 8.2146 29.9696 8.21551 29.6038 8.21585C29.2399 8.21612 28.875 8.21571 28.5107 8.2149C28.1472 8.21408 27.7832 8.21295 27.4198 8.21148C27.0563 8.21002 26.6928 8.20834 26.3298 8.20658C26.2495 8.20619 26.1692 8.2058 26.0889 8.20541C25.8063 8.20403 25.5236 8.20264 25.2422 8.20139C25.2403 8.20134 25.2383 8.20129 25.2364 8.20124C24.8741 8.19973 24.5184 8.19831 24.1592 8.19807C24.0273 8.19804 23.9006 8.19806 23.7719 8.19848C23.643 8.19891 23.5165 8.19964 23.3889 8.20077C23.2611 8.20192 23.134 8.20353 23.0089 8.20569C22.8825 8.20792 22.7593 8.21064 22.6349 8.21442C22.5209 8.21782 22.4077 8.22234 22.2841 8.22714C22.2728 8.22758 22.2615 8.22802 22.2503 8.22846C22.115 8.23373 21.9611 8.23826 21.8179 8.23943C21.4389 8.2421 21.0695 8.24668 20.6934 8.25344C20.3172 8.26018 19.9418 8.26889 19.5633 8.27854C19.4155 8.28228 19.2671 8.28632 19.1185 8.29021C18.8875 8.29626 18.6556 8.30233 18.4229 8.30796C18.0402 8.31726 17.6566 8.32514 17.2705 8.33028C16.8859 8.33539 16.4987 8.33764 16.1132 8.33656C15.728 8.33551 15.3394 8.33128 14.9559 8.32404C14.5285 8.3159 14.1036 8.3061 13.6768 8.29558C13.2507 8.28502 12.8243 8.27362 12.3998 8.2617C11.9737 8.24979 11.5487 8.23734 11.1236 8.2244C10.6982 8.21145 10.2731 8.19803 9.84768 8.18416C9.59307 8.17585 9.33853 8.16731 9.08387 8.15867C8.94946 8.17276 8.8206 8.18653 8.69665 8.19961C7.78071 8.2963 7.11845 8.36606 6.24409 8.42141C6.16039 8.42894 6.09235 8.43877 6.00958 8.45065C5.99379 8.45292 5.97703 8.4552 5.95995 8.45762C5.85176 8.47295 5.72751 8.48917 5.55446 8.50108C5.20924 8.52485 4.67956 8.53024 3.99314 8.42529C3.81974 8.39878 3.70741 8.26741 3.74231 8.13176C3.76685 8.03662 3.85745 7.96465 3.96909 7.9393C3.76179 7.92685 3.55503 7.91365 3.34881 7.90055C3.2665 7.8953 3.18879 7.86558 3.13309 7.81714C3.07742 7.76869 3.04827 7.70571 3.05188 7.64128C3.0555 7.57684 3.09175 7.51582 3.15268 7.47079C3.2136 7.42582 3.29411 7.40063 3.37671 7.40022C3.59581 7.39926 3.81417 7.39835 4.03257 7.39659C4.25114 7.39484 4.46867 7.39225 4.68683 7.38907C4.90493 7.3859 5.12295 7.38201 5.34164 7.37764C5.55948 7.37326 5.77774 7.36853 5.9964 7.36328C6.21644 7.35805 6.43232 7.35233 6.65172 7.34647C6.78317 7.34294 6.91621 7.33939 7.0468 7.33567C7.09547 7.33433 7.14296 7.33282 7.19048 7.33145C7.22932 7.33033 7.26836 7.3293 7.30855 7.32817C7.73127 7.31589 8.15803 7.30294 8.58096 7.2896C9.00588 7.27625 9.43038 7.26257 9.85485 7.24856C10.2796 7.23455 10.7039 7.22012 11.1284 7.20558C11.5527 7.19103 11.9768 7.17625 12.4016 7.16113C12.8249 7.14601 13.2499 7.13069 13.6739 7.11475C14.0019 7.10242 14.327 7.08966 14.6527 7.07642C14.7807 7.06127 14.9075 7.04685 15.0325 7.03292C15.3966 6.99236 15.761 6.94111 16.12 6.89038C15.4801 6.92366 14.9663 6.96716 14.4772 7.00867C14.4116 7.01424 14.3465 7.01981 14.2816 7.02527C13.6186 7.08101 12.9781 7.12958 12.1155 7.13634C9.66229 7.15554 8.23976 7.16313 7.35299 7.14645C6.46638 7.12977 6.08484 7.08876 5.72787 7.00023C5.22347 6.87511 4.25313 6.81587 3.76614 6.82154C3.58924 6.8236 3.44449 6.71315 3.44288 6.57494C3.44132 6.4367 3.58352 6.32288 3.76045 6.32082C4.27467 6.31483 5.32459 6.37393 5.92496 6.52283C6.19235 6.58916 6.49923 6.6296 7.37233 6.64603C8.24554 6.66245 9.65494 6.6548 12.1129 6.63556C12.9444 6.62905 13.5608 6.58268 14.2167 6.52753C14.281 6.52213 14.3458 6.5165 14.4112 6.51095C14.4116 6.51095 14.412 6.51094 14.4124 6.51093C15.0149 6.45979 15.6709 6.40405 16.5562 6.369C18.5968 6.2882 21.3413 6.15272 21.9923 6.09195C22.12 6.08003 22.2435 6.06698 22.3738 6.05331C22.8737 6.00081 23.4772 5.93749 24.8387 5.87866C25.1365 5.8658 25.4854 5.85525 25.8662 5.84657C26.4364 5.76923 26.9901 5.69705 27.4719 5.65152C27.8877 5.61222 28.2706 5.5466 28.6415 5.47556C28.7483 5.4551 28.8557 5.43379 28.963 5.41256C29.2218 5.36136 29.4806 5.31019 29.733 5.2697C29.9342 5.23743 30.1449 5.19919 30.3675 5.15875C31.1784 5.01148 32.1502 4.835 33.42 4.81074C34.7662 4.78503 35.9193 4.7937 36.9138 4.80445C36.1832 4.78468 35.619 4.75556 35.1489 4.72904C35.0603 4.72404 34.9753 4.71916 34.8935 4.71445C34.3158 4.68121 33.8958 4.65704 33.4462 4.66622C31.299 4.71002 30.4944 4.76652 29.5878 4.90498C29.3491 4.94144 29.0859 4.98905 28.8024 5.0403C28.2357 5.14272 27.5875 5.25983 26.8901 5.33251C26.2405 5.4002 25.5144 5.49606 24.745 5.59753C24.7447 5.59754 24.7444 5.59754 24.7441 5.59755C24.5938 5.61738 24.4416 5.63742 24.2882 5.65752C23.3528 5.78007 22.3688 5.90405 21.4102 5.98808C21.3077 5.99706 21.1849 6.00913 21.044 6.02304C20.2303 6.10332 18.802 6.24424 17.0538 6.20037C16.6699 6.19073 16.2706 6.16309 15.815 6.13141C15.6762 6.12176 15.5321 6.11159 15.3816 6.10161C14.7322 6.05853 13.9432 6.0145 12.8935 5.99804C12.0271 5.98446 10.9717 5.98912 9.87568 5.99382C9.33582 5.99614 8.78613 5.99835 8.24435 5.99861C6.60783 5.99939 5.10757 5.98151 3.61015 5.96351C3.60985 5.96352 3.60954 5.96352 3.60924 5.96353C3.43233 5.9614 3.2918 5.84743 3.29561 5.70919C3.29947 5.57102 3.44596 5.46063 3.62278 5.46271C5.12107 5.48072 6.61675 5.49875 8.24782 5.49797C8.78136 5.49772 9.32675 5.4955 9.8645 5.49319C10.9658 5.48847 12.036 5.4837 12.9104 5.49741C13.978 5.51415 14.7814 5.55903 15.4398 5.6027C15.5983 5.61322 15.7474 5.62361 15.889 5.63344C16.3396 5.66475 16.7142 5.69096 17.0784 5.7001C18.771 5.74257 20.1454 5.6072 20.9621 5.52682C21.1069 5.51256 21.2342 5.50014 21.3427 5.49063C22.2824 5.40826 23.2513 5.28629 24.1859 5.16385C24.3375 5.14399 24.4884 5.12418 24.6381 5.10444C24.6384 5.10435 24.6387 5.10426 24.639 5.10418C25.4082 5.00272 26.1474 4.90523 26.8091 4.83628C27.4807 4.76629 28.0656 4.66012 28.6127 4.56085C28.9063 4.50759 29.189 4.45649 29.4684 4.41381C30.4302 4.26692 31.2794 4.20981 33.4335 4.16586ZM4.28959 7.95788C4.71621 8.01318 5.06315 8.02035 5.32127 8.01166C5.10174 8.00124 4.88273 7.9901 4.66355 7.97845C4.53879 7.97183 4.41418 7.96497 4.28959 7.95788ZM25.9271 6.34584C25.8583 6.35519 25.789 6.36463 25.7194 6.37413C25.9117 6.36685 26.1041 6.35984 26.2962 6.35282C26.5321 6.34421 26.7679 6.33585 27.0036 6.32754C26.6286 6.33244 26.2653 6.3383 25.9271 6.34584ZM33.4318 5.31136C32.2342 5.33423 31.3418 5.49586 30.5371 5.64172C30.3053 5.68373 30.0806 5.72436 29.8582 5.76004C29.766 5.77483 29.6738 5.79101 29.581 5.8081C30.1235 5.80647 30.6222 5.80602 31.0304 5.80575C32.2486 5.80495 32.9425 5.8355 33.5522 5.86233C33.7287 5.8701 33.8982 5.8775 34.0712 5.8838C34.2139 5.8645 34.3621 5.84525 34.5119 5.828C34.7216 5.80366 34.9483 5.77986 35.1642 5.75923C35.3808 5.73848 35.601 5.71946 35.8173 5.7029C36.0353 5.6862 36.2515 5.67167 36.4666 5.6586C36.6691 5.64627 36.8708 5.63531 37.0661 5.6247C37.0773 5.6241 37.0885 5.62349 37.0996 5.62289C37.306 5.61162 37.5068 5.60078 37.6912 5.58742C37.8789 5.57372 38.0349 5.55871 38.1732 5.53774C38.3459 5.5116 38.5231 5.48632 38.6983 5.46264C38.8738 5.43892 39.0485 5.41664 39.2228 5.39561C39.3974 5.37454 39.5703 5.35469 39.7437 5.33573C39.7997 5.3296 39.8584 5.32328 39.914 5.31737C39.9396 5.31465 39.9652 5.31188 39.9907 5.3092C39.651 5.3134 39.2982 5.31687 38.9336 5.3191C38.4069 5.32233 37.8444 5.31579 37.2239 5.30866C36.1654 5.29649 34.9381 5.28259 33.4318 5.31136ZM45.1393 5.17464C44.9916 5.17852 44.7754 5.18621 44.4966 5.19612C44.4307 5.19846 44.3611 5.20109 44.2883 5.20366C44.29 5.20375 44.2917 5.20372 44.2934 5.20381C44.4743 5.21342 44.6414 5.22162 44.8216 5.22878C45.1429 5.24145 45.455 5.25167 45.7702 5.2596C46.0866 5.26752 46.4021 5.27303 46.7179 5.27626C47.0342 5.27949 47.3513 5.28024 47.6656 5.27852C47.983 5.27674 48.2958 5.27273 48.6116 5.26543C48.7122 5.26311 48.8131 5.26044 48.9139 5.25747C48.6885 5.2488 48.4545 5.24249 48.2073 5.23586C48.0098 5.23056 47.8039 5.22501 47.5873 5.21787C47.5045 5.21513 47.4041 5.21048 47.2871 5.20504C46.8232 5.18348 46.0953 5.14953 45.1393 5.17464ZM51.4307 5.07557C51.5039 5.07097 51.5767 5.06671 51.6487 5.06297C51.8536 5.05236 52.0534 5.04485 52.2492 5.03833C52.3868 5.03377 52.5228 5.02984 52.6568 5.02584C52.7133 5.02416 52.7698 5.0224 52.8258 5.0207C52.9195 5.01784 53.0126 5.01477 53.1049 5.01167C52.4567 5.00791 51.8231 5.0074 51.1628 5.01529C51.1541 5.0154 51.1454 5.01564 51.1366 5.01575C51.2369 5.03611 51.3349 5.05606 51.4307 5.07557Z" fill="white"/>
<path d="M10.0225 8.39568C10.0224 8.48035 9.98701 8.5591 9.94219 8.65857C9.94219 8.65862 9.94219 8.65868 9.94218 8.65873C9.93578 8.67294 9.92908 8.68758 9.92237 8.70272C9.86835 8.82459 9.80468 8.98306 9.76556 9.22301C9.72232 9.48814 9.57888 9.69672 9.44252 9.82324C9.41709 9.84684 9.40291 9.87148 9.38931 9.934C9.38039 9.97501 9.37201 10.0305 9.35986 10.1106C9.35339 10.1532 9.34594 10.2028 9.33672 10.2608C9.30622 10.453 9.3094 10.7549 9.3125 11.0332C9.31438 11.2021 9.31619 11.3623 9.31025 11.4838C9.30155 11.6616 9.27347 11.8327 9.24279 12.0188C9.2147 12.1892 9.1844 12.3721 9.16529 12.5841C9.15062 12.7467 9.04633 12.9031 8.9301 13.0619C8.91531 13.0821 8.90036 13.1024 8.88533 13.1227C8.78165 13.2628 8.67552 13.406 8.61346 13.5617C8.50284 13.8394 8.54264 14.0632 8.5867 14.311C8.60394 14.408 8.62186 14.5086 8.63166 14.6175C8.64715 14.7898 8.6391 15.037 8.62953 15.2851C8.62871 15.3062 8.62803 15.3274 8.6272 15.3485C8.6272 15.3486 8.6272 15.3487 8.62719 15.3488C8.61831 15.576 8.60958 15.7989 8.61746 15.9627C8.62997 16.223 8.66855 16.3215 8.70084 16.4037C8.71297 16.4346 8.72431 16.4632 8.7329 16.4972C8.76385 16.6197 8.75449 16.8036 8.74506 16.9901C8.74504 16.9908 8.74503 16.9915 8.74502 16.9922C8.74345 17.0231 8.63009 17.0462 8.49188 17.0436C8.35366 17.041 8.24279 17.0139 8.24436 16.9829C8.24936 16.8842 8.25421 16.7878 8.25342 16.7014C8.13474 16.6949 8.04525 16.6701 8.04666 16.6422C8.05016 16.5725 7.96442 16.3573 7.82407 16.0204C7.80202 16.0429 7.78062 16.0617 7.7603 16.0782C7.73646 16.0975 7.71598 16.1123 7.69844 16.125C7.66188 16.1514 7.63776 16.169 7.61971 16.2007C7.59854 16.2745 7.59237 16.3909 7.58617 16.5134C7.58457 16.5443 7.47144 16.5673 7.33328 16.5648C7.19509 16.5622 7.08424 16.535 7.08576 16.5041C7.08577 16.5035 7.08578 16.5029 7.08579 16.5023C7.09193 16.381 7.09811 16.2608 7.12065 16.1838C7.12639 16.1642 7.13307 16.1473 7.13909 16.1347C7.1439 16.1246 7.15042 16.112 7.15865 16.1051C7.15975 16.1042 7.16196 16.1024 7.16533 16.1003C7.16541 16.1003 7.16549 16.1003 7.16557 16.1002C7.16744 16.0991 7.17687 16.0932 7.1973 16.087C7.20143 16.0858 7.21064 16.0831 7.22551 16.08C7.22666 16.0792 7.22782 16.0784 7.22897 16.0775C7.24499 16.0659 7.26132 16.054 7.27722 16.0411C7.3393 15.9908 7.41783 15.9108 7.50244 15.7428C7.58026 15.5883 7.61853 15.3255 7.62485 14.9969C7.61411 15.0189 7.60369 15.041 7.59366 15.063C7.56847 15.1186 7.5454 15.1744 7.52335 15.2303C7.51493 15.2517 7.50668 15.2728 7.49855 15.2943C7.4854 15.329 7.47248 15.3637 7.45986 15.3984C7.45131 15.4219 7.44291 15.4454 7.43445 15.4689C7.43445 15.469 7.43445 15.469 7.43445 15.4691C7.42272 15.5017 7.41091 15.5344 7.39879 15.5673C7.39429 15.5789 7.38997 15.5903 7.38574 15.6016C7.36892 15.6466 7.35259 15.6908 7.32152 15.7415C7.31642 15.7476 7.30983 15.7543 7.30436 15.7593C7.29859 15.7646 7.29272 15.7697 7.28676 15.7745C7.28149 15.7788 7.27614 15.7829 7.27116 15.7868C7.2705 15.7873 7.26984 15.7878 7.26918 15.7883C7.26361 15.7927 7.25845 15.7969 7.25358 15.8009C7.24871 15.8049 7.24402 15.8088 7.23994 15.8126C7.23994 15.8126 7.23994 15.8126 7.23994 15.8127C7.23576 15.8167 7.23262 15.8197 7.229 15.8239C7.22447 15.8292 7.22098 15.8338 7.2175 15.8394C7.21412 15.8447 7.21108 15.8503 7.20842 15.856C7.20576 15.8617 7.20342 15.8675 7.20128 15.8734C7.19914 15.8792 7.19714 15.8852 7.19535 15.8913C7.19356 15.8973 7.19198 15.9034 7.19039 15.9096C7.1888 15.9157 7.1872 15.9219 7.18567 15.9282C7.18212 15.9425 7.15414 15.9559 7.10688 15.9652C7.05962 15.9746 6.99725 15.9792 6.9328 15.978C6.86834 15.9768 6.8065 15.9699 6.76025 15.9588C6.71403 15.9478 6.68735 15.9334 6.68525 15.9189C6.68469 15.915 6.68405 15.911 6.68351 15.907C6.68318 15.9046 6.68296 15.9023 6.68266 15.8999C6.68183 15.8935 6.6809 15.8871 6.68031 15.8806C6.67971 15.8741 6.67936 15.8675 6.67918 15.8609C6.67901 15.8543 6.67903 15.8476 6.67954 15.8408C6.68004 15.834 6.68099 15.8271 6.68258 15.8201C6.68409 15.8132 6.68665 15.8054 6.6898 15.7985C6.69201 15.7934 6.69576 15.7871 6.69912 15.7819C6.70264 15.7765 6.70656 15.7711 6.71063 15.766C6.71471 15.7608 6.71903 15.7558 6.7231 15.7511C6.72352 15.7506 6.72393 15.7501 6.72435 15.7496C6.72795 15.7454 6.73146 15.7413 6.73457 15.7375C6.73806 15.7332 6.74103 15.7291 6.74358 15.7252C6.74644 15.721 6.74758 15.7184 6.74888 15.7152C6.75767 15.6728 6.75692 15.6203 6.75629 15.5702C6.75621 15.5639 6.75619 15.5576 6.75613 15.5514C6.75553 15.5185 6.75462 15.4857 6.7537 15.4528C6.75303 15.429 6.75233 15.4051 6.75178 15.3812C6.75096 15.346 6.75044 15.3107 6.75021 15.2754C6.7501 15.2535 6.75015 15.232 6.75037 15.2102C6.75088 15.1532 6.75255 15.096 6.75653 15.0388C6.76052 14.9817 6.76674 14.9242 6.77663 14.8668C6.78649 14.8096 6.80077 14.7502 6.82191 14.693C6.83769 14.651 6.86468 14.6081 6.89245 14.5684C6.90741 14.5471 6.92258 14.5262 6.93775 14.5057C6.93783 14.5056 6.93791 14.5056 6.93799 14.5055C6.95131 14.4875 6.96449 14.4696 6.97702 14.452C7.00401 14.414 7.02814 14.3767 7.04858 14.3394C7.06903 14.3021 7.08582 14.2649 7.09888 14.2273C7.11181 14.1901 7.12135 14.1521 7.12747 14.1145C7.13363 14.0767 7.13652 14.0395 7.13703 14.0004C7.13744 13.9489 7.13386 13.8978 7.12948 13.8452C7.12498 13.7931 7.11912 13.7405 7.11318 13.6877C7.1111 13.6693 7.10919 13.6508 7.10707 13.6323C7.10707 13.6323 7.10707 13.6322 7.10707 13.6321C7.10315 13.5979 7.0992 13.5636 7.09544 13.5293C7.08964 13.4763 7.08417 13.4232 7.07991 13.3699C7.07567 13.3166 7.07255 13.263 7.07197 13.2092C7.07152 13.1554 7.07332 13.1002 7.08241 13.0448C7.09028 12.9954 7.1005 12.9456 7.11063 12.897C7.11329 12.8842 7.11596 12.8713 7.11863 12.8585C7.13111 12.7975 7.14125 12.7385 7.14396 12.68C7.14687 12.6215 7.14273 12.563 7.13287 12.5038C7.12307 12.4448 7.10788 12.3849 7.08936 12.3246C7.07076 12.2639 7.04914 12.204 7.02538 12.1429C7.00172 12.0822 6.97623 12.0212 6.94923 11.9594C6.93427 11.9251 6.92062 11.8886 6.90906 11.8541C6.8974 11.8193 6.88715 11.7848 6.87766 11.7507C6.8738 11.7368 6.87014 11.7231 6.86642 11.7094C6.86098 11.6895 6.85569 11.6697 6.85011 11.6503C6.8407 11.6174 6.83058 11.5854 6.81858 11.5542C6.80659 11.523 6.79253 11.4928 6.77523 11.4634C6.75726 11.4331 6.73888 11.408 6.7125 11.378C6.66191 11.305 6.64677 11.26 6.62973 11.2101C6.62637 11.2002 6.62279 11.1902 6.61902 11.1797C6.59998 11.1198 6.58604 11.0601 6.57574 11.0012C6.56544 10.9418 6.55881 10.8833 6.55539 10.8242C6.55199 10.7656 6.55196 10.7067 6.5548 10.648C6.55764 10.5895 6.56345 10.5311 6.57227 10.4725C6.58107 10.4141 6.59316 10.3545 6.60757 10.2973C6.61586 10.2642 6.62677 10.2291 6.63789 10.1966C6.6459 10.1731 6.6543 10.1499 6.66255 10.1273C6.66591 10.118 6.66927 10.1088 6.67255 10.0997C6.68386 10.0682 6.69437 10.0376 6.70248 10.008C6.7106 9.97845 6.71645 9.94979 6.71888 9.92168C6.72133 9.89353 6.72036 9.86593 6.71594 9.83825C6.71119 9.80956 6.70457 9.78569 6.69224 9.7551C6.68409 9.73518 6.67587 9.71565 6.66763 9.69618C6.6553 9.66704 6.64269 9.6381 6.62959 9.60894C6.61651 9.57981 6.60312 9.55105 6.58911 9.52213C6.58461 9.51283 6.57985 9.50301 6.5752 9.49368C6.56083 9.46486 6.54601 9.43635 6.5303 9.40786C6.51462 9.37942 6.49821 9.35123 6.48075 9.32314C6.46321 9.29492 6.44492 9.26717 6.42508 9.23884C6.39124 9.19069 6.37596 9.1449 6.36588 9.10486C6.35594 9.06434 6.35069 9.02655 6.34567 8.98977C6.34473 8.98288 6.34379 8.97599 6.34286 8.96911C6.33894 8.93944 6.33527 8.91026 6.33071 8.88151C6.32512 8.84607 6.31831 8.81125 6.31008 8.7763C6.30195 8.74165 6.29232 8.70663 6.28089 8.67211C6.26932 8.63727 6.25673 8.60392 6.2412 8.56795C6.22595 8.53238 6.20588 8.49618 6.18405 8.4565C6.16237 8.41718 6.1401 8.37592 6.12074 8.3342C6.10131 8.29251 6.08463 8.25022 6.07166 8.2083C6.05862 8.16629 6.04893 8.1242 6.04235 8.08274C6.03571 8.04107 6.03212 7.99969 6.03085 7.95857C6.02955 7.91754 6.03064 7.8752 6.03372 7.83561C6.03871 7.7715 6.04529 7.7077 6.05246 7.6438C6.05964 7.58026 6.06753 7.51653 6.07581 7.45294C6.08409 7.38946 6.09268 7.32592 6.1016 7.26248C6.11052 7.19902 6.11965 7.13557 6.12885 7.07222C6.13089 7.05821 6.13292 7.04419 6.13496 7.03018C6.14213 6.98084 6.14932 6.93151 6.15634 6.88239C6.15643 6.88205 6.15651 6.88171 6.1566 6.88137C6.16554 6.81814 6.17426 6.75605 6.18186 6.69332C6.18459 6.67029 6.18717 6.64816 6.18939 6.62567C6.1916 6.60315 6.19347 6.58104 6.19495 6.55873C6.19643 6.53639 6.19743 6.51417 6.19782 6.49228C6.19819 6.47015 6.198 6.44857 6.19677 6.42678C6.1957 6.4068 6.19351 6.38694 6.19125 6.36525C6.19104 6.36327 6.19083 6.36129 6.19062 6.35931C6.18813 6.33558 6.18675 6.30861 6.18852 6.28359C6.19362 6.21733 6.19661 6.15273 6.19757 6.08692C6.19854 6.02107 6.19753 5.95534 6.19565 5.88904C6.19494 5.86315 6.19395 5.83713 6.19311 5.81112C6.1918 5.77064 6.19048 5.73001 6.18962 5.68927C6.18817 5.62224 6.18816 5.55509 6.19094 5.48755C6.19372 5.42027 6.19941 5.35261 6.20839 5.28531C6.21733 5.21806 6.22953 5.15028 6.24463 5.08345C6.26153 5.00898 6.28004 4.93498 6.29931 4.86065C6.3186 4.78645 6.33874 4.71222 6.35936 4.63832C6.38 4.56416 6.40116 4.49019 6.42282 4.41621C6.44448 4.34219 6.46662 4.26822 6.4892 4.19421C6.50273 4.14991 6.51648 4.10564 6.53035 4.06134C6.51901 4.03758 6.50789 4.01479 6.49736 3.99287C6.41948 3.83093 6.36332 3.71384 6.32592 3.56001C6.32011 3.54523 6.31167 3.53315 6.3015 3.51845C6.29956 3.51565 6.29762 3.51267 6.29555 3.50964C6.28245 3.49043 6.26877 3.4684 6.26042 3.43793C6.24374 3.37716 6.24921 3.28454 6.36819 3.16682C6.39825 3.13708 6.53187 3.12015 6.66676 3.12903C6.76137 3.13527 6.83145 3.15256 6.85451 3.17258C6.8712 3.13663 6.88864 3.10079 6.90596 3.06505C6.91289 3.05078 6.94419 3.03782 6.99376 3.02908C7.04334 3.02036 7.10689 3.01656 7.17122 3.01851C7.23557 3.02046 7.29582 3.02804 7.33958 3.03961C7.38329 3.05117 7.40683 3.06575 7.40554 3.08018C7.402 3.11846 7.39843 3.15662 7.39572 3.19479C7.39298 3.233 7.39111 3.27104 7.38982 3.30921C7.38852 3.34736 7.38793 3.38552 7.38782 3.4238C7.38773 3.46193 7.38799 3.50015 7.38875 3.53844C7.38947 3.57698 7.39076 3.6148 7.39212 3.65324C7.39296 3.67627 7.39378 3.69957 7.39482 3.72245C7.39516 3.73098 7.39569 3.73931 7.39608 3.74763C7.39641 3.75444 7.39664 3.76128 7.39694 3.76832C7.40056 3.8424 7.40474 3.91719 7.40941 3.99133C7.41404 4.06581 7.41902 4.14023 7.42432 4.21464C7.42961 4.2891 7.43534 4.36351 7.44117 4.43794C7.44702 4.51234 7.4531 4.5867 7.4595 4.66121C7.46593 4.73545 7.47253 4.80998 7.47978 4.88435C7.48537 4.94188 7.49147 4.99893 7.49802 5.05608C7.51055 5.07875 7.52236 5.10118 7.53372 5.12331C7.5668 5.18773 7.61056 5.25242 7.65391 5.31615C7.63377 5.20371 7.60081 5.1131 7.56935 5.02682C7.56513 5.01526 7.56089 5.00377 7.55676 4.99231C7.51464 4.87539 7.47922 4.76253 7.49015 4.61175C7.52125 4.18292 7.54283 3.93433 7.57769 3.77981C7.61254 3.62531 7.66136 3.55952 7.75718 3.49899C7.89259 3.41347 7.9717 3.24522 7.97602 3.16005C7.97759 3.12912 8.09097 3.1061 8.22916 3.10866C8.36739 3.11122 8.47825 3.13839 8.47669 3.16933C8.47213 3.25925 8.39152 3.4414 8.23037 3.5432C8.15858 3.58854 8.11186 3.6413 8.07754 3.79345C8.04321 3.94561 8.02197 4.19191 7.9908 4.62156C7.98026 4.76691 8.01397 4.87551 8.05565 4.99119C8.05974 5.00254 8.06404 5.01396 8.06824 5.02549C8.06824 5.02556 8.06824 5.02563 8.06824 5.0257C8.10701 5.13197 8.14927 5.24768 8.16616 5.40302C8.20509 5.76105 8.28425 6.24313 8.33165 6.35807C8.34096 6.38062 8.35147 6.40245 8.36247 6.42548C8.40469 6.51386 8.45562 6.62056 8.4865 6.85955C8.49326 6.91182 8.49665 6.97297 8.49752 7.03964C8.56314 7.14082 8.62394 7.239 8.65958 7.32407C8.69034 7.39749 8.74808 7.4657 8.8115 7.53194C8.82976 7.551 8.84886 7.57021 8.86788 7.58938C8.91375 7.63562 8.9596 7.68188 8.9949 7.72679C9.02304 7.76259 9.05694 7.80016 9.0928 7.83986C9.2234 7.9845 9.37989 8.15783 9.3781 8.3801C9.3762 8.61573 9.34389 8.81692 9.31275 8.99039C9.34749 8.86321 9.38817 8.76526 9.42432 8.68371C9.43114 8.66833 9.43776 8.65359 9.44414 8.63941C9.48922 8.53919 9.52199 8.46633 9.52203 8.38764C9.52227 8.01175 9.48229 7.87007 9.36246 7.7089C9.33092 7.66646 9.28872 7.61953 9.2433 7.56896C9.15254 7.46789 9.04876 7.35228 8.9904 7.229C8.93605 7.11417 8.85511 6.98539 8.76946 6.84894C8.76946 6.84889 8.76946 6.84884 8.76946 6.84878C8.75272 6.82212 8.7358 6.79515 8.71886 6.76794C8.61553 6.60206 8.51177 6.42767 8.44743 6.25855C8.44054 6.24046 8.431 6.21877 8.41998 6.19386C8.35642 6.05012 8.24483 5.79778 8.32453 5.49338C8.34203 5.42653 8.37786 5.35736 8.41887 5.27844C8.43136 5.2544 8.44448 5.22944 8.45754 5.20337C8.51392 5.09083 8.57411 4.95395 8.61209 4.77096C8.64343 4.61994 8.66041 4.43551 8.67818 4.24401C8.68693 4.14968 8.69599 4.05363 8.70684 3.95901C8.73962 3.67319 8.78826 3.41155 8.83694 3.1504C8.83694 3.15035 8.83695 3.1503 8.83695 3.15024C8.8427 3.11939 8.95951 3.09719 9.09762 3.10069C9.23567 3.10419 9.34302 3.13204 9.3373 3.16288C9.28859 3.42417 9.2399 3.68501 9.20723 3.96988C9.19655 4.06307 9.18758 4.15836 9.17886 4.25232C9.161 4.44476 9.14383 4.63175 9.11219 4.78417C9.07357 4.97028 9.01223 5.10967 8.95508 5.22375C8.94131 5.25123 8.92787 5.27706 8.91514 5.30157C8.8746 5.37963 8.84072 5.44451 8.82412 5.50793C8.74696 5.80266 8.8541 6.04546 8.91771 6.18973C8.92899 6.21532 8.9388 6.23781 8.94608 6.25694C9.00916 6.42275 9.11121 6.59446 9.21444 6.76019C9.23119 6.78708 9.2479 6.81384 9.26457 6.84039C9.26465 6.84044 9.26473 6.8405 9.26481 6.84055C9.35046 6.97696 9.43276 7.10806 9.48812 7.22502C9.54431 7.34375 9.63845 7.44807 9.72646 7.54566C9.77369 7.59803 9.81898 7.64846 9.85591 7.69812C9.98303 7.8691 10.0227 8.01858 10.0225 8.39568ZM6.82936 3.22817C6.76534 3.30154 6.75105 3.36199 6.75445 3.40724C6.76937 3.36912 6.78499 3.3311 6.80113 3.29306C6.81031 3.27141 6.81972 3.24979 6.82936 3.22817ZM7.99718 7.04004C7.98925 7.02783 7.98123 7.01553 7.97316 7.00319C7.9765 7.03693 7.97955 7.07068 7.98263 7.10436C7.9864 7.14573 7.98993 7.18708 7.99341 7.22842C7.99619 7.16284 7.99778 7.09927 7.99718 7.04004ZM8.87742 8.3719C8.87911 8.16228 8.73583 8.00311 8.60652 7.85958C8.56929 7.81824 8.53328 7.77816 8.50217 7.73859C8.48927 7.72218 8.47499 7.70576 8.45981 7.68919C8.45031 7.78397 8.44055 7.87107 8.43244 7.94237C8.40826 8.15514 8.36349 8.2757 8.32417 8.38163C8.31279 8.41228 8.30191 8.44174 8.29207 8.47182C8.30844 8.49714 8.32464 8.52341 8.33881 8.54993C8.35885 8.58705 8.37799 8.62714 8.39418 8.66525C8.41049 8.70351 8.42498 8.74235 8.4371 8.78047C8.44933 8.8189 8.45942 8.85694 8.46807 8.89478C8.47625 8.93039 8.48307 8.96585 8.48967 9.00017C8.49005 9.00213 8.49042 9.0041 8.49079 9.00606C8.49783 9.04233 8.50455 9.07762 8.51413 9.11009C8.52397 9.14316 8.53577 9.17071 8.55391 9.19529C8.57649 9.22599 8.59813 9.25746 8.61821 9.28855C8.63833 9.31968 8.65701 9.35065 8.67446 9.38151C8.69194 9.41244 8.70824 9.44304 8.72364 9.47371C8.72862 9.48362 8.73374 9.494 8.7385 9.50383C8.74069 9.50836 8.74294 9.51289 8.7451 9.5174C8.74786 9.45798 8.75163 9.39631 8.75687 9.33258C8.76444 9.24052 8.78252 9.14242 8.80237 9.0342C8.83623 8.84959 8.87529 8.63555 8.87742 8.3719ZM8.77404 10.4193C8.77319 10.3935 8.76994 10.3555 8.76575 10.3066C8.76476 10.2951 8.76356 10.2829 8.76248 10.2701C8.76236 10.2704 8.76235 10.2707 8.76222 10.271C8.74892 10.3024 8.73729 10.3314 8.72644 10.3627C8.70718 10.4186 8.69057 10.4729 8.67618 10.5278C8.66177 10.5828 8.64979 10.6378 8.64009 10.6929C8.63038 10.7481 8.62313 10.8035 8.6184 10.8584C8.61368 10.9139 8.61127 10.9686 8.61209 11.0239C8.61235 11.0415 8.61295 11.0592 8.61386 11.0768C8.62714 11.0376 8.63825 10.9969 8.64994 10.9539C8.65928 10.9195 8.66906 10.8836 8.68064 10.846C8.68507 10.8315 8.69178 10.8141 8.69962 10.7938C8.73068 10.7132 8.77954 10.5868 8.77404 10.4193ZM8.74408 11.5201C8.74718 11.533 8.74995 11.5458 8.7522 11.5584C8.75861 11.5944 8.76202 11.6295 8.76453 11.6638C8.76627 11.6879 8.7674 11.7118 8.76865 11.7352C8.76918 11.7452 8.76978 11.7551 8.77033 11.7649C8.77126 11.7813 8.77243 11.7976 8.77363 11.8138C8.79069 11.7007 8.80418 11.59 8.80983 11.4746C8.80991 11.473 8.80984 11.4715 8.80991 11.47C8.78751 11.4871 8.76555 11.5038 8.74408 11.5201Z" fill="white"/>
</svg>
