<svg width="85" height="6" viewBox="0 0 85 6" fill="none" xmlns="http://www.w3.org/2000/svg">
<path d="M52.5618 4.99996C52.0781 5.00138 51.6246 4.96735 51.0518 4.92427C51.0515 4.92427 51.0512 4.92427 51.0509 4.92427C50.9691 4.91812 50.8847 4.91167 50.7976 4.90523C50.0959 4.85334 49.1841 4.79245 47.8093 4.75752C46.2902 4.71891 45.0842 4.57914 44.3477 4.44501C44.2104 4.41999 44.0682 4.40625 43.7096 4.39374C43.4744 4.38553 43.1565 4.37813 42.6976 4.36737C42.4536 4.36165 42.1695 4.35506 41.837 4.34686C40.7363 4.31971 39.0113 4.32817 37.4217 4.33612C36.457 4.34095 35.542 4.34556 34.847 4.34174C33.8305 4.33614 32.8498 4.31105 31.7836 4.28363C30.8072 4.25851 29.7591 4.23141 28.5463 4.216C27.6158 4.20417 26.7117 4.10262 25.793 3.98919C25.6761 3.97475 25.5587 3.96016 25.4411 3.94548C24.6304 3.84427 23.8016 3.74065 22.9054 3.68132C21.3079 3.57556 20.0331 3.61926 18.6217 3.66764C18.0696 3.68657 17.4966 3.70624 16.8751 3.71794C15.8923 3.73644 14.4794 3.7327 13.0607 3.72746C12.9399 3.72701 12.8189 3.7267 12.6982 3.72624C12.6976 3.72624 12.697 3.72624 12.6964 3.72624C11.3977 3.72132 10.1232 3.71648 9.18806 3.72722C7.70213 3.74427 7.14306 3.78457 6.67677 3.81828C6.50147 3.83096 6.3392 3.84279 6.14576 3.85198C5.44902 3.88505 4.39727 3.87891 3.33113 3.87273C3.32706 3.87273 3.32299 3.87273 3.31892 3.87273C3.14196 3.8717 2.99919 3.75876 3 3.62052C3.00086 3.48228 3.14501 3.37096 3.32197 3.37198C3.88669 3.37525 4.43777 3.37842 4.93116 3.37613C4.95674 3.25735 5.08961 3.16744 5.24885 3.16836C5.64749 3.17065 6.8685 3.08116 8.77943 2.93496C8.64853 2.91331 8.5389 2.89224 8.44282 2.87221C8.33006 2.8487 8.24366 2.82849 8.16938 2.81117C8.01458 2.77508 7.91155 2.75127 7.72871 2.73378C7.3052 2.7139 6.6396 2.70976 5.93916 2.7057C5.76228 2.70464 5.61946 2.59192 5.62025 2.45374C5.6211 2.31553 5.76532 2.20423 5.94221 2.2052C5.94567 2.2052 5.94913 2.2052 5.95259 2.2052C6.64632 2.20922 7.33329 2.2133 7.77571 2.2345C7.88826 2.23989 7.98521 2.24627 8.05799 2.25208C8.11619 2.25671 8.18882 2.26301 8.2292 2.27112C8.23456 2.2722 8.24477 2.27438 8.25697 2.27771C8.25717 2.27779 8.25737 2.27787 8.25758 2.27796C8.26439 2.2798 8.2992 2.28913 8.33631 2.30945C8.34381 2.31356 8.36012 2.32272 8.37904 2.33753C8.38392 2.33867 8.3888 2.33981 8.39369 2.34095C8.46176 2.35676 8.53122 2.37288 8.60639 2.38855C8.89992 2.44975 9.36487 2.52687 10.3331 2.60853C11.2236 2.68364 12.729 2.71732 14.6074 2.71791C14.4805 2.70756 14.3533 2.69752 14.2262 2.68788C13.9064 2.66365 13.5851 2.64156 13.2637 2.6205C13.1406 2.61245 13.0191 2.60457 12.8953 2.59681C12.6961 2.58427 12.4963 2.57196 12.2966 2.55995C12.1616 2.55181 12.0264 2.54382 11.8913 2.53578C11.891 2.53578 11.8907 2.53578 11.8904 2.53578C11.7029 2.52461 11.5149 2.51338 11.3255 2.50184C11.2592 2.49754 11.1937 2.49342 11.1287 2.48939C10.8698 2.47336 10.6155 2.45779 10.3227 2.42762C10.2871 2.42262 10.2484 2.41616 10.2196 2.41077C10.1885 2.4051 10.1587 2.39932 10.1304 2.39344C10.1055 2.38825 10.0818 2.38297 10.059 2.37806C10.056 2.37741 10.0529 2.37675 10.0499 2.3761C10.0244 2.37061 10.0001 2.36552 9.97664 2.36072C9.95325 2.35592 9.93077 2.3513 9.90858 2.34729C9.90838 2.34729 9.90818 2.34729 9.90797 2.34729C9.88479 2.34318 9.86722 2.34009 9.84267 2.33655C9.81183 2.33212 9.78534 2.3287 9.75324 2.32532C9.7222 2.32203 9.68982 2.3191 9.65711 2.31653C9.62443 2.31397 9.59113 2.31173 9.55732 2.3097C9.52351 2.30766 9.48912 2.30576 9.45448 2.30408C9.41985 2.3024 9.38477 2.30092 9.3495 2.29944C9.31421 2.29796 9.27852 2.29647 9.24269 2.29505C9.16015 2.29174 9.08104 2.26401 9.02296 2.21692C8.9649 2.16983 8.93255 2.10754 8.93293 2.04309C8.93333 1.97862 8.96646 1.91666 9.02509 1.87023C9.08375 1.82382 9.16318 1.79689 9.24574 1.79454C9.26822 1.79391 9.2908 1.7932 9.31349 1.79259C9.32696 1.79223 9.34054 1.79196 9.35407 1.79161C9.39047 1.79068 9.42724 1.78964 9.46424 1.78893C9.50121 1.78822 9.53852 1.78776 9.57624 1.78746C9.61408 1.78717 9.6524 1.78708 9.69129 1.78746C9.73008 1.78785 9.76974 1.78868 9.81001 1.79015C9.8493 1.79153 9.89412 1.79396 9.93422 1.79699C9.96352 1.79911 9.99962 1.80275 10.0297 1.80602C10.0612 1.80944 10.0921 1.81327 10.1219 1.81725C10.1518 1.82124 10.1807 1.82547 10.2083 1.82946C10.2112 1.82986 10.2142 1.83027 10.2171 1.83068C10.2415 1.8342 10.265 1.83764 10.2873 1.84069C10.3122 1.8441 10.3357 1.847 10.3581 1.84948C10.3827 1.85226 10.3977 1.85337 10.4161 1.8546C10.6589 1.86265 10.9591 1.86099 11.2453 1.85949C11.2812 1.8593 11.317 1.85917 11.3524 1.859C11.5403 1.85782 11.7279 1.85634 11.9154 1.85485C12.0517 1.85376 12.1881 1.85264 12.3247 1.85167C12.5256 1.85024 12.7272 1.8491 12.9286 1.84826C13.0537 1.84777 13.1765 1.84745 13.3012 1.84728C13.627 1.8468 13.9539 1.84747 14.2811 1.85045C14.608 1.85344 14.9369 1.85866 15.2659 1.86754C15.5938 1.8764 15.9344 1.88965 16.2633 1.90978C16.5051 1.92483 16.7529 1.95106 16.9823 1.97814C17.1055 1.99273 17.2262 2.00753 17.3451 2.02233C17.3455 2.02241 17.3459 2.0225 17.3463 2.02258C17.4507 2.03557 17.5538 2.04844 17.6561 2.06066C17.8755 2.08699 18.0909 2.11046 18.3064 2.13025C18.5215 2.15004 18.7358 2.16619 18.9516 2.17859C19.1657 2.19087 19.3835 2.19974 19.5991 2.2052C19.8159 2.2107 20.0286 2.21294 20.2522 2.21277C20.5462 2.21228 20.8381 2.20781 21.1378 2.20251C21.4354 2.19711 21.7353 2.19033 22.036 2.18347C22.1411 2.18106 22.2464 2.17883 22.3518 2.17639C22.3522 2.17639 22.3526 2.17639 22.3531 2.17639C22.5481 2.17187 22.7436 2.16732 22.9393 2.16296C23.2414 2.15624 23.5443 2.14984 23.8484 2.14465C24.1524 2.13949 24.4583 2.13543 24.7658 2.13391C25.0733 2.13252 25.3891 2.13336 25.7063 2.14148C25.9893 2.14849 26.2746 2.15784 26.5535 2.16711C26.6271 2.16955 26.7008 2.172 26.7744 2.17444C27.1239 2.18586 27.4622 2.19497 27.7968 2.19665C28.1311 2.19854 28.4652 2.19338 28.8023 2.18249C29.1385 2.17166 29.4788 2.15543 29.8219 2.13586C30.1665 2.1162 30.5067 2.09354 30.8537 2.06872C31.1981 2.044 31.5442 2.01745 31.8944 1.98937C32.0891 1.97382 32.2962 1.95954 32.4919 1.94738C32.6895 1.93511 32.8859 1.92426 33.0797 1.91418C33.1583 1.91008 33.2366 1.90618 33.3144 1.90221C33.4277 1.89643 33.5401 1.89079 33.6507 1.88488C33.8373 1.8749 34.0194 1.86422 34.1963 1.85167C34.3731 1.83914 34.5448 1.82456 34.7105 1.80675C34.8821 1.78825 35.0236 1.76943 35.1927 1.74254C35.6047 1.69068 35.86 1.67475 36.1437 1.65684C36.1995 1.65332 36.2566 1.64957 36.3161 1.64561C36.6562 1.62553 36.996 1.61055 37.3314 1.59923C37.67 1.58788 38.0033 1.58024 38.3409 1.57579C38.6753 1.57136 39.012 1.5703 39.3474 1.57213C39.6823 1.57394 40.0166 1.57873 40.3517 1.58653C40.6867 1.59431 41.0285 1.60535 41.3567 1.61876C41.5464 1.62648 41.7478 1.63677 41.935 1.64732C42.07 1.65492 42.2031 1.66291 42.3335 1.67076C42.3868 1.67397 42.4398 1.67716 42.4922 1.68028C42.6731 1.69104 42.8489 1.70101 43.0187 1.7086C43.1885 1.71621 43.3528 1.72156 43.5137 1.7235C43.6748 1.72546 43.8324 1.724 43.99 1.7191C44.1535 1.71385 44.2892 1.70682 44.4628 1.69396C44.5758 1.68546 44.6865 1.6769 44.7969 1.66832C44.9622 1.65548 45.1263 1.64237 45.2916 1.62877C45.4567 1.61517 45.6197 1.60128 45.7836 1.58677C45.8362 1.58211 45.8919 1.57718 45.9447 1.57237C46.1079 1.5575 46.2693 1.54218 46.4305 1.52598C46.5914 1.50981 46.7509 1.49291 46.9097 1.47495C47.0691 1.45693 47.2259 1.43815 47.3857 1.41782C47.6575 1.38315 47.9175 1.36707 48.1453 1.3563C48.3758 1.34565 48.5912 1.33974 48.8008 1.33408C48.8401 1.33302 48.8794 1.33197 48.9186 1.33091C49.0877 1.32648 49.2541 1.32229 49.4179 1.31724C49.6198 1.31103 49.8181 1.30361 50.017 1.29477C50.2141 1.28604 50.4132 1.2758 50.6093 1.26377C50.8072 1.25159 50.9965 1.23843 51.2004 1.22226C51.4021 1.2064 51.607 1.1857 51.8315 1.16318C52.054 1.14082 52.2875 1.11784 52.524 1.09775C52.7602 1.07759 53.0002 1.06017 53.2384 1.04648C53.4771 1.0327 53.7166 1.02228 53.9528 1.01498C54.1903 1.00762 54.4263 1.00331 54.6611 1.00131C54.8954 0.999301 55.1374 0.999649 55.364 1.00204C55.7307 1.00591 56.0959 1.01137 56.4617 1.01742C56.8254 1.0235 57.1904 1.03028 57.5545 1.03744C57.918 1.04461 58.2819 1.0521 58.6452 1.0599C59.0087 1.06771 59.3721 1.07573 59.735 1.08383C59.8153 1.08562 59.8955 1.08741 59.9758 1.0892C60.2584 1.09552 60.5409 1.10184 60.8223 1.108C60.8243 1.10808 60.8262 1.10816 60.8281 1.10825C61.1903 1.11608 61.5459 1.12371 61.9051 1.13022C62.0369 1.13255 62.1636 1.13474 62.2924 1.13657C62.4213 1.13839 62.5477 1.13987 62.6754 1.14096C62.8032 1.14205 62.9302 1.14265 63.0553 1.14267C63.1818 1.14265 63.305 1.14208 63.4295 1.14047C63.5435 1.13906 63.6567 1.13652 63.7804 1.13388C63.7917 1.13364 63.803 1.13339 63.8143 1.13315C63.9496 1.13024 64.1036 1.1284 64.2467 1.12973C64.6258 1.13367 64.9952 1.13553 65.3713 1.13535C65.7476 1.13517 66.1231 1.13301 66.5017 1.12997C66.6495 1.12881 66.798 1.12736 66.9466 1.12607C67.1777 1.12405 67.4097 1.12203 67.6424 1.12045C68.0253 1.11784 68.4089 1.11665 68.7951 1.11826C69.1797 1.11986 69.5669 1.12437 69.9523 1.13217C70.3374 1.13994 70.7258 1.15095 71.1092 1.16489C71.5364 1.18048 71.961 1.1977 72.3876 1.21567C72.8135 1.23366 73.2396 1.2525 73.6638 1.27182C74.0896 1.29117 74.5143 1.31104 74.9392 1.3314C75.3643 1.35176 75.7891 1.37261 76.2142 1.3939C76.4686 1.40665 76.723 1.41963 76.9774 1.43272C77.1121 1.42097 77.2412 1.40946 77.3653 1.39854C78.2828 1.31785 78.9462 1.25965 79.8214 1.21958C79.9052 1.21351 79.9734 1.20486 80.0564 1.19443C80.0722 1.19244 80.089 1.19045 80.1061 1.18833C80.2145 1.17489 80.3391 1.16084 80.5123 1.15195C80.8579 1.13421 81.3876 1.13807 82.0721 1.25498C82.245 1.28451 82.355 1.41782 82.3177 1.55284C82.2915 1.64754 82.1997 1.71792 82.0876 1.74132C82.2947 1.75738 82.5012 1.77419 82.7071 1.79088C82.7893 1.79757 82.8665 1.82864 82.9214 1.87804C82.9762 1.92746 83.0042 1.99094 82.9995 2.05529C82.9948 2.11967 82.9574 2.18004 82.8957 2.224C82.834 2.2679 82.7531 2.29169 82.6705 2.29065C82.4514 2.28779 82.2331 2.28488 82.0147 2.28284C81.7961 2.28077 81.5786 2.27956 81.3604 2.27893C81.1423 2.2783 80.9242 2.27838 80.7055 2.27893C80.4876 2.27951 80.2693 2.28044 80.0506 2.28186C79.8305 2.28325 79.6145 2.2852 79.3951 2.28723C79.2636 2.28848 79.1305 2.2897 78.9998 2.29114C78.9512 2.29163 78.9036 2.29231 78.8561 2.29285C78.8173 2.29329 78.7782 2.29365 78.738 2.29407C78.3151 2.29897 77.8882 2.30447 77.4651 2.31043C77.04 2.31636 76.6153 2.32263 76.1907 2.32923C75.7658 2.33582 75.3413 2.34285 74.9166 2.34998C74.4921 2.35712 74.0678 2.3645 73.6428 2.3722C73.2193 2.37992 72.7941 2.38783 72.3699 2.39637C72.0418 2.40297 71.7164 2.41006 71.3906 2.41761C71.2623 2.43052 71.1353 2.44273 71.01 2.45447C70.6453 2.48867 70.28 2.53355 69.9202 2.57801C70.5606 2.55591 71.0751 2.52138 71.5648 2.48841C71.6305 2.48399 71.6957 2.47955 71.7608 2.47523C72.4246 2.43106 73.0659 2.39368 73.9284 2.40198C76.3816 2.4256 77.8041 2.44283 78.6904 2.47498C79.5766 2.50714 79.9574 2.5548 80.3127 2.64955C80.8149 2.78345 81.784 2.85961 82.271 2.86245C82.4479 2.86347 82.5907 2.97644 82.5899 3.11465C82.5891 3.2529 82.4449 3.36422 82.268 3.36319C81.7537 3.36021 80.705 3.28279 80.1073 3.12344C79.8411 3.05245 79.535 3.00666 78.6623 2.975C77.7895 2.94333 76.3802 2.92639 73.9223 2.90273C73.0908 2.89473 72.4737 2.93033 71.8169 2.97402C71.7525 2.97831 71.6877 2.9828 71.6222 2.9872C71.6218 2.9872 71.6214 2.9872 71.621 2.9872C71.0177 3.02782 70.3608 3.0721 69.475 3.0917C67.4333 3.13687 64.6869 3.22444 64.0349 3.27383C63.907 3.28353 63.7833 3.29442 63.6528 3.30582C63.1521 3.34958 62.5476 3.40236 61.1852 3.43741C60.8872 3.44508 60.5382 3.44953 60.1574 3.45157C59.5858 3.51895 59.031 3.58145 58.5485 3.61857C58.132 3.6506 57.7481 3.70953 57.376 3.77409C57.2689 3.79268 57.161 3.81212 57.0534 3.83147C56.7938 3.87814 56.5341 3.92479 56.281 3.96087C56.0793 3.98962 55.868 4.02418 55.6447 4.06072C54.8314 4.19383 53.8567 4.35332 52.5865 4.35541C51.2401 4.35762 50.0874 4.32883 49.0932 4.30072C49.8233 4.33324 50.387 4.37221 50.8565 4.40692C50.9451 4.41347 51.0299 4.41983 51.1116 4.42597C51.6887 4.46929 52.1082 4.50078 52.5579 4.49945C54.7055 4.49313 55.511 4.45069 56.4199 4.32806C56.6592 4.29578 56.9231 4.25277 57.2075 4.20648C57.7759 4.11396 58.4261 4.00818 59.1246 3.94768C59.7753 3.89134 60.503 3.80816 61.274 3.72014C61.2743 3.72014 61.2746 3.72014 61.2749 3.72014C61.4256 3.70294 61.578 3.68555 61.7318 3.66813C62.6692 3.56193 63.6552 3.45514 64.6151 3.38785C64.7177 3.38065 64.8407 3.37073 64.9819 3.35929C65.7968 3.29322 67.2274 3.17725 68.9745 3.25162C69.3582 3.26795 69.757 3.30257 70.212 3.3422C70.3506 3.35427 70.4945 3.36695 70.6447 3.37955C71.2933 3.43395 72.0814 3.49175 73.1307 3.52653C73.9967 3.55523 75.0521 3.56899 76.148 3.58341C76.6878 3.59052 77.2374 3.5979 77.7791 3.6071C79.4154 3.63488 80.9151 3.67894 82.412 3.72307C82.4123 3.72307 82.4126 3.72307 82.4129 3.72307C82.5898 3.72828 82.7283 3.84468 82.7221 3.98284C82.7158 4.12092 82.5674 4.22874 82.3907 4.22357C80.8929 4.17942 79.3978 4.13529 77.7669 4.1076C77.2335 4.09854 76.6881 4.09124 76.1504 4.08416C75.0492 4.06966 73.9791 4.05575 73.1051 4.02678C72.0379 3.99141 71.2354 3.93252 70.5779 3.87737C70.4195 3.86408 70.2706 3.8511 70.1293 3.83879C69.6793 3.79962 69.3052 3.76688 68.9412 3.75139C67.2496 3.67938 65.8731 3.79074 65.0551 3.85686C64.9101 3.86858 64.7825 3.87879 64.674 3.8864C63.733 3.95236 62.762 4.0574 61.8255 4.16351C61.6735 4.18072 61.5223 4.19789 61.3723 4.21502C61.372 4.2151 61.3717 4.21519 61.3713 4.21527C60.6005 4.30328 59.8597 4.38786 59.197 4.44525C58.5243 4.50351 57.9376 4.59946 57.3888 4.68916C57.0943 4.73729 56.8107 4.78345 56.5306 4.82124C55.5664 4.95133 54.7164 4.99361 52.5618 4.99996ZM81.7675 1.71715C81.3419 1.65441 80.9951 1.64118 80.7369 1.64537C80.9562 1.65962 81.175 1.67457 81.394 1.69005C81.5186 1.69885 81.643 1.70788 81.7675 1.71715ZM60.1052 2.95131C60.1741 2.94317 60.2436 2.93494 60.3133 2.92666C60.1209 2.93058 59.9284 2.93422 59.7362 2.93789C59.5003 2.94238 59.2643 2.94663 59.0285 2.95083C59.4035 2.95247 59.7668 2.95294 60.1052 2.95131ZM52.5835 3.85466C53.7813 3.85269 54.6764 3.70666 55.4836 3.57487C55.716 3.53691 55.9414 3.50021 56.1644 3.46842C56.2569 3.45524 56.3493 3.44067 56.4424 3.42521C55.9 3.41736 55.4014 3.40911 54.9932 3.40226C53.7751 3.38179 53.0819 3.33914 52.4727 3.30167C52.2965 3.29083 52.1271 3.28046 51.9542 3.27115C51.8112 3.28795 51.6627 3.30462 51.5126 3.31925C51.3025 3.33992 51.0754 3.35976 50.8592 3.37662C50.6423 3.39359 50.4218 3.40876 50.2053 3.42154C49.9869 3.43444 49.7706 3.44519 49.5552 3.4545C49.3526 3.4633 49.1507 3.47074 48.9553 3.47794C48.9441 3.47835 48.9329 3.47876 48.9217 3.47916C48.7152 3.48683 48.5142 3.49417 48.3296 3.50431C48.1417 3.51473 47.9855 3.52701 47.8469 3.54557C47.6737 3.56869 47.4961 3.59088 47.3204 3.61149C47.1446 3.63215 46.9695 3.65137 46.7949 3.66935C46.62 3.68737 46.4468 3.7042 46.2731 3.72014C46.2169 3.72529 46.1581 3.73059 46.1025 3.73552C46.0768 3.73779 46.0511 3.74012 46.0256 3.74235C46.3653 3.74408 46.7181 3.74677 47.0827 3.7509C47.6094 3.75686 48.1717 3.77322 48.792 3.79118C49.8501 3.82182 51.077 3.85714 52.5835 3.85466ZM40.8754 3.78703C41.0231 3.78573 41.2394 3.78182 41.5184 3.77678C41.5844 3.77559 41.654 3.77417 41.7269 3.77287C41.7251 3.77275 41.7234 3.77275 41.7217 3.77263C41.541 3.75987 41.3741 3.74875 41.194 3.73845C40.873 3.72017 40.5611 3.70451 40.2461 3.69108C39.9299 3.67763 39.6146 3.66662 39.2989 3.65788C38.9827 3.64913 38.6656 3.64285 38.3513 3.63908C38.0339 3.63533 37.7211 3.63387 37.4053 3.63566C37.3047 3.63623 37.2037 3.63713 37.1028 3.63835C37.3281 3.65095 37.5619 3.66134 37.809 3.67228C38.0063 3.68102 38.2121 3.69017 38.4285 3.70109C38.5113 3.70527 38.6116 3.71168 38.7285 3.71916C39.1919 3.74881 39.9191 3.79546 40.8754 3.78703ZM34.5833 3.77629C34.51 3.77961 34.4371 3.7826 34.3651 3.78508C34.16 3.79211 33.9602 3.79614 33.7642 3.79924C33.6266 3.8014 33.4905 3.80295 33.3565 3.80461C33.2999 3.80531 33.2434 3.80608 33.1874 3.80681C33.0936 3.80802 33.0006 3.80947 32.9082 3.81096C33.5563 3.82604 34.1898 3.8376 34.85 3.84123C34.8587 3.84128 34.8675 3.84119 34.8763 3.84123C34.7763 3.81913 34.6787 3.79747 34.5833 3.77629Z" fill="#FF3D2D"/>
</svg>
