<svg width="128" height="128" viewBox="0 0 128 128" fill="none" xmlns="http://www.w3.org/2000/svg">
<path d="M51.4174 28.1461C51.9976 28.123 52.5424 28.1533 53.2305 28.1939C53.2309 28.1939 53.2313 28.1939 53.2316 28.1939C53.3299 28.1997 53.4312 28.2058 53.5359 28.2119C54.379 28.2611 55.4742 28.3174 57.1244 28.3268C58.9478 28.3372 60.3984 28.5168 61.2855 28.7007C61.451 28.7351 61.6219 28.7523 62.0525 28.7631C62.2681 28.7686 62.5417 28.7723 62.9044 28.7767C63.0165 28.7781 63.1372 28.7796 63.2673 28.7812C63.5603 28.7847 63.9013 28.7889 64.3005 28.7949C65.6218 28.8143 67.6915 28.7727 69.5987 28.7418C70.7562 28.7228 71.8541 28.7074 72.6883 28.7074C73.9082 28.7073 75.0858 28.738 76.366 28.7727C77.5384 28.8046 78.797 28.8398 80.2529 28.8606C81.37 28.8767 82.4574 29.0165 83.5627 29.1658C83.7034 29.1849 83.8446 29.204 83.986 29.2232C84.9614 29.3557 85.9583 29.4863 87.0351 29.5567C88.9546 29.6815 90.4834 29.6163 92.1765 29.5587C92.8386 29.5359 93.526 29.5135 94.2716 29.5013C95.4508 29.482 97.1467 29.4906 98.8496 29.5021C98.9946 29.5031 99.1399 29.504 99.2848 29.505C99.2855 29.505 99.2862 29.505 99.287 29.505C100.846 29.5161 102.376 29.528 103.498 29.5264C105.281 29.524 105.952 29.5009 106.511 29.4827C106.721 29.4759 106.916 29.4699 107.148 29.4665C107.984 29.4543 109.247 29.4787 110.527 29.5031C110.532 29.5031 110.537 29.5032 110.542 29.5033C110.754 29.5077 110.927 29.574 110.927 29.6514C110.927 29.7289 110.755 29.792 110.543 29.7924C109.865 29.7926 109.204 29.7926 108.612 29.7961C108.582 29.8733 108.424 29.9339 108.233 29.9356C107.754 29.9404 106.29 30.0109 104 30.1744C104.157 30.1889 104.289 30.2032 104.404 30.2167C104.54 30.2325 104.644 30.2462 104.733 30.2577C104.92 30.2817 105.043 30.297 105.263 30.3047C105.771 30.3065 106.57 30.2873 107.41 30.2666C107.622 30.2616 107.795 30.3336 107.796 30.4274C107.796 30.5213 107.625 30.6052 107.413 30.6146C107.408 30.6148 107.404 30.615 107.4 30.6152C106.568 30.6508 105.744 30.6852 105.213 30.6921C105.078 30.6938 104.962 30.6939 104.875 30.6931C104.805 30.6925 104.718 30.6912 104.669 30.6868C104.663 30.6863 104.65 30.6851 104.636 30.683C104.635 30.683 104.635 30.6829 104.635 30.6829C104.627 30.6817 104.585 30.6761 104.54 30.6618C104.531 30.6589 104.511 30.6524 104.488 30.6415C104.483 30.6408 104.477 30.6401 104.471 30.6394C104.389 30.6301 104.305 30.6204 104.215 30.6111C103.862 30.5749 103.303 30.5328 102.141 30.4964C101.071 30.4631 99.2648 30.4773 97.0113 30.5334C97.1638 30.5402 97.3165 30.5465 97.4691 30.5523C97.8532 30.5668 98.2391 30.5783 98.625 30.588C98.7728 30.5917 98.9187 30.5951 99.0672 30.5983C99.3064 30.6034 99.5463 30.608 99.7861 30.6121C99.9481 30.6148 100.11 30.6173 100.273 30.6197C100.273 30.6197 100.273 30.6197 100.274 30.6197C100.499 30.623 100.724 30.6261 100.952 30.6291C101.031 30.6304 101.11 30.6316 101.188 30.6326C101.499 30.6367 101.804 30.6403 102.156 30.6542C102.199 30.657 102.245 30.661 102.28 30.6644C102.317 30.668 102.353 30.6717 102.387 30.6756C102.417 30.6789 102.445 30.6825 102.473 30.6857C102.477 30.6861 102.48 30.6865 102.484 30.687C102.515 30.6906 102.544 30.6938 102.572 30.6969C102.6 30.7 102.627 30.7029 102.654 30.7053C102.654 30.7053 102.654 30.7053 102.654 30.7053C102.682 30.7077 102.703 30.7096 102.733 30.7114C102.77 30.7138 102.802 30.7155 102.84 30.7168C102.878 30.7182 102.917 30.7191 102.956 30.7198C102.995 30.7204 103.035 30.7207 103.076 30.7208C103.116 30.7209 103.157 30.7208 103.199 30.7205C103.241 30.7203 103.283 30.7198 103.325 30.7194C103.367 30.7189 103.41 30.7184 103.453 30.7178C103.552 30.7165 103.647 30.7357 103.718 30.7714C103.788 30.8072 103.828 30.8564 103.828 30.9092C103.829 30.9621 103.79 31.0149 103.72 31.057C103.651 31.0991 103.556 31.1269 103.457 31.1345C103.43 31.1366 103.403 31.1387 103.376 31.1408C103.359 31.142 103.343 31.1432 103.327 31.1444C103.283 31.1477 103.239 31.1511 103.195 31.1542C103.151 31.1573 103.106 31.1603 103.061 31.1631C103.015 31.1659 102.969 31.1687 102.923 31.171C102.876 31.1733 102.829 31.1753 102.78 31.1768C102.733 31.1783 102.679 31.1792 102.631 31.1793C102.596 31.1795 102.553 31.1788 102.517 31.178C102.479 31.1771 102.442 31.1759 102.406 31.1744C102.37 31.173 102.335 31.1712 102.302 31.1696C102.299 31.1694 102.295 31.1692 102.292 31.1691C102.262 31.1676 102.234 31.1662 102.207 31.165C102.177 31.1636 102.149 31.1626 102.122 31.1619C102.093 31.161 102.075 31.161 102.053 31.1611C101.761 31.1698 101.401 31.1904 101.058 31.2099C101.015 31.2123 100.972 31.2147 100.93 31.2171C100.704 31.2301 100.48 31.2432 100.255 31.2564C100.091 31.2659 99.9279 31.2755 99.7641 31.2849C99.5232 31.2988 99.2815 31.3124 99.04 31.3256C98.89 31.3337 98.7428 31.3416 98.5932 31.3494C98.2026 31.3697 97.8106 31.3888 97.4181 31.4053C97.0262 31.4218 96.6317 31.4358 96.2369 31.4454C95.8436 31.4551 95.4349 31.4604 95.0401 31.4567C94.7499 31.4538 94.4521 31.4385 94.1765 31.4206C94.0285 31.4109 93.8834 31.4007 93.7405 31.3902C93.74 31.3901 93.7395 31.39 93.7391 31.39C93.6136 31.3807 93.4898 31.3714 93.3668 31.3627C93.1032 31.3438 92.8443 31.3274 92.5855 31.3147C92.327 31.302 92.0698 31.293 91.8107 31.2881C91.5536 31.2833 91.2922 31.2823 91.0334 31.2851C90.7734 31.2879 90.5182 31.2942 90.25 31.3038C89.8973 31.3167 89.5473 31.3342 89.1879 31.353C88.8312 31.3719 88.4716 31.3926 88.111 31.4135C87.985 31.4208 87.8587 31.4279 87.7323 31.4352C87.7318 31.4353 87.7314 31.4353 87.7309 31.4353C87.497 31.4489 87.2626 31.4626 87.028 31.476C86.6658 31.4968 86.3025 31.5172 85.9379 31.5361C85.5734 31.5549 85.2066 31.5724 84.8378 31.5865C84.469 31.6005 84.0902 31.6117 83.7094 31.6131C83.3698 31.6147 83.0274 31.613 82.6926 31.6109C82.6042 31.6103 82.5158 31.6098 82.4274 31.6092C82.008 31.6066 81.6019 31.6063 81.2005 31.6158C80.7995 31.625 80.3988 31.6437 79.9946 31.6703C79.5917 31.6969 79.1838 31.7311 78.7727 31.7703C78.3598 31.8096 77.9523 31.853 77.5366 31.9C77.1241 31.9467 76.7097 31.9962 76.2902 32.0483C76.0571 32.0771 75.8089 32.1046 75.5745 32.1287C75.3377 32.153 75.1025 32.1752 74.8702 32.1963C74.776 32.2048 74.6822 32.2131 74.589 32.2214C74.4532 32.2335 74.3185 32.2454 74.186 32.2577C73.9624 32.2783 73.7442 32.2998 73.5323 32.3239C73.3205 32.3479 73.115 32.3747 72.9166 32.4061C72.7112 32.4387 72.542 32.4708 72.3398 32.5156C71.8469 32.605 71.541 32.6366 71.2012 32.672C71.1343 32.679 71.0659 32.6863 70.9946 32.694C70.5871 32.7343 70.1799 32.767 69.7778 32.7939C69.3719 32.8209 68.9722 32.8422 68.5673 32.8585C68.1664 32.8747 67.7624 32.8856 67.36 32.892C66.9582 32.8983 66.557 32.8999 66.1547 32.8968C65.7526 32.8936 65.3422 32.8854 64.9481 32.8731C64.7204 32.866 64.4784 32.8552 64.2536 32.8437C64.0914 32.8353 63.9315 32.8263 63.7748 32.8174C63.7107 32.8138 63.6471 32.8101 63.5841 32.8066C63.3748 32.7948 63.1711 32.784 62.9742 32.7762C62.9667 32.7759 62.9592 32.7756 62.9517 32.7753C62.7478 32.7675 62.5504 32.7628 62.3574 32.7632C62.1641 32.7635 61.9751 32.7688 61.786 32.7792C61.59 32.7903 61.4273 32.8034 61.2195 32.8259C61.0841 32.8408 60.9514 32.8556 60.8192 32.8705C60.6212 32.8927 60.4246 32.9152 60.2266 32.9385C60.0289 32.9617 59.8337 32.9852 59.6375 33.0096C59.5744 33.0174 59.5078 33.0257 59.4445 33.0337C59.249 33.0585 59.0558 33.0839 58.8627 33.1105C58.6701 33.1371 58.4792 33.1646 58.2891 33.1936C58.0983 33.2227 57.9107 33.2528 57.7194 33.2851C57.3942 33.3402 57.0825 33.3671 56.8095 33.3856C56.5332 33.4039 56.2749 33.4149 56.0234 33.4253C55.9763 33.4272 55.9292 33.4292 55.8821 33.4311C55.6793 33.4392 55.4798 33.4469 55.2834 33.4557C55.0412 33.4666 54.8035 33.479 54.565 33.4934C54.3287 33.5076 54.09 33.5239 53.855 33.5426C53.6178 33.5615 53.391 33.5817 53.1466 33.6061C52.905 33.63 52.6596 33.6608 52.3907 33.694C52.1243 33.7269 51.8446 33.7605 51.5613 33.7895C51.2783 33.8186 50.9907 33.8433 50.7052 33.8624C50.419 33.8817 50.1318 33.8957 49.8485 33.9051C49.5637 33.9146 49.2805 33.9194 48.9986 33.9207C48.7175 33.9221 48.427 33.9198 48.155 33.9146C47.7147 33.9063 47.2762 33.8952 46.837 33.883C46.4002 33.8708 45.962 33.8572 45.5247 33.8428C45.0882 33.8284 44.6512 33.8132 44.2149 33.7973C43.7783 33.7814 43.3419 33.7649 42.9061 33.7481C42.8097 33.7443 42.7133 33.7406 42.6169 33.7368C42.2775 33.7236 41.9381 33.7102 41.6002 33.6969C41.5979 33.6968 41.5955 33.6966 41.5932 33.6965C41.1582 33.6794 40.7311 33.6626 40.2998 33.6468C40.1414 33.6411 39.9893 33.6357 39.8347 33.6306C39.6799 33.6255 39.5281 33.6209 39.3748 33.6167C39.2213 33.6125 39.0688 33.6089 38.9186 33.6061C38.7668 33.6032 38.6188 33.6011 38.4695 33.6002C38.3326 33.5993 38.1967 33.5998 38.0483 33.6C38.0347 33.6 38.0212 33.6001 38.0076 33.6001C37.8451 33.6004 37.6603 33.5988 37.4885 33.5935C37.0333 33.5789 36.5897 33.5668 36.1381 33.5565C35.6863 33.5462 35.2356 33.5379 34.781 33.5299C34.6035 33.5267 34.4252 33.5238 34.2468 33.5206C33.9693 33.5156 33.6908 33.5104 33.4115 33.5045C32.9518 33.4947 32.4911 33.4827 32.0274 33.467C31.5655 33.4514 31.1005 33.4321 30.6375 33.409C30.1749 33.386 29.7083 33.3592 29.2476 33.3296C28.7344 33.2966 28.2241 33.262 27.7115 33.2269C27.1998 33.1918 26.6877 33.156 26.1779 33.1202C25.6663 33.0844 25.1559 33.0484 24.6454 33.0124C24.1346 32.9764 23.6241 32.9404 23.1133 32.9045C22.8076 32.8831 22.5019 32.8616 22.1961 32.8403C22.0346 32.8444 21.8798 32.8483 21.7308 32.8517C20.6301 32.8765 19.8341 32.8856 18.7833 32.8653C18.6827 32.8649 18.6009 32.8671 18.5014 32.8696C18.4824 32.8701 18.4622 32.8705 18.4417 32.871C18.3116 32.874 18.1622 32.8764 17.9542 32.8719C17.5393 32.8637 16.9029 32.8248 16.0794 32.7129C15.8714 32.6845 15.7379 32.5996 15.7813 32.5214C15.8117 32.4664 15.9213 32.428 16.0556 32.4179C15.8068 32.4006 15.5587 32.3832 15.3112 32.3663C15.2124 32.3595 15.1194 32.339 15.0531 32.3094C14.9916 32.2818 14.9576 32.2485 14.9571 32.2151C14.9571 32.2151 14.9571 32.2151 14.9571 32.2151C14.957 32.2124 14.9572 32.2098 14.9575 32.2072C14.9626 32.1711 15.0068 32.1379 15.0804 32.1139C15.1541 32.09 15.251 32.0772 15.3501 32.0788C15.6131 32.0831 15.8753 32.0875 16.1375 32.0913C16.3998 32.0951 16.661 32.0984 16.9229 32.1013C17.1847 32.1043 17.4465 32.1067 17.709 32.1087C17.9706 32.1107 18.2326 32.1124 18.4951 32.1136C18.7593 32.1149 19.0185 32.1156 19.2819 32.1162C19.4398 32.1166 19.5995 32.1169 19.7563 32.117C19.8147 32.1171 19.8717 32.117 19.9288 32.117C19.9754 32.117 20.0223 32.1171 20.0705 32.1171C20.578 32.1171 21.0904 32.1162 21.5982 32.1143C22.1083 32.1125 22.618 32.1098 23.1276 32.1064C23.6374 32.1029 24.1469 32.0986 24.6565 32.0935C25.1659 32.0885 25.675 32.0827 26.185 32.0761C26.6931 32.0694 27.2034 32.0621 27.7123 32.0535C28.106 32.0469 28.4963 32.0395 28.8873 32.0312C29.041 32.0177 29.1931 32.0048 29.3433 31.9922C29.7804 31.9555 30.2179 31.9062 30.6489 31.8557C29.8808 31.8844 29.2641 31.9236 28.6769 31.9591C28.5981 31.9639 28.5199 31.9686 28.442 31.9732C27.6461 32.0204 26.8771 32.0563 25.8417 32.0476C22.897 32.0237 21.1895 32.0063 20.1253 31.9812C19.0613 31.9562 18.6037 31.9223 18.1761 31.8593C17.5719 31.7697 16.4081 31.7368 15.8237 31.7426C15.6114 31.7443 15.4389 31.6807 15.4385 31.6006C15.4381 31.5205 15.6099 31.4503 15.8222 31.4439C16.439 31.426 17.6978 31.4341 18.4168 31.5297C18.7371 31.5721 19.1049 31.5974 20.1524 31.6039C21.2 31.6106 22.8912 31.598 25.8408 31.5772C26.8386 31.5704 27.5785 31.5256 28.3658 31.468C28.443 31.4624 28.5207 31.4565 28.5991 31.4506C28.5996 31.4506 28.6001 31.4506 28.6006 31.4506C29.3237 31.3969 30.111 31.3353 31.1734 31.2927C33.6222 31.1965 36.9153 31.0194 37.6963 30.939C37.8496 30.9234 37.9978 30.9064 38.154 30.8885C38.7538 30.8196 39.4779 30.7349 41.1115 30.6477C41.4687 30.6287 41.8874 30.6122 42.3442 30.5981C43.0282 30.4916 43.6924 30.3897 44.2703 30.3237C44.7691 30.2668 45.2284 30.1737 45.6732 30.072C45.8012 30.0427 45.9301 30.0122 46.0587 29.9817C46.369 29.9081 46.6794 29.834 46.9821 29.7745C47.2234 29.7271 47.476 29.6711 47.7429 29.6115C48.7153 29.3951 49.8805 29.1287 51.404 29.0791C53.019 29.0271 54.4026 29.0317 55.5961 29.0433C54.7193 29.0173 54.0422 28.9784 53.478 28.9435C53.3716 28.9369 53.2696 28.9305 53.1715 28.9244C52.4781 28.881 51.9741 28.8509 51.4348 28.8697C48.8588 28.9608 47.8938 29.059 46.8066 29.2675C46.5204 29.3226 46.2048 29.3933 45.8648 29.4689C45.1853 29.6202 44.4079 29.7904 43.5714 29.8989C42.7923 30.0001 41.9214 30.1389 40.9985 30.2817C40.9981 30.2817 40.9978 30.2817 40.9974 30.2817C40.817 30.3097 40.6346 30.3377 40.4505 30.3658C39.3284 30.5368 38.1479 30.7035 36.9979 30.8153C36.8749 30.8273 36.7276 30.8432 36.5585 30.8614C35.5823 30.9683 33.8682 31.1391 31.7708 31.1042C31.3102 31.0971 30.8311 31.071 30.2845 31.0433C30.1181 31.0348 29.9452 31.0261 29.7647 31.0178C28.9857 30.982 28.0393 30.9516 26.7801 30.9596C25.7409 30.966 24.4748 30.9976 23.1601 31.0329C22.5125 31.0504 21.8532 31.0688 21.2033 31.0862C19.2404 31.1389 17.4412 31.1817 15.6457 31.2371C15.6453 31.2371 15.6449 31.2371 15.6446 31.2372C15.4324 31.2434 15.2652 31.1841 15.2712 31.1045C15.2774 31.025 15.4542 30.9512 15.6661 30.9403C17.4621 30.8503 19.2553 30.7752 21.2111 30.6895C21.8508 30.6614 22.5048 30.6323 23.1497 30.6044C24.4704 30.5474 25.7538 30.4958 26.8024 30.4739C28.0827 30.447 29.0461 30.465 29.8357 30.4908C30.0259 30.497 30.2047 30.5036 30.3745 30.51C30.9149 30.5304 31.3642 30.5496 31.8011 30.5508C33.8315 30.5588 35.4804 30.3765 36.46 30.2591C36.6338 30.2386 36.7865 30.2207 36.9166 30.2066C38.0439 30.0851 39.2061 29.9099 40.327 29.729C40.5089 29.6997 40.6898 29.6703 40.8694 29.6409C40.8697 29.6408 40.8701 29.6407 40.8705 29.6406C41.793 29.4897 42.6795 29.3413 43.473 29.2319C44.2784 29.1211 44.9798 28.9619 45.6358 28.811C45.9878 28.7301 46.3268 28.652 46.6618 28.5854C47.815 28.3569 48.8334 28.2498 51.4174 28.1461ZM16.4403 32.4445C16.952 32.4994 17.3686 32.5228 17.6787 32.53C17.4151 32.5119 17.1522 32.4938 16.8892 32.4756C16.7394 32.4653 16.5898 32.4549 16.4403 32.4445ZM42.4184 31.2611C42.3358 31.2733 42.2527 31.2855 42.1692 31.2979C42.4 31.2889 42.6309 31.2803 42.8614 31.2716C43.1444 31.261 43.4274 31.2506 43.7102 31.2402C43.2603 31.2455 42.8243 31.2521 42.4184 31.2611ZM51.4203 29.8031C49.9834 29.8429 48.9133 30.081 47.9482 30.2899C47.6703 30.3502 47.4007 30.4082 47.134 30.4589C47.0234 30.4799 46.9129 30.5029 46.8015 30.527C47.4525 30.5229 48.0509 30.5211 48.5408 30.5199C50.0026 30.5165 50.8354 30.5606 51.5672 30.6C51.7789 30.6114 51.9824 30.6223 52.19 30.6318C52.3612 30.6039 52.5389 30.5761 52.7186 30.5512C52.9702 30.516 53.2421 30.4815 53.501 30.4515C53.7609 30.4214 54.0251 30.3937 54.2845 30.3697C54.5462 30.3454 54.8054 30.3242 55.0636 30.3052C55.3064 30.2873 55.5485 30.2714 55.7828 30.256C55.7962 30.2551 55.8096 30.2543 55.823 30.2534C56.0706 30.237 56.3115 30.2213 56.5327 30.2018C56.7579 30.1818 56.945 30.1599 57.1108 30.1289C57.318 30.0904 57.5305 30.0531 57.7407 30.0182C57.9512 29.9832 58.1607 29.9504 58.3697 29.9194C58.5791 29.8883 58.7865 29.8591 58.9945 29.8312C59.0617 29.8222 59.1321 29.8129 59.1988 29.8042C59.2295 29.8002 59.2602 29.7961 59.2908 29.7921C58.8832 29.7976 58.4598 29.802 58.0223 29.8048C57.3902 29.8089 56.7152 29.7987 55.9706 29.7884C54.7003 29.7708 53.2276 29.7534 51.4203 29.8031ZM65.4689 29.6154C65.2917 29.6201 65.0323 29.6301 64.6976 29.6431C64.6185 29.6462 64.5351 29.6497 64.4477 29.6531C64.4497 29.6532 64.4518 29.6532 64.4539 29.6534C64.671 29.6689 64.8715 29.6823 65.0879 29.6942C65.4735 29.7154 65.8481 29.7329 66.2264 29.7471C66.6062 29.7613 66.9848 29.7719 67.3639 29.7793C67.7435 29.7866 68.1241 29.7903 68.5013 29.7904C68.8822 29.7905 69.2576 29.7872 69.6366 29.7793C69.7573 29.7768 69.8783 29.7738 69.9994 29.7703C69.7288 29.7554 69.4479 29.7439 69.1512 29.7318C68.9142 29.7221 68.667 29.712 68.4071 29.6995C68.3076 29.6947 68.1872 29.6869 68.0467 29.6778C67.4898 29.6418 66.6161 29.5847 65.4689 29.6154ZM73.0191 29.5298C73.107 29.524 73.1943 29.5187 73.2807 29.5142C73.5266 29.5013 73.7663 29.4929 74.0014 29.486C74.1665 29.4812 74.3297 29.4773 74.4905 29.4733C74.5584 29.4716 74.6262 29.4698 74.6933 29.4681C74.8058 29.4653 74.9175 29.4621 75.0283 29.4589C74.2502 29.4446 73.4897 29.4353 72.6974 29.4386C72.6869 29.4386 72.6764 29.4388 72.6659 29.4389C72.7864 29.4699 72.9041 29.5002 73.0191 29.5298Z" fill="white"/>
<path d="M74.9877 63.5761C74.4072 63.583 73.8622 63.5372 73.1737 63.4794C73.1734 63.4794 73.173 63.4794 73.1726 63.4794C73.0743 63.4711 72.9729 63.4625 72.8682 63.4538C72.0248 63.3841 70.9291 63.3036 69.2784 63.2631C67.4544 63.2179 66.0035 63.0252 65.1164 62.8416C64.951 62.8073 64.78 62.789 64.3494 62.774C64.067 62.7641 63.6852 62.7559 63.1343 62.7439C62.8413 62.7375 62.5003 62.7302 62.101 62.7209C60.7795 62.6902 58.7095 62.7113 56.802 62.7267C55.6443 62.7362 54.5462 62.7438 53.712 62.7397C52.492 62.7337 51.3144 62.702 50.0342 62.6679C48.8618 62.6367 47.6032 62.6035 46.1474 62.5842C45.0303 62.569 43.9432 62.4483 42.8383 62.3209C42.6977 62.3047 42.5565 62.2884 42.4152 62.272C41.4401 62.1593 40.4436 62.049 39.3669 61.9911C37.4478 61.8884 35.9189 61.9483 34.2258 62.0031C33.5637 62.0248 32.8763 62.0464 32.1307 62.0597C30.9515 62.0809 29.2558 62.0808 27.5531 62.0792C27.408 62.0791 27.2628 62.0791 27.1179 62.0789C27.1172 62.0789 27.1165 62.0789 27.1157 62.0789C25.5571 62.0772 24.0274 62.0755 22.9052 62.084C21.1221 62.0976 20.4515 62.1243 19.8923 62.1456C19.682 62.1536 19.4874 62.1609 19.2553 62.1661C18.4195 62.1848 17.1569 62.1742 15.8772 62.1642C15.8723 62.1642 15.8674 62.1641 15.8626 62.1641C15.6502 62.1622 15.4777 62.0978 15.4773 62.0203C15.477 61.9427 15.6489 61.8788 15.8612 61.8775C16.5389 61.8741 17.2003 61.8709 17.7923 61.8647C17.8217 61.7908 17.9802 61.7326 18.1713 61.7305C18.6496 61.7249 20.1138 61.653 22.4046 61.5025C22.2473 61.4896 22.1155 61.4768 22 61.4647C21.8644 61.4504 21.7605 61.4381 21.6711 61.4276C21.485 61.4059 21.3611 61.3919 21.1415 61.3848C20.6332 61.3829 19.8347 61.3997 18.9943 61.4179C18.7821 61.4222 18.6095 61.3541 18.6089 61.2654C18.6084 61.1768 18.7801 61.0988 18.9923 61.0914C18.9964 61.0912 19.0006 61.0911 19.0047 61.0909C19.8368 61.0627 20.6609 61.0351 21.1917 61.0311C21.3268 61.03 21.4432 61.0304 21.5305 61.0315C21.6004 61.0323 21.6876 61.0338 21.7361 61.0379C21.7426 61.0385 21.7549 61.0396 21.7695 61.0415C21.7698 61.0416 21.77 61.0416 21.7703 61.0417C21.7785 61.0427 21.8203 61.048 21.8651 61.0611C21.8741 61.0638 21.8938 61.0698 21.9167 61.0797C21.9226 61.0803 21.9285 61.081 21.9343 61.0816C22.0162 61.0903 22.0997 61.0993 22.1901 61.1079C22.543 61.1414 23.1016 61.1807 24.2642 61.2133C25.3335 61.2432 27.14 61.2291 29.3936 61.1771C29.2411 61.1715 29.0884 61.1662 28.9358 61.1614C28.5518 61.1493 28.166 61.1397 27.7801 61.1316C27.6323 61.1285 27.4864 61.1256 27.3378 61.1229C27.0987 61.1186 26.8588 61.1147 26.619 61.1112C26.457 61.1088 26.2947 61.1067 26.1325 61.1046C26.1321 61.1046 26.1318 61.1046 26.1314 61.1046C25.9063 61.1017 25.6807 61.0989 25.4533 61.0962C25.3737 61.095 25.2951 61.0939 25.217 61.093C24.9062 61.0892 24.6009 61.0858 24.2493 61.0731C24.2066 61.0705 24.1601 61.0669 24.1254 61.0638C24.0881 61.0605 24.0522 61.0572 24.0183 61.0537C23.9883 61.0506 23.9598 61.0475 23.9324 61.0446C23.9287 61.0442 23.9251 61.0438 23.9214 61.0434C23.8907 61.0401 23.8615 61.0372 23.8333 61.0344C23.8052 61.0316 23.7782 61.0289 23.7515 61.0267C23.7513 61.0267 23.751 61.0268 23.7508 61.0268C23.7229 61.0245 23.7018 61.0228 23.6723 61.0211C23.6353 61.0189 23.6034 61.0174 23.5649 61.0161C23.5276 61.0148 23.4887 61.0138 23.4495 61.0132C23.4102 61.0126 23.3703 61.0122 23.3297 61.012C23.2891 61.0118 23.2478 61.0118 23.2063 61.0119C23.1647 61.0121 23.1226 61.0124 23.0803 61.0127C23.0379 61.013 22.9951 61.0133 22.9521 61.0137C22.853 61.0146 22.7578 60.9972 22.6875 60.9648C22.6173 60.9324 22.5777 60.8879 22.5773 60.8402C22.5769 60.7926 22.6159 60.7452 22.6856 60.7077C22.7553 60.6702 22.8502 60.6458 22.9492 60.6395C22.9762 60.6378 23.0032 60.6361 23.0304 60.6344C23.0466 60.6333 23.0629 60.6324 23.0791 60.6314C23.1227 60.6287 23.1668 60.6259 23.2112 60.6234C23.2555 60.6208 23.3002 60.6184 23.3455 60.6161C23.3908 60.6138 23.4368 60.6117 23.4835 60.6098C23.53 60.608 23.5775 60.6065 23.6259 60.6054C23.673 60.6043 23.7268 60.6037 23.7749 60.6039C23.8101 60.6039 23.8534 60.6048 23.8896 60.6057C23.9273 60.6066 23.9644 60.6079 24.0003 60.6094C24.0361 60.6109 24.0708 60.6126 24.104 60.6142C24.1075 60.6144 24.1111 60.6145 24.1146 60.6147C24.1439 60.6161 24.1722 60.6175 24.1989 60.6187C24.2288 60.6201 24.2571 60.6211 24.284 60.6218C24.3135 60.6227 24.3315 60.6228 24.3536 60.6228C24.6449 60.6164 25.0048 60.5995 25.348 60.5835C25.3912 60.5815 25.4341 60.5796 25.4765 60.5776C25.7019 60.567 25.9269 60.5561 26.1517 60.5452C26.3151 60.5373 26.4786 60.5294 26.6424 60.5216C26.8834 60.5101 27.1252 60.4989 27.3667 60.4879C27.5167 60.4811 27.6639 60.4746 27.8136 60.4681C28.2043 60.4511 28.5963 60.4352 28.9888 60.4214C29.3808 60.4077 29.7753 60.396 30.1702 60.3878C30.5635 60.3798 30.9722 60.3754 31.367 60.3785C31.6572 60.381 31.9549 60.3941 32.2304 60.4093C32.3785 60.4176 32.5235 60.4263 32.6664 60.4352C32.6669 60.4353 32.6674 60.4353 32.6679 60.4354C32.7933 60.4432 32.9171 60.4511 33.04 60.4584C33.3036 60.4744 33.5624 60.4882 33.8212 60.4987C34.0796 60.5092 34.3368 60.5165 34.5959 60.5203C34.853 60.524 35.1144 60.5243 35.3731 60.5215C35.6332 60.5186 35.8884 60.5127 36.1566 60.5039C36.5093 60.4921 36.8594 60.4763 37.2188 60.4593C37.5755 60.4422 37.9352 60.4236 38.2957 60.4048C38.4218 60.3982 38.5481 60.3918 38.6745 60.3851C38.675 60.3851 38.6755 60.3851 38.676 60.3851C38.9098 60.3727 39.1443 60.3603 39.3789 60.3481C39.7412 60.3292 40.1044 60.3106 40.4691 60.2932C40.8336 60.2759 41.2005 60.2596 41.5692 60.2462C41.9381 60.2329 42.3169 60.2218 42.6976 60.2191C43.0372 60.2164 43.3796 60.2165 43.7143 60.2169C43.8027 60.2171 43.8911 60.2172 43.9795 60.2173C44.3989 60.2178 44.805 60.2163 45.2063 60.2064C45.6074 60.1967 46.008 60.1788 46.4122 60.1538C46.8152 60.1289 47.2231 60.0973 47.6343 60.0612C48.0473 60.025 48.4548 59.9851 48.8706 59.9418C49.2832 59.8988 49.6977 59.8532 50.1172 59.8051C50.3504 59.7784 50.5985 59.7527 50.833 59.7301C51.0698 59.7072 51.305 59.6861 51.5373 59.666C51.6316 59.6578 51.7254 59.6499 51.8186 59.6419C51.9544 59.6302 52.0891 59.6188 52.2216 59.6071C52.4452 59.5872 52.6634 59.5666 52.8754 59.5438C53.0872 59.5209 53.2927 59.4956 53.4912 59.4662C53.6966 59.4357 53.8658 59.4059 54.0681 59.3644C54.5611 59.2808 54.8669 59.2497 55.2068 59.215C55.2737 59.2081 55.3421 59.2009 55.4133 59.1934C55.8209 59.1535 56.2281 59.1201 56.6301 59.0918C57.036 59.0633 57.4357 59.0399 57.8405 59.0207C58.2414 59.0016 58.6453 58.987 59.0477 58.9766C59.4494 58.9661 59.8505 58.9599 60.2527 58.9579C60.6547 58.956 61.065 58.9584 61.459 58.9649C61.6867 58.9686 61.9286 58.9755 62.1534 58.9835C62.3155 58.9892 62.4754 58.9955 62.632 59.0018C62.696 59.0044 62.7597 59.007 62.8226 59.0095C63.0399 59.0181 63.251 59.0259 63.4548 59.0306C63.6587 59.0354 63.856 59.0373 64.049 59.0346C64.2423 59.0319 64.4313 59.0245 64.6203 59.0123C64.8163 58.9994 64.9789 58.985 65.1868 58.961C65.3222 58.9453 65.4548 58.9294 65.587 58.9136C65.785 58.8899 65.9815 58.8659 66.1795 58.841C66.3772 58.8162 66.5724 58.791 66.7686 58.7648C66.8316 58.7564 66.8982 58.7475 66.9615 58.7389C67.157 58.7123 67.3502 58.685 67.5432 58.6564C67.7358 58.6279 67.9266 58.5984 68.1166 58.5673C68.3075 58.5361 68.495 58.5039 68.6863 58.4693C69.0114 58.4103 69.323 58.3783 69.596 58.3551C69.8722 58.332 70.1304 58.3162 70.3818 58.301C70.4288 58.2982 70.4759 58.2954 70.523 58.2925C70.7257 58.2805 70.9252 58.269 71.1216 58.2562C71.3636 58.2406 71.6013 58.2233 71.8396 58.204C72.0759 58.1849 72.3145 58.1635 72.5494 58.1397C72.7865 58.1155 73.0133 58.0902 73.2575 58.0601C73.4991 58.0304 73.7443 57.9936 74.0131 57.9535C74.2794 57.9136 74.5589 57.8725 74.8421 57.8355C75.1249 57.7985 75.4124 57.7653 75.6978 57.7378C75.9838 57.7101 76.2709 57.6874 76.5541 57.6694C76.8387 57.6513 77.1218 57.6379 77.4034 57.628C77.6844 57.6181 77.9748 57.6115 78.2466 57.6085C78.6867 57.6036 79.1249 57.6014 79.5639 57.6003C80.0005 57.5993 80.4385 57.5995 80.8755 57.6005C81.3118 57.6016 81.7486 57.6033 82.1847 57.6058C82.621 57.6083 83.0572 57.6113 83.4928 57.6146C83.5891 57.6153 83.6854 57.6161 83.7818 57.6168C84.121 57.6195 84.4602 57.6224 84.7979 57.6251C84.8003 57.6252 84.8026 57.6253 84.8049 57.6253C85.2397 57.6287 85.6665 57.6321 86.0976 57.634C86.2559 57.6346 86.4079 57.6351 86.5624 57.6351C86.7171 57.635 86.8689 57.6345 87.0221 57.6334C87.1529 57.6325 87.283 57.6311 87.4116 57.6291C87.4338 57.6287 87.4559 57.6284 87.478 57.628C87.6297 57.6254 87.7776 57.6222 87.9268 57.6177C88.0636 57.6136 88.1994 57.608 88.3478 57.6023C88.3613 57.6018 88.3749 57.6012 88.3884 57.6007C88.5508 57.5945 88.7354 57.5899 88.9072 57.5904C89.3622 57.5926 89.8056 57.5934 90.257 57.5931C90.7086 57.5927 91.1592 57.5913 91.6136 57.5905C91.791 57.5902 91.9693 57.5899 92.1476 57.59C92.425 57.5902 92.7034 57.5912 92.9827 57.5935C93.4423 57.5974 93.9029 57.6053 94.3666 57.6193C94.8285 57.6331 95.2935 57.6532 95.7565 57.6794C96.2192 57.7055 96.6859 57.738 97.1467 57.7754C97.6601 57.8173 98.1706 57.8627 98.6834 57.9105C99.1953 57.9583 99.7076 58.0085 100.218 58.0601C100.73 58.1118 101.24 58.165 101.751 58.2195C102.262 58.2741 102.773 58.3298 103.284 58.3864C103.59 58.4203 103.896 58.4545 104.202 58.489C104.364 58.4877 104.519 58.4868 104.668 58.4865C105.769 58.4852 106.565 58.5027 107.617 58.5728C107.718 58.5777 107.799 58.5788 107.899 58.5805C107.918 58.5808 107.938 58.5813 107.959 58.5817C108.089 58.5842 108.238 58.5887 108.447 58.6045C108.862 58.6346 109.499 58.716 110.323 58.8856C110.532 58.9287 110.666 59.0255 110.622 59.1053C110.592 59.1614 110.482 59.1969 110.348 59.2019C110.597 59.2312 110.845 59.2605 111.093 59.289C111.192 59.3005 111.285 59.3255 111.351 59.3583C111.413 59.3886 111.447 59.4232 111.447 59.4567C111.447 59.4567 111.447 59.4567 111.447 59.4567C111.447 59.4593 111.447 59.4619 111.447 59.4645C111.442 59.5004 111.397 59.532 111.324 59.554C111.25 59.576 111.153 59.5864 111.054 59.5821C110.791 59.5707 110.529 59.5593 110.266 59.5486C110.004 59.5378 109.742 59.5278 109.48 59.5184C109.218 59.509 108.957 59.5003 108.694 59.4922C108.432 59.4842 108.17 59.4766 107.908 59.4698C107.643 59.463 107.384 59.457 107.12 59.4513C106.963 59.448 106.803 59.4447 106.646 59.4418C106.588 59.4406 106.53 59.4397 106.473 59.4387C106.427 59.4379 106.38 59.437 106.332 59.4361C105.824 59.4275 105.311 59.4206 104.804 59.4157C104.293 59.4107 103.784 59.4075 103.274 59.406C102.764 59.4044 102.254 59.4048 101.745 59.4066C101.235 59.4084 100.726 59.4118 100.216 59.4169C99.7079 59.4221 99.1977 59.4287 98.6888 59.4374C98.2951 59.4441 97.9048 59.4522 97.5138 59.4616C97.3602 59.4786 97.2081 59.4949 97.058 59.5108C96.621 59.5571 96.1838 59.6199 95.753 59.6843C96.521 59.6489 97.1376 59.6 97.7246 59.556C97.8033 59.5501 97.8815 59.5443 97.9595 59.5386C98.7552 59.4805 99.5241 59.4376 100.56 59.4563C103.505 59.5096 105.213 59.5568 106.277 59.6016C107.342 59.6469 107.8 59.6943 108.227 59.7727C108.832 59.8849 109.996 59.9277 110.58 59.9245C110.793 59.9243 110.965 59.9909 110.966 60.0733C110.966 60.1557 110.794 60.2304 110.582 60.2399C109.966 60.2665 108.707 60.2701 107.988 60.1569C107.667 60.1071 107.299 60.0761 106.252 60.0636C105.204 60.0508 103.513 60.0568 100.563 60.0673C99.5651 60.0705 98.8253 60.125 98.0383 60.1958C97.9612 60.2028 97.8834 60.21 97.805 60.2172C97.8045 60.2172 97.804 60.2172 97.8036 60.2172C97.0807 60.2833 96.2936 60.359 95.2313 60.4076C92.7828 60.5191 89.49 60.7152 88.7091 60.803C88.5559 60.8204 88.4078 60.8395 88.2515 60.8594C88.0233 60.8885 87.7771 60.9199 87.4696 60.952C86.9691 61.0042 86.3062 61.0585 85.2942 61.1084C84.9369 61.126 84.5183 61.1398 84.0614 61.1506C83.3774 61.2631 82.7133 61.3676 82.1353 61.4325C81.6366 61.4885 81.1774 61.5839 80.7326 61.6871C80.6046 61.7168 80.4757 61.7478 80.347 61.7786C80.0368 61.853 79.7264 61.9271 79.4236 61.9852C79.1823 62.0316 78.9297 62.0866 78.6628 62.1447C77.6903 62.3563 76.5248 62.6072 75.0008 62.6273C73.3853 62.6488 72.0013 62.6205 70.8075 62.5913C71.6845 62.63 72.3618 62.68 72.9261 62.7251C73.0326 62.7336 73.1346 62.7419 73.2328 62.7498C73.9264 62.8062 74.4306 62.8474 74.9701 62.8397C77.547 62.8025 78.5124 62.7264 79.5998 62.5293C79.8861 62.4774 80.2017 62.4089 80.5417 62.3349C81.2213 62.1872 81.9987 62.0173 82.8353 61.9135C83.6145 61.8168 84.4854 61.678 85.4082 61.5303C85.4086 61.5303 85.4089 61.5303 85.4093 61.5303C85.5896 61.5015 85.7721 61.4723 85.9561 61.443C86.4532 61.364 86.9618 61.2844 87.4741 61.2097C88.118 61.1159 88.7678 61.0289 89.4081 60.9602C89.5311 60.947 89.6784 60.9292 89.8475 60.9088C90.8234 60.7893 92.5369 60.5871 94.6348 60.6459C95.0955 60.6583 95.5747 60.6954 96.1215 60.7352C96.2881 60.7473 96.461 60.7599 96.6416 60.7719C97.4209 60.8237 98.3675 60.8701 99.6268 60.8656C100.666 60.8619 101.932 60.8245 103.247 60.778C103.894 60.7551 104.553 60.73 105.203 60.705C107.166 60.6295 108.964 60.5569 110.759 60.4541C110.759 60.4541 110.76 60.4541 110.76 60.454C110.972 60.4425 111.139 60.4985 111.133 60.5799C111.127 60.6612 110.95 60.7448 110.739 60.7656C108.944 60.9363 107.152 61.0689 105.197 61.2006C104.557 61.2437 103.904 61.2865 103.259 61.3259C101.939 61.4068 100.656 61.4731 99.6071 61.4973C98.3268 61.527 97.3631 61.4948 96.5732 61.4538C96.383 61.4439 96.2041 61.4336 96.0343 61.4235C95.4937 61.3914 95.0442 61.3617 94.6072 61.355C92.5764 61.3216 90.9278 61.5247 89.9483 61.6483C89.7746 61.67 89.6218 61.6888 89.4918 61.7032C88.8305 61.7764 88.1573 61.8686 87.4873 61.9672C87.0152 62.0367 86.5448 62.1103 86.0814 62.1839C85.8996 62.2128 85.7186 62.2416 85.539 62.2702C85.5387 62.2704 85.5383 62.2705 85.5379 62.2706C84.6154 62.4179 83.7287 62.5587 82.935 62.6565C82.1294 62.7558 81.4279 62.9092 80.7718 63.0517C80.4197 63.1282 80.0806 63.2014 79.7455 63.2618C78.5919 63.4693 77.573 63.5445 74.9877 63.5761ZM109.963 59.1565C109.45 59.0748 109.034 59.0305 108.723 59.0103C108.987 59.0413 109.25 59.0724 109.513 59.1035C109.663 59.1212 109.813 59.1389 109.963 59.1565ZM83.9857 60.4024C84.0682 60.3888 84.1514 60.375 84.2348 60.3611C84.004 60.3711 83.7731 60.3806 83.5427 60.3901C83.2597 60.4018 82.9767 60.4131 82.6939 60.4243C83.1438 60.4189 83.5798 60.412 83.9857 60.4024ZM74.9843 61.8905C76.4215 61.8683 77.4918 61.6368 78.4568 61.4259C78.7347 61.3651 79.0042 61.3063 79.271 61.2547C79.3816 61.2333 79.4921 61.2098 79.6034 61.185C78.9524 61.1839 78.3539 61.1813 77.8639 61.179C76.4019 61.1721 75.5691 61.1223 74.8372 61.0789C74.6254 61.0664 74.4219 61.0544 74.2143 61.0441C74.0431 61.0715 73.8653 61.0988 73.6857 61.1231C73.4341 61.1574 73.1621 61.1907 72.9032 61.2194C72.6433 61.2482 72.3791 61.2744 72.1196 61.2969C71.858 61.3197 71.5987 61.3392 71.3405 61.3566C71.0976 61.3729 70.8555 61.3873 70.6212 61.4011C70.6078 61.4019 70.5944 61.4027 70.5809 61.4035C70.3333 61.4182 70.0924 61.4323 69.8712 61.45C69.646 61.4683 69.4588 61.4886 69.2929 61.5177C69.0858 61.5539 68.8732 61.5886 68.6629 61.621C68.4525 61.6535 68.2428 61.6838 68.0338 61.7122C67.8244 61.7407 67.6169 61.7673 67.4089 61.7926C67.3416 61.8008 67.2713 61.8092 67.2046 61.817C67.1738 61.8206 67.1431 61.8243 67.1125 61.8279C67.5202 61.8255 67.9436 61.8242 68.3812 61.8247C69.0133 61.8255 69.6885 61.8406 70.4332 61.8573C71.7037 61.8856 73.1767 61.9186 74.9843 61.8905ZM60.9336 61.9581C61.1109 61.9546 61.3703 61.9466 61.705 61.9363C61.7841 61.9338 61.8676 61.931 61.955 61.9283C61.9529 61.9282 61.9508 61.9282 61.9488 61.928C61.7316 61.9126 61.5311 61.8994 61.3148 61.8875C60.9291 61.8664 60.5545 61.8489 60.1762 61.8346C59.7965 61.8202 59.4178 61.8093 59.0388 61.8015C58.6592 61.7937 58.2785 61.7894 57.9013 61.7883C57.5204 61.7873 57.1449 61.7894 56.766 61.7957C56.6452 61.7977 56.5242 61.8001 56.4031 61.803C56.6737 61.8169 56.9546 61.8279 57.2513 61.8395C57.4883 61.8488 57.7354 61.8585 57.9954 61.8706C58.0948 61.8752 58.2153 61.8826 58.3558 61.8913C58.9126 61.9256 59.7863 61.9809 60.9336 61.9581ZM53.3829 62.0109C53.295 62.0159 53.2076 62.0204 53.1212 62.0242C52.8753 62.0352 52.6355 62.0421 52.4004 62.0478C52.2353 62.0518 52.0721 62.0549 51.9113 62.0582C51.8434 62.0595 51.7756 62.061 51.7084 62.0624C51.596 62.0647 51.4843 62.0673 51.3734 62.07C52.1515 62.0837 52.912 62.0933 53.7044 62.0923C53.7148 62.0923 53.7253 62.0921 53.7359 62.0921C53.6155 62.0644 53.4978 62.0373 53.3829 62.0109Z" fill="white"/>
<path d="M52.4627 88.0298C53.0431 88.0175 53.5881 88.059 54.2764 88.1117C54.2768 88.1117 54.2771 88.1116 54.2775 88.1116C54.3758 88.1192 54.4772 88.1271 54.5819 88.1349C55.4252 88.198 56.5207 88.2702 58.1712 88.2938C59.9948 88.3199 61.4455 88.5043 62.3327 88.69C62.4981 88.7247 62.669 88.7423 63.0996 88.7536C63.382 88.761 63.7637 88.7654 64.3145 88.7719C64.6075 88.7754 64.9484 88.7793 65.3476 88.7847C66.6689 88.8023 68.7385 88.7535 70.6454 88.7083C71.8028 88.6809 72.9005 88.6548 73.7345 88.646C74.9542 88.6331 76.1316 88.6501 77.4115 88.6689C78.5837 88.6862 79.842 88.7049 81.2975 88.7026C82.4142 88.7008 83.5016 88.8342 84.6068 88.9851C84.7475 89.0043 84.8888 89.0237 85.0302 89.0433C86.0056 89.1781 87.0026 89.3161 88.0795 89.3863C89.9989 89.5115 91.5273 89.4193 93.2196 89.3171C93.8814 89.2772 94.5684 89.2357 95.3137 89.2051C96.4925 89.1568 98.1878 89.1328 99.8901 89.111C100.035 89.1091 100.18 89.107 100.325 89.1052C100.326 89.1052 100.327 89.1052 100.327 89.1052C101.886 89.0853 103.415 89.0659 104.537 89.0302C106.319 88.9735 106.989 88.9014 107.547 88.8411C107.757 88.8184 107.952 88.7972 108.184 88.7794C109.019 88.7152 110.281 88.7024 111.56 88.6893C111.565 88.6892 111.57 88.6892 111.575 88.6891C111.787 88.6869 111.961 88.8533 111.964 89.0606C111.967 89.268 111.796 89.438 111.584 89.4401C110.906 89.4471 110.245 89.4539 109.653 89.4676C109.626 89.6463 109.469 89.7839 109.278 89.7859C108.799 89.7908 107.337 89.9506 105.048 90.2099C105.205 90.2396 105.337 90.2689 105.453 90.2969C105.589 90.3298 105.693 90.3583 105.783 90.3827C105.969 90.4336 106.094 90.4672 106.314 90.4896C106.822 90.5105 107.621 90.5028 108.461 90.4942C108.674 90.4921 108.848 90.6582 108.851 90.8654C108.853 91.0727 108.683 91.2427 108.471 91.2449C108.467 91.245 108.463 91.2451 108.458 91.2451C107.626 91.2536 106.802 91.2619 106.27 91.2394C106.135 91.2336 106.019 91.2261 105.931 91.2189C105.861 91.2132 105.774 91.2053 105.725 91.194C105.719 91.1924 105.706 91.1894 105.692 91.1846C105.691 91.1845 105.691 91.1844 105.691 91.1843C105.683 91.1817 105.641 91.1684 105.596 91.1387C105.587 91.1327 105.567 91.1193 105.544 91.0975C105.538 91.0959 105.532 91.0943 105.526 91.0927C105.444 91.0704 105.36 91.0477 105.27 91.0257C104.916 90.9401 104.356 90.8342 103.192 90.732C102.122 90.638 100.315 90.619 98.0608 90.6574C98.2134 90.6703 98.3662 90.6827 98.5189 90.6945C98.9033 90.7241 99.2894 90.7505 99.6756 90.7754C99.8235 90.7849 99.9694 90.7942 100.118 90.8032C100.357 90.8178 100.598 90.8321 100.837 90.846C101 90.8553 101.162 90.8645 101.324 90.8737C101.325 90.8737 101.325 90.8737 101.325 90.8737C101.551 90.8865 101.777 90.8994 102.004 90.9128C102.084 90.9178 102.162 90.9226 102.241 90.9273C102.552 90.9459 102.857 90.964 103.209 91.0031C103.252 91.0098 103.299 91.0187 103.333 91.0262C103.371 91.0341 103.407 91.0421 103.441 91.0503C103.471 91.0576 103.499 91.065 103.527 91.0719C103.531 91.0728 103.534 91.0737 103.538 91.0746C103.569 91.0823 103.598 91.0895 103.626 91.0962C103.654 91.1029 103.682 91.1093 103.708 91.1149C103.708 91.1149 103.709 91.1149 103.709 91.1149C103.737 91.1205 103.758 91.1248 103.788 91.1296C103.825 91.1356 103.857 91.1402 103.895 91.1446C103.933 91.1489 103.971 91.1526 104.011 91.1558C104.05 91.1589 104.09 91.1616 104.131 91.1639C104.171 91.1663 104.213 91.1684 104.254 91.1702C104.296 91.172 104.338 91.1735 104.38 91.1749C104.423 91.1764 104.466 91.1779 104.509 91.1793C104.608 91.1825 104.703 91.2225 104.774 91.2919C104.845 91.3613 104.886 91.454 104.887 91.5507C104.888 91.6474 104.85 91.741 104.781 91.8119C104.712 91.8827 104.617 91.9247 104.518 91.93C104.491 91.9314 104.464 91.933 104.437 91.9343C104.421 91.9352 104.404 91.9359 104.388 91.9367C104.344 91.9388 104.3 91.9412 104.256 91.943C104.212 91.9448 104.167 91.9463 104.122 91.9475C104.076 91.9488 104.03 91.9497 103.984 91.9499C103.937 91.9502 103.889 91.9498 103.841 91.9484C103.794 91.9472 103.74 91.9445 103.692 91.9408C103.657 91.9382 103.613 91.9335 103.577 91.9292C103.539 91.9247 103.502 91.9196 103.466 91.9143C103.43 91.9089 103.395 91.9032 103.362 91.8978C103.359 91.8972 103.355 91.8967 103.352 91.8961C103.322 91.8914 103.294 91.8867 103.267 91.8826C103.237 91.878 103.209 91.8742 103.182 91.8709C103.152 91.8672 103.134 91.8659 103.112 91.8644C102.821 91.8574 102.461 91.8662 102.117 91.8745C102.074 91.8755 102.031 91.8765 101.989 91.8774C101.763 91.8832 101.538 91.8893 101.313 91.8955C101.15 91.8999 100.986 91.9045 100.822 91.9088C100.581 91.9152 100.339 91.9211 100.098 91.9266C99.9477 91.9299 99.8005 91.933 99.6508 91.9358C99.2599 91.9434 98.8677 91.9492 98.475 91.9516C98.0828 91.954 97.688 91.953 97.2929 91.9466C96.8994 91.9402 96.4903 91.9274 96.0952 91.9041C95.8047 91.8866 95.5066 91.8525 95.2308 91.8167C95.0825 91.7974 94.9373 91.7777 94.7943 91.758C94.7938 91.7579 94.7933 91.7578 94.7928 91.7576C94.6672 91.7403 94.5432 91.7232 94.4201 91.707C94.1562 91.6721 93.8971 91.6414 93.638 91.6163C93.3794 91.5911 93.122 91.5714 92.8627 91.5573C92.6054 91.5434 92.3439 91.5346 92.085 91.5309C91.8249 91.5272 91.5695 91.5283 91.3013 91.5333C90.9486 91.5401 90.5984 91.553 90.239 91.5672C89.8821 91.5815 89.5225 91.598 89.1619 91.6146C89.0358 91.6204 88.9095 91.6259 88.7831 91.6318C88.7826 91.6318 88.7821 91.6318 88.7816 91.6318C88.5477 91.6427 88.3132 91.6536 88.0786 91.6642C87.7163 91.6806 87.353 91.6966 86.9883 91.7107C86.6236 91.7249 86.2568 91.7373 85.8879 91.7461C85.519 91.7546 85.1401 91.7599 84.7592 91.7544C84.4195 91.7498 84.077 91.7418 83.7421 91.7337C83.6537 91.7316 83.5652 91.7295 83.4768 91.7273C83.0572 91.7175 82.651 91.711 82.2496 91.7154C81.8484 91.7196 81.4477 91.7343 81.0435 91.7577C80.6405 91.781 80.2325 91.8125 79.8214 91.849C79.4085 91.8857 79.0009 91.9268 78.5852 91.9713C78.1726 92.0156 77.7581 92.0627 77.3386 92.1121C77.1055 92.1395 76.8573 92.1653 76.6228 92.1876C76.386 92.2102 76.1508 92.2306 75.9185 92.2497C75.8242 92.2575 75.7304 92.265 75.6372 92.2726C75.5014 92.2836 75.3667 92.2944 75.2342 92.3056C75.0105 92.3245 74.7923 92.3443 74.5803 92.3669C74.3685 92.3894 74.163 92.4148 73.9645 92.445C73.7592 92.4763 73.59 92.5075 73.3877 92.5514C72.8948 92.6378 72.5889 92.667 72.249 92.6998C72.1821 92.7063 72.1137 92.7131 72.0424 92.7203C71.6348 92.7575 71.2275 92.7871 70.8254 92.8111C70.4195 92.8352 70.0198 92.8537 69.6148 92.8674C69.2138 92.8811 68.8098 92.8897 68.4073 92.894C68.0055 92.8983 67.6043 92.8981 67.2019 92.8934C66.7999 92.8888 66.3895 92.8794 65.9953 92.8661C65.7676 92.8585 65.5255 92.8473 65.3007 92.8354C65.1386 92.8268 64.9786 92.8176 64.8219 92.8086C64.7579 92.8049 64.6943 92.8012 64.6313 92.7976C64.414 92.7853 64.2028 92.774 63.9989 92.7662C63.7949 92.7583 63.5976 92.7538 63.4046 92.7542C63.2113 92.7547 63.0222 92.7601 62.8331 92.7708C62.6372 92.7821 62.4745 92.7955 62.2666 92.8184C62.1312 92.8335 61.9986 92.8487 61.8664 92.8639C61.6684 92.8866 61.4718 92.9097 61.2739 92.9335C61.0761 92.9574 60.8809 92.9816 60.6847 93.0068C60.6216 93.0149 60.555 93.0235 60.4918 93.0318C60.2963 93.0575 60.1031 93.0839 59.9101 93.1115C59.7174 93.1392 59.5266 93.1678 59.3365 93.1981C59.1457 93.2285 58.9581 93.2599 58.7668 93.2938C58.4417 93.3514 58.1301 93.381 57.8571 93.4019C57.5808 93.4227 57.3225 93.4361 57.0711 93.449C57.0241 93.4514 56.977 93.4538 56.9299 93.4562C56.7271 93.4664 56.5277 93.4762 56.3312 93.4872C56.0891 93.5007 55.8515 93.516 55.613 93.5334C55.3767 93.5506 55.1381 93.5702 54.9032 93.5923C54.666 93.6147 54.4393 93.6384 54.195 93.6669C53.9534 93.695 53.7081 93.7303 53.4393 93.7688C53.173 93.807 52.8934 93.8463 52.6102 93.8814C52.3274 93.9166 52.0399 93.9477 51.7544 93.9733C51.4683 93.9989 51.1813 94.0196 50.8981 94.0355C50.6134 94.0515 50.3303 94.0629 50.0486 94.0708C49.7675 94.0787 49.4771 94.0833 49.2053 94.0844C48.7651 94.0863 48.3269 94.0858 47.8878 94.0843C47.4512 94.0828 47.0132 94.0803 46.5761 94.0772C46.1398 94.0741 45.703 94.0705 45.2669 94.0664C44.8306 94.0623 44.3943 94.0578 43.9587 94.0533C43.8624 94.0523 43.766 94.0513 43.6697 94.0503C43.3304 94.0467 42.9912 94.0432 42.6535 94.0398C42.6511 94.0397 42.6488 94.0397 42.6465 94.0396C42.2117 94.0354 41.7849 94.0314 41.3538 94.0292C41.1955 94.0284 41.0435 94.0278 40.8889 94.0278C40.7343 94.0277 40.5825 94.0282 40.4293 94.0292C40.2759 94.0302 40.1235 94.032 39.9734 94.0346C39.8217 94.0373 39.6738 94.0407 39.5245 94.0457C39.3878 94.0502 39.252 94.0564 39.1036 94.063C39.0901 94.0636 39.0766 94.0642 39.063 94.0648C38.9007 94.072 38.716 94.0779 38.5443 94.0789C38.0894 94.081 37.6461 94.0859 37.1948 94.0941C36.7433 94.1022 36.2929 94.1133 35.8387 94.1258C35.6614 94.1307 35.4832 94.1359 35.305 94.141C35.0277 94.1488 34.7494 94.1567 34.4703 94.164C34.011 94.1759 33.5507 94.1857 33.0874 94.1914C32.6258 94.1971 32.1612 94.1984 31.6986 94.1948C31.2363 94.1912 30.7699 94.1828 30.3096 94.1699C29.7967 94.1555 29.2867 94.1386 28.7744 94.1205C28.263 94.1025 27.7512 94.0832 27.2417 94.0631C26.7303 94.043 26.2203 94.0221 25.71 94.0004C25.1994 93.9788 24.6892 93.9564 24.1786 93.9334C23.873 93.9196 23.5674 93.9055 23.2618 93.8912C23.1006 93.9116 22.946 93.9316 22.7973 93.9505C21.6986 94.0908 20.9042 94.1919 19.8552 94.2704C19.7548 94.2812 19.6732 94.2956 19.5739 94.313C19.5549 94.3163 19.5348 94.3197 19.5144 94.3232C19.3846 94.3456 19.2356 94.3693 19.028 94.3863C18.6138 94.4201 17.9782 94.4254 17.1538 94.2644C16.9456 94.2237 16.8101 94.0261 16.8513 93.8228C16.8802 93.6803 16.9886 93.5728 17.1224 93.5353C16.8736 93.5156 16.6254 93.4947 16.3778 93.474C16.279 93.4657 16.1856 93.4207 16.1185 93.3477C16.0515 93.2748 16.0161 93.1802 16.0201 93.0835C16.0241 92.9869 16.0673 92.8956 16.1402 92.8284C16.2131 92.7612 16.3096 92.7239 16.4087 92.7237C16.6716 92.7234 16.9337 92.7232 17.1958 92.7217C17.4581 92.7202 17.7191 92.7174 17.9809 92.7138C18.2426 92.7102 18.5042 92.7055 18.7667 92.7001C19.0281 92.6947 19.29 92.6887 19.5524 92.682C19.8164 92.6753 20.0755 92.6678 20.3387 92.6602C20.4965 92.6556 20.6561 92.651 20.8128 92.6461C20.8712 92.6443 20.9282 92.6423 20.9852 92.6405C21.0318 92.639 21.0787 92.6377 21.1269 92.6362C21.6341 92.62 22.1462 92.6028 22.6537 92.585C23.1636 92.5672 23.6729 92.5489 24.1823 92.5301C24.6919 92.5113 25.201 92.4919 25.7104 92.4723C26.2196 92.4527 26.7284 92.4328 27.2382 92.4123C27.7461 92.3919 28.2561 92.3711 28.7648 92.3494C29.1583 92.3326 29.5484 92.3152 29.9392 92.297C30.0928 92.275 30.2448 92.254 30.3948 92.2338C30.8316 92.1748 31.2686 92.0999 31.6992 92.0257C30.9314 92.0722 30.315 92.1348 29.7283 92.1945C29.6496 92.2025 29.5715 92.2105 29.4936 92.2184C28.6982 92.2985 27.9298 92.368 26.8947 92.3736C23.9507 92.3896 22.2436 92.3935 21.1793 92.3639C20.1152 92.3342 19.6571 92.2707 19.2282 92.136C18.6222 91.9457 17.4574 91.8518 16.873 91.8578C16.6607 91.8599 16.4864 91.6935 16.4838 91.4862C16.4812 91.2788 16.6512 91.1088 16.8636 91.1067C17.4807 91.1004 18.741 91.1945 19.4622 91.421C19.7835 91.5219 20.152 91.5842 21.1999 91.6134C22.2479 91.6426 23.9392 91.6385 26.8889 91.6225C27.8868 91.6171 28.6263 91.5508 29.4131 91.4715C29.4903 91.4637 29.568 91.4556 29.6464 91.4476C29.6469 91.4476 29.6474 91.4476 29.6479 91.4476C30.3706 91.374 31.1576 91.2939 32.2199 91.2459C34.6684 91.1354 37.9613 90.9466 38.7422 90.8588C38.8955 90.8416 39.0436 90.8227 39.1998 90.8029C39.7995 90.7268 40.5235 90.6349 42.1571 90.5538C42.5144 90.5361 42.9331 90.5221 43.39 90.5111C44.0739 90.3981 44.738 90.2927 45.316 90.2269C45.8148 90.1702 46.2739 90.0737 46.7187 89.9691C46.8467 89.939 46.9756 89.9076 47.1042 89.8763C47.4145 89.8009 47.7248 89.7255 48.0275 89.6661C48.2689 89.6187 48.5214 89.5625 48.7884 89.503C49.7608 89.2863 50.926 89.0267 52.4499 88.997C54.0653 88.9655 55.4491 88.9845 56.6427 89.0058C55.7658 88.9723 55.0885 88.9257 54.5243 88.8835C54.4178 88.8755 54.3159 88.8677 54.2177 88.8603C53.5242 88.8074 53.02 88.7689 52.4805 88.7803C49.904 88.8348 48.9386 88.9153 47.8513 89.1183C47.5651 89.1717 47.2495 89.2417 46.9095 89.3171C46.2299 89.4678 45.4526 89.64 44.6161 89.7454C43.8369 89.8435 42.966 89.9835 42.0432 90.1317C42.0428 90.1317 42.0424 90.1317 42.0421 90.1317C41.8618 90.1606 41.6793 90.1899 41.4953 90.2193C40.3733 90.3982 39.1931 90.579 38.0432 90.7C37.9202 90.7129 37.7729 90.7304 37.6038 90.7505C36.6278 90.8667 34.9143 91.0706 32.8162 90.9956C32.3554 90.9791 31.8761 90.9356 31.3291 90.8857C31.1625 90.8705 30.9895 90.8545 30.8089 90.8387C30.0293 90.7707 29.0822 90.7005 27.8224 90.6704C26.7826 90.6454 25.516 90.6469 24.2007 90.6482C23.5528 90.6489 22.8932 90.6493 22.243 90.6469C20.279 90.6395 18.4785 90.6048 16.6813 90.57C16.681 90.57 16.6806 90.57 16.6802 90.57C16.4679 90.5659 16.2987 90.3942 16.3025 90.1869C16.3064 89.9796 16.4816 89.8148 16.6939 89.8189C18.492 89.8537 20.2871 89.8886 22.2445 89.896C22.8848 89.8984 23.5393 89.8979 24.1847 89.8973C25.5063 89.896 26.7906 89.8944 27.84 89.9195C29.1213 89.9502 30.0857 90.0218 30.8761 90.0907C31.0664 90.1073 31.2454 90.1237 31.4153 90.1392C31.9563 90.1885 32.406 90.2298 32.8431 90.2454C34.8746 90.3179 36.5233 90.1221 37.5029 90.0058C37.6767 89.9852 37.8294 89.9672 37.9595 89.9535C39.0868 89.8349 40.249 89.657 41.3699 89.4783C41.5518 89.4493 41.7327 89.4203 41.9123 89.3915C41.9127 89.3914 41.913 89.3913 41.9134 89.3911C42.836 89.243 43.7226 89.1006 44.5162 89.0007C45.3218 88.8992 46.0232 88.743 46.6793 88.597C47.0314 88.5186 47.3705 88.4435 47.7055 88.3809C48.859 88.1656 49.8778 88.0844 52.4627 88.0298ZM17.5072 93.5649C18.0194 93.6501 18.4358 93.6626 18.7456 93.651C18.482 93.6342 18.2192 93.6163 17.956 93.5977C17.8063 93.5871 17.6567 93.5762 17.5072 93.5649ZM43.4657 91.2602C43.3832 91.2739 43.3 91.2877 43.2166 91.3016C43.4474 91.2917 43.6782 91.2822 43.9087 91.2727C44.1917 91.261 44.4747 91.2497 44.7575 91.2384C44.3075 91.2438 43.8716 91.2507 43.4657 91.2602ZM52.4667 89.7479C51.0296 89.776 49.9594 90.0137 48.9944 90.2283C48.7165 90.2901 48.447 90.3498 48.1803 90.4022C48.0697 90.4239 47.9592 90.4477 47.8479 90.4728C48.4989 90.4732 49.0974 90.4751 49.5873 90.4769C51.0493 90.4821 51.8822 90.5315 52.6141 90.575C52.8258 90.5875 53.0293 90.5995 53.237 90.6099C53.4081 90.5817 53.5859 90.5536 53.7655 90.5285C54.0171 90.4931 54.2891 90.4586 54.548 90.4288C54.8078 90.3988 55.072 90.3714 55.3315 90.3477C55.5931 90.3238 55.8524 90.3031 56.1105 90.2846C56.3534 90.2672 56.5955 90.2518 56.8298 90.2369C56.8432 90.2361 56.8566 90.2352 56.87 90.2344C57.1176 90.2186 57.3585 90.2033 57.5797 90.1843C57.8049 90.1647 57.992 90.143 58.1579 90.1123C58.365 90.074 58.5775 90.037 58.7878 90.0024C58.9982 89.9677 59.2078 89.9352 59.4168 89.9046C59.6262 89.8739 59.8336 89.845 60.0416 89.8175C60.1088 89.8086 60.1791 89.7994 60.2458 89.7909C60.2766 89.7869 60.3073 89.7829 60.3379 89.779C59.9302 89.7835 59.5069 89.7869 59.0693 89.7883C58.4372 89.7904 57.7621 89.7777 57.0174 89.7637C55.7471 89.7399 54.2742 89.7126 52.4667 89.7479ZM66.516 89.6041C66.3388 89.6092 66.0794 89.6196 65.7448 89.633C65.6657 89.6362 65.5822 89.6397 65.4948 89.6432C65.4968 89.6434 65.499 89.6433 65.501 89.6435C65.7182 89.6588 65.9186 89.672 66.135 89.6837C66.5206 89.7044 66.8952 89.7213 67.2735 89.7349C67.6533 89.7484 68.0319 89.7583 68.4109 89.7648C68.7905 89.7713 69.1712 89.7741 69.5483 89.7732C69.9292 89.7722 70.3046 89.7678 70.6835 89.7585C70.8042 89.7555 70.9253 89.7521 71.0463 89.7481C70.7757 89.7339 70.4948 89.7233 70.1981 89.712C69.9612 89.703 69.714 89.6936 69.4541 89.6818C69.3546 89.6772 69.2342 89.6697 69.0937 89.661C68.5369 89.6262 67.6632 89.5715 66.516 89.6041ZM74.0657 89.4885C74.1535 89.482 74.2409 89.4759 74.3272 89.4707C74.5731 89.4559 74.8128 89.4457 75.0478 89.4369C75.2129 89.4308 75.3761 89.4256 75.5369 89.4203C75.6047 89.4181 75.6725 89.4157 75.7397 89.4135C75.8521 89.4097 75.9638 89.4056 76.0746 89.4014C75.2966 89.3924 74.5362 89.3883 73.7439 89.3967C73.7335 89.3968 73.723 89.3971 73.7125 89.3972C73.8329 89.4283 73.9506 89.4587 74.0657 89.4885Z" fill="white"/>
</svg>
