<svg width="128" height="128" viewBox="0 0 128 128" fill="none" xmlns="http://www.w3.org/2000/svg">
<path d="M70.0235 60.0921C69.5424 60.5687 69.0544 60.9786 68.438 61.4962C68.4377 61.4965 68.4374 61.4968 68.437 61.4971C68.349 61.5711 68.2581 61.6471 68.1645 61.726C67.4101 62.361 66.4371 63.1932 65.0271 64.5051C63.4688 65.9545 62.1207 66.9943 61.2509 67.5826C61.0886 67.6923 60.9328 67.818 60.5619 68.157C60.3186 68.3794 59.9934 68.6836 59.5238 69.1226C59.2741 69.356 58.9835 69.6278 58.6429 69.9455C57.5152 70.9971 55.7969 72.6942 54.2107 74.2551C53.248 75.2026 52.3341 76.1002 51.6329 76.7751C50.6074 77.762 49.5995 78.6959 48.5042 79.7115C47.501 80.6415 46.4244 81.6402 45.1922 82.8091C44.2465 83.7058 43.2528 84.502 42.2396 85.3078C42.1107 85.4103 41.9811 85.5133 41.8515 85.6163C40.9572 86.3271 40.0465 87.0573 39.105 87.8903C37.4273 89.3754 36.1888 90.6609 34.8094 92.076C34.2701 92.6297 33.7096 93.2038 33.0946 93.8192C32.122 94.7925 30.7023 96.1702 29.2758 97.5525C29.1543 97.6703 29.0327 97.7883 28.9113 97.9059C28.9107 97.9065 28.9101 97.907 28.9095 97.9076C27.6035 99.1728 26.3216 100.414 25.3881 101.332C23.9047 102.791 23.3618 103.355 22.9084 103.825C22.738 104.001 22.58 104.165 22.3894 104.357C21.7026 105.05 20.6382 106.068 19.56 107.1C19.5559 107.104 19.5518 107.108 19.5476 107.112C19.3685 107.283 19.1795 107.377 19.1255 107.321C19.0715 107.266 19.1711 107.08 19.348 106.907C19.913 106.353 20.4644 105.814 20.9558 105.328C20.9292 105.251 21.0216 105.08 21.1801 104.924C21.5767 104.531 22.7526 103.289 24.5662 101.32C24.4256 101.438 24.3064 101.536 24.2013 101.621C24.0779 101.721 23.9824 101.796 23.9004 101.861C23.7294 101.997 23.616 102.088 23.4273 102.261C23.0004 102.673 22.3436 103.334 21.6526 104.029C21.478 104.205 21.2863 104.296 21.2244 104.233C21.1626 104.169 21.2523 103.973 21.4248 103.795C21.4281 103.792 21.4315 103.789 21.4349 103.785C22.1119 103.089 22.7827 102.399 23.2243 101.965C23.3367 101.854 23.4344 101.76 23.5083 101.69C23.5673 101.634 23.6414 101.564 23.6849 101.528C23.6906 101.523 23.7017 101.514 23.7153 101.503C23.7155 101.503 23.7158 101.503 23.716 101.503C23.7236 101.497 23.7623 101.466 23.8089 101.44C23.8183 101.434 23.8389 101.422 23.8649 101.411C23.8703 101.407 23.8756 101.402 23.881 101.398C23.9556 101.338 24.0317 101.276 24.1133 101.209C24.432 100.947 24.9269 100.521 25.9228 99.6C26.8387 98.7528 28.3413 97.2748 30.1918 95.4064C30.0603 95.5261 29.9288 95.6464 29.7977 95.767C29.4678 96.0703 29.1382 96.3768 28.8096 96.6845C28.6837 96.8023 28.5595 96.9187 28.4333 97.0375C28.2301 97.2287 28.0265 97.4208 27.8234 97.6131C27.6861 97.743 27.5487 97.8734 27.4115 98.0036C27.4112 98.0039 27.4109 98.0042 27.4106 98.0045C27.2202 98.1853 27.0294 98.3666 26.8371 98.5494C26.7696 98.6132 26.7031 98.6764 26.6371 98.7391C26.3743 98.9888 26.1164 99.2344 25.8132 99.5109C25.7756 99.5438 25.7342 99.579 25.703 99.605C25.6695 99.6329 25.6371 99.6597 25.6063 99.6847C25.5791 99.7069 25.553 99.7278 25.5281 99.7479C25.5247 99.7506 25.5214 99.7533 25.5181 99.756C25.4902 99.7785 25.4636 99.8002 25.4381 99.8211C25.4127 99.8419 25.3881 99.8619 25.3643 99.882C25.3641 99.8822 25.3639 99.8824 25.3637 99.8826C25.3389 99.9036 25.32 99.9196 25.2941 99.9423C25.2616 99.9708 25.2339 99.9955 25.2007 100.026C25.1686 100.055 25.1354 100.086 25.1021 100.118C25.0688 100.149 25.0351 100.181 25.001 100.214C24.9669 100.247 24.9323 100.28 24.8976 100.314C24.8629 100.348 24.8279 100.383 24.7926 100.417C24.7574 100.452 24.7218 100.487 24.686 100.522C24.6038 100.603 24.5119 100.668 24.4306 100.702C24.3494 100.735 24.2854 100.736 24.2521 100.702C24.2188 100.667 24.2186 100.602 24.251 100.518C24.2834 100.434 24.346 100.339 24.4245 100.255C24.4458 100.231 24.4673 100.208 24.4889 100.185C24.5017 100.171 24.5147 100.157 24.5276 100.143C24.5622 100.106 24.5972 100.068 24.6326 100.03C24.6679 99.9922 24.7037 99.9541 24.74 99.9157C24.7764 99.8772 24.8134 99.8383 24.8512 99.7991C24.8888 99.7599 24.9276 99.7202 24.9673 99.6802C25.006 99.6411 25.0506 99.5969 25.091 99.558C25.1205 99.5294 25.1574 99.4948 25.1883 99.4661C25.2205 99.4361 25.2525 99.4068 25.2835 99.3788C25.3146 99.3507 25.3448 99.3238 25.3737 99.298C25.3767 99.2953 25.3798 99.2925 25.3829 99.2897C25.4084 99.2669 25.4331 99.245 25.4563 99.2241C25.4822 99.2008 25.5066 99.1786 25.5296 99.1573C25.555 99.1339 25.5701 99.1193 25.5886 99.1014C25.828 98.8601 26.1177 98.5555 26.3939 98.2651C26.4286 98.2286 26.4632 98.1924 26.4973 98.1565C26.6787 97.9656 26.8595 97.775 27.0402 97.5845C27.1715 97.4461 27.3029 97.3075 27.4347 97.1688C27.6285 96.9646 27.823 96.7601 28.0176 96.556C28.1385 96.4292 28.2572 96.3049 28.378 96.1786C28.6934 95.8489 29.0105 95.5189 29.3296 95.1901C29.6482 94.8616 29.9704 94.5326 30.2953 94.206C30.6191 93.8806 30.9581 93.5454 31.2908 93.2269C31.5355 92.9929 31.7938 92.7604 32.035 92.5476C32.1647 92.4332 32.2921 92.3217 32.4179 92.212C32.4183 92.2116 32.4188 92.2113 32.4193 92.2109C32.5296 92.1147 32.6388 92.0198 32.7468 91.9252C32.9785 91.7226 33.2047 91.5222 33.4287 91.3195C33.6523 91.1171 33.8727 90.9134 34.0922 90.7057C34.31 90.4994 34.529 90.2873 34.7437 90.075C34.9594 89.8617 35.169 89.65 35.3874 89.4258C35.6745 89.1307 35.9566 88.8349 36.2457 88.5306C36.5326 88.2284 36.8208 87.9228 37.1096 87.6163C37.2105 87.5091 37.3118 87.4019 37.413 87.2943C37.4134 87.2939 37.4138 87.2935 37.4142 87.2931C37.6015 87.0942 37.7892 86.8948 37.9771 86.6953C38.2673 86.3874 38.5585 86.0788 38.8518 85.77C39.1449 85.4613 39.4408 85.1515 39.7402 84.8422C40.0398 84.5329 40.3492 84.2171 40.6661 83.9058C40.9486 83.6279 41.2352 83.3499 41.5158 83.0782C41.5899 83.0065 41.6639 82.9347 41.738 82.863C42.0895 82.5226 42.4284 82.1916 42.7575 81.8583C43.0865 81.5255 43.4096 81.187 43.7306 80.8406C44.0508 80.4953 44.3704 80.141 44.6896 79.7809C45.0103 79.4193 45.3238 79.0593 45.6419 78.6903C45.9575 78.3241 46.2729 77.9544 46.5908 77.5788C46.7675 77.3701 46.9575 77.1499 47.1381 76.9431C47.3205 76.7342 47.5028 76.5278 47.6834 76.3246C47.7566 76.2421 47.8297 76.1602 47.9021 76.0787C48.0078 75.96 48.1126 75.8423 48.2154 75.7262C48.3889 75.5301 48.5573 75.338 48.7189 75.1493C48.8804 74.9607 49.0349 74.7755 49.1807 74.593C49.3316 74.4041 49.4526 74.2451 49.5932 74.0508C49.948 73.59 50.1825 73.3191 50.443 73.0179C50.4943 72.9586 50.5465 72.8978 50.601 72.8345C50.9145 72.4745 51.2323 72.1196 51.5492 71.7725C51.8693 71.4222 52.1877 71.0806 52.5133 70.7378C52.8357 70.3983 53.1638 70.0596 53.4934 69.7252C53.8225 69.3913 54.1539 69.0608 54.4893 68.7326C54.8244 68.4046 55.1696 68.073 55.504 67.7576C55.6972 67.5753 55.9045 67.3837 56.0981 67.2068C56.2378 67.0792 56.376 66.9539 56.5116 66.8311C56.5669 66.781 56.622 66.7312 56.6764 66.6818C56.8642 66.5115 57.0464 66.3456 57.2203 66.1834C57.3944 66.0212 57.5608 65.8623 57.7205 65.7035C57.8804 65.5445 58.0336 65.3856 58.1834 65.2232C58.3385 65.0547 58.4647 64.9122 58.6221 64.726C58.7245 64.6046 58.8246 64.4855 58.9243 64.3666C59.0736 64.1887 59.2215 64.0116 59.37 63.8329C59.5183 63.6543 59.6643 63.4775 59.8104 63.2993C59.8574 63.242 59.907 63.1814 59.954 63.1238C60.0992 62.9458 60.242 62.7691 60.3838 62.5917C60.5253 62.4146 60.6646 62.2383 60.8022 62.0615C60.9403 61.8839 61.075 61.7083 61.2112 61.5279C61.4425 61.2212 61.6812 60.945 61.8936 60.7065C62.1089 60.4653 62.3141 60.2442 62.5141 60.029C62.5515 59.9887 62.589 59.9484 62.6264 59.9081C62.7878 59.7347 62.9468 59.5644 63.1024 59.3956C63.2942 59.1876 63.4812 58.9821 63.6674 58.7745C63.8519 58.5687 64.0369 58.3595 64.217 58.1514C64.3988 57.9413 64.5711 57.7389 64.7547 57.5187C64.9364 57.301 65.1162 57.0752 65.3134 56.8279C65.5088 56.5827 65.7143 56.3259 65.9257 56.0692C66.1369 55.8127 66.3545 55.5552 66.5744 55.3034C66.7947 55.0511 67.0193 54.8014 67.2439 54.5584C67.4697 54.3141 67.6973 54.0744 67.9263 53.8384C68.1546 53.6029 68.3932 53.3623 68.6186 53.1393C68.9838 52.7782 69.3491 52.4206 69.7158 52.0631C70.0806 51.7076 70.4474 51.3519 70.814 50.9976C71.18 50.6439 71.5468 50.2902 71.9136 49.9377C72.2806 49.585 72.6478 49.2327 73.0148 48.8812C73.096 48.8035 73.1772 48.7258 73.2583 48.648C73.5442 48.3744 73.8301 48.1008 74.1148 47.8284C74.1168 47.8265 74.1187 47.8247 74.1207 47.8229C74.4871 47.4721 74.8468 47.1277 75.209 46.7788C75.3419 46.6506 75.4695 46.5275 75.5988 46.4019C75.7283 46.2762 75.855 46.1525 75.9825 46.0273C76.0914 45.9203 76.1993 45.8136 76.3056 45.7077C76.3239 45.6894 76.3422 45.6712 76.3604 45.653C76.4856 45.5278 76.6073 45.4053 76.729 45.2808C76.8407 45.1667 76.9505 45.0524 77.0708 44.9277C77.0818 44.9163 77.0927 44.9049 77.1037 44.8936C77.2353 44.7572 77.3867 44.6038 77.5309 44.4646C77.9133 44.0965 78.2851 43.7369 78.6627 43.3698C79.0406 43.0027 79.4168 42.6355 79.7967 42.2658C79.945 42.1214 80.094 41.9763 80.2434 41.8315C80.4758 41.6063 80.7095 41.3807 80.945 41.1555C81.3324 40.7849 81.7235 40.4164 82.1213 40.0497C82.5176 39.6844 82.9208 39.3211 83.3266 38.9638C83.732 38.6067 84.1452 38.2509 84.5569 37.9035C85.0157 37.5166 85.4745 37.1347 85.9369 36.7525C86.3986 36.371 86.8623 35.9909 87.325 35.6137C87.7894 35.2351 88.2538 34.8586 88.7192 34.4829C89.1849 34.1069 89.6511 33.7321 90.1183 33.3576C90.3979 33.1334 90.6777 32.9096 90.9577 32.6858C91.0921 32.5537 91.2211 32.4271 91.3457 32.3058C92.2666 31.4103 92.9455 30.7757 93.8745 29.9719C93.9622 29.8936 94.0315 29.8279 94.116 29.7482C94.1322 29.733 94.1493 29.7169 94.1668 29.7005C94.2776 29.5966 94.4059 29.4783 94.5911 29.3205C94.9596 29.0049 95.5494 28.5459 96.3571 27.9984C96.5613 27.8603 96.7403 27.8214 96.7593 27.9142C96.7727 27.9795 96.7055 28.0941 96.5964 28.2069C96.8252 28.0257 97.0534 27.8451 97.2805 27.6644C97.3712 27.5923 97.4665 27.5348 97.5447 27.5045C97.6173 27.4764 97.6697 27.4737 97.6933 27.4974C97.6933 27.4974 97.6933 27.4974 97.6933 27.4974C97.6952 27.4992 97.6968 27.5012 97.6983 27.5034C97.7189 27.5334 97.7038 27.5922 97.6574 27.6679C97.6109 27.7436 97.5369 27.8299 97.4509 27.9074C97.2227 28.1129 96.9953 28.3178 96.7683 28.5232C96.5411 28.7287 96.3154 28.9338 96.0895 29.1399C95.8637 29.3459 95.6385 29.5524 95.413 29.76C95.1884 29.9668 94.9637 30.1743 94.7392 30.3828C94.5131 30.5926 94.292 30.7989 94.0674 31.0089C93.9329 31.1348 93.7969 31.2622 93.6636 31.3875C93.6138 31.4342 93.5655 31.4799 93.517 31.5255C93.4774 31.5629 93.4375 31.6003 93.3965 31.6389C92.9655 32.0451 92.5317 32.4566 92.1031 32.8657C91.6725 33.2767 91.2435 33.6885 90.8157 34.1015C90.3878 34.5148 89.9614 34.929 89.536 35.3444C89.1108 35.7596 88.6869 36.1757 88.2634 36.5938C87.8416 37.0104 87.419 37.4298 86.999 37.8496C86.674 38.1743 86.3529 38.4972 86.0321 38.8217C85.9152 38.9588 85.7992 39.0941 85.6846 39.2276C85.3508 39.616 85.0283 40.0166 84.7122 40.4129C85.3307 39.7634 85.813 39.2272 86.274 38.7185C86.3358 38.6503 86.3972 38.5826 86.4585 38.5151C87.0844 37.8268 87.6984 37.171 88.5783 36.3432C91.0808 33.9887 92.5435 32.635 93.4657 31.8023C94.3881 30.9702 94.8042 30.6324 95.2167 30.3414C95.8006 29.931 96.8046 29.0162 97.2918 28.5391C97.4693 28.3664 97.6599 28.2743 97.7174 28.3333C97.7748 28.3924 97.6828 28.5859 97.5117 28.7651C97.0138 29.2854 95.9627 30.3106 95.2821 30.8134C94.9794 31.0377 94.6499 31.3143 93.7642 32.1564C92.8783 32.9985 91.4664 34.377 89.0043 36.7812C88.1711 37.5943 87.5895 38.2347 86.9797 38.9252C86.9199 38.9929 86.8599 39.0613 86.7992 39.1301C86.7988 39.1305 86.7984 39.1309 86.798 39.1314C86.2386 39.7663 85.6321 40.4605 84.7765 41.3587C82.8039 43.4285 80.1831 46.2453 79.5901 46.9431C79.4739 47.0802 79.3631 47.2143 79.2461 47.3556C79.0752 47.562 78.8908 47.7847 78.6556 48.0576C78.2727 48.502 77.7554 49.0798 76.9428 49.9379C76.6558 50.241 76.3149 50.5911 75.9399 50.9701C75.4452 51.6069 74.9616 52.2219 74.5227 52.7383C74.1439 53.184 73.8255 53.6259 73.5247 54.0617C73.4381 54.1872 73.3517 54.3143 73.2653 54.441C73.057 54.7467 72.8485 55.0524 72.6354 55.3403C72.4654 55.5698 72.2921 55.8148 72.1088 56.0736C71.4412 57.0163 70.6394 58.1443 69.3774 59.397C68.0398 60.7252 66.8615 61.8292 65.8419 62.778C66.6029 62.0934 67.2046 61.5792 67.7083 61.1532C67.8033 61.0728 67.8944 60.996 67.9821 60.9219C68.6018 60.3991 69.0524 60.0191 69.4988 59.5752C71.6303 57.4547 72.3859 56.6154 73.1597 55.5897C73.3634 55.3196 73.5801 55.0138 73.8136 54.6842C74.2802 54.0254 74.8133 53.2713 75.4418 52.5167C76.0272 51.8138 76.6601 51.006 77.3304 50.1498C77.3307 50.1495 77.331 50.1492 77.3313 50.1489C77.4623 49.9816 77.5948 49.8123 77.7286 49.6417C78.0901 49.1807 78.4607 48.7101 78.8379 48.2399C79.312 47.6491 79.7957 47.0584 80.2842 46.4886C80.378 46.3791 80.489 46.2466 80.6164 46.0945C81.3507 45.2153 82.6451 43.6773 84.4421 42.0152C84.8364 41.6498 85.2633 41.2872 85.7486 40.8716C85.8964 40.7451 86.0499 40.6136 86.2094 40.4756C86.8977 39.8797 87.7223 39.1441 88.7734 38.1177C89.6409 37.2707 90.6749 36.2151 91.7431 35.1135C92.2693 34.5709 92.8038 34.0172 93.3304 33.4713C94.9211 31.8223 96.3766 30.3085 97.8079 28.7761C97.8082 28.7758 97.8085 28.7755 97.8088 28.7752C97.9784 28.5946 98.1571 28.4991 98.2084 28.5627C98.2596 28.6263 98.1697 28.8302 98.0068 29.0173C96.6226 30.5985 95.2141 32.1502 93.6687 33.8337C93.1632 34.3844 92.6455 34.9464 92.1331 35.4987C91.0838 36.6297 90.0555 37.72 89.1945 38.5895C88.1432 39.6511 87.3141 40.4109 86.6245 41.023C86.4584 41.1705 86.3014 41.3084 86.1523 41.4391C85.6775 41.8552 85.2806 42.199 84.9102 42.5492C83.1869 44.1751 81.9474 45.6611 81.213 46.5461C81.0825 46.7029 80.9678 46.8406 80.8688 46.9566C80.3659 47.5466 79.8662 48.1602 79.3736 48.7756C79.0265 49.2093 78.6837 49.6446 78.3467 50.0742C78.2144 50.2428 78.0829 50.4106 77.9524 50.5772C77.9522 50.5776 77.952 50.578 77.9518 50.5784C77.2814 51.4342 76.6366 52.2561 76.0399 52.9716C75.4342 53.6978 74.9532 54.3784 74.5027 55.0143C74.2609 55.3556 74.0277 55.6839 73.789 55.9997C72.967 57.0867 72.166 57.9688 70.0235 60.0921ZM96.2427 28.487C95.7572 28.8442 95.3775 29.151 95.1038 29.3885C95.346 29.1966 95.5879 29.0052 95.8298 28.8137C95.9676 28.7047 96.1051 28.5958 96.2427 28.487ZM75.3584 50.4919C75.418 50.415 75.478 50.3375 75.5383 50.2597C75.3519 50.4544 75.1652 50.6488 74.9789 50.8429C74.7501 51.0813 74.521 51.3194 74.2921 51.5573C74.665 51.1878 75.0252 50.8285 75.3584 50.4919ZM68.8533 58.8789C70.041 57.6952 70.7767 56.6586 71.4385 55.7223C71.6292 55.4527 71.814 55.1913 72.0016 54.9374C72.0794 54.8321 72.1556 54.7254 72.2316 54.617C71.6858 55.1452 71.183 55.6295 70.7712 56.026C69.5424 57.2088 68.8107 57.8496 68.168 58.413C67.982 58.576 67.8034 58.7327 67.6224 58.894C67.4981 59.0528 67.3682 59.2169 67.2346 59.3805C67.0477 59.6096 66.8431 59.8546 66.6462 60.0857C66.4486 60.3176 66.2455 60.5511 66.0439 60.7783C65.8406 61.0072 65.6371 61.232 65.433 61.4543C65.2409 61.6635 65.0482 61.8705 64.8616 62.0709C64.8509 62.0823 64.8403 62.0938 64.8296 62.1053C64.6325 62.317 64.4405 62.5229 64.2677 62.7155C64.0917 62.9117 63.9492 63.0784 63.8304 63.2341C63.682 63.4285 63.5281 63.6264 63.3746 63.8206C63.2208 64.015 63.0663 64.2072 62.911 64.3975C62.7554 64.5882 62.6002 64.776 62.4435 64.9632C62.3929 65.0238 62.3398 65.087 62.2894 65.1469C62.2662 65.1744 62.243 65.2021 62.2198 65.2295C62.5595 64.8965 62.913 64.5516 63.2797 64.1964C63.8095 63.6834 64.3852 63.1458 65.0202 62.5527C66.1034 61.5408 67.3594 60.3679 68.8533 58.8789ZM57.1373 70.3438C57.2832 70.1972 57.4949 69.9807 57.7679 69.7013C57.8324 69.6352 57.9003 69.5654 57.9717 69.4924C57.9698 69.4939 57.9681 69.4957 57.9663 69.4972C57.7738 69.6626 57.5968 69.8159 57.4074 69.9831C57.0699 70.2812 56.7442 70.5729 56.4176 70.87C56.0897 71.1682 55.7652 71.468 55.4425 71.7703C55.1193 72.0732 54.7976 72.3793 54.481 72.685C54.1614 72.9938 53.8486 73.3003 53.5357 73.6127C53.436 73.7123 53.3363 73.8124 53.237 73.9128C53.4732 73.703 53.7159 73.4827 53.9723 73.25C54.1771 73.0642 54.3908 72.8704 54.6168 72.6679C54.7033 72.5904 54.8092 72.4979 54.9329 72.39C55.4228 71.9624 56.1925 71.2924 57.1373 70.3438ZM50.8525 76.5167C50.7824 76.5917 50.7123 76.666 50.6427 76.739C50.4444 76.9467 50.2485 77.1465 50.0556 77.3416C49.9201 77.4786 49.7857 77.6135 49.6533 77.7465C49.5974 77.8026 49.5417 77.8588 49.4864 77.9144C49.3938 78.0074 49.3022 78.1 49.2112 78.192C49.8721 77.5697 50.5154 76.9588 51.1781 76.3143C51.1868 76.3058 51.1955 76.2971 51.2043 76.2885C51.0843 76.3663 50.967 76.4424 50.8525 76.5167Z" fill="white"/>
<path d="M58.3748 49.8897C58.8552 50.367 59.2681 50.8521 59.7894 51.4648C59.7897 51.4651 59.79 51.4654 59.7903 51.4657C59.8648 51.5532 59.9414 51.6435 60.0209 51.7366C60.6605 52.4863 61.4985 53.4535 62.8224 54.8515C64.2853 56.3963 65.331 57.7385 65.9178 58.6098C66.0272 58.7723 66.1534 58.9277 66.4951 59.2959C66.7192 59.5374 67.0261 59.86 67.469 60.3257C67.7045 60.5734 67.9787 60.8615 68.2992 61.1994C69.36 62.3178 71.0767 64.0166 72.6587 65.5817C73.6189 66.5316 74.5296 67.4325 75.2135 68.1246C76.2138 69.1368 77.1581 70.1343 78.1845 71.2188C79.1244 72.2121 80.1333 73.2784 81.3175 74.4953C82.2261 75.4291 83.0134 76.4317 83.8026 77.4615C83.903 77.5926 84.0037 77.7243 84.1045 77.8562C84.7998 78.7662 85.5103 79.6965 86.3346 80.6466C87.8038 82.3402 89.1122 83.5559 90.5608 84.9018C91.1273 85.4282 91.7155 85.9747 92.3431 86.5775C93.3357 87.5308 94.7304 88.9334 96.1292 90.3434C96.2484 90.4635 96.3679 90.5837 96.4868 90.7036C96.4875 90.7042 96.4881 90.7048 96.4887 90.7054C97.769 91.9962 99.0257 93.2631 99.9627 94.1774C101.452 95.6303 102.048 96.1411 102.545 96.5669C102.732 96.727 102.906 96.8751 103.107 97.0568C103.832 97.7115 104.866 98.7592 105.915 99.8212C105.919 99.8252 105.923 99.8292 105.927 99.8333C106.101 100.01 106.123 100.271 105.975 100.416C105.828 100.562 105.567 100.538 105.393 100.361C104.838 99.7988 104.295 99.25 103.804 98.7639C103.653 98.8646 103.426 98.8284 103.27 98.6698C102.877 98.2727 101.574 97.1589 99.5269 95.4223C99.6336 95.5748 99.7198 95.7057 99.7936 95.8221C99.8803 95.9586 99.9444 96.0656 99.9996 96.1575C100.115 96.349 100.191 96.4763 100.354 96.6758C100.752 97.1162 101.406 97.7795 102.096 98.4772C102.269 98.6534 102.291 98.9143 102.144 99.0601C101.997 99.2059 101.736 99.1812 101.562 99.005C101.558 99.0016 101.555 98.9982 101.551 98.9947C100.869 98.3037 100.193 97.6193 99.7776 97.1589C99.6719 97.0417 99.5827 96.939 99.5168 96.8608C99.4641 96.7982 99.3989 96.7197 99.3675 96.6711C99.3634 96.6646 99.3556 96.6522 99.347 96.6366C99.3469 96.6363 99.3468 96.636 99.3467 96.6357C99.3419 96.627 99.3174 96.5827 99.3022 96.5244C99.2991 96.5126 99.2927 96.4868 99.2896 96.4523C99.286 96.4463 99.2824 96.4402 99.2788 96.4342C99.2282 96.35 99.1765 96.2642 99.1187 96.1731C98.893 95.8176 98.5146 95.2756 97.6427 94.2305C96.8408 93.2692 95.3862 91.7433 93.5274 89.8831C93.642 90.0197 93.7573 90.1563 93.8728 90.2923C94.1638 90.6346 94.4584 90.9761 94.7542 91.3166C94.8676 91.4471 94.9795 91.5756 95.0937 91.7064C95.2777 91.9169 95.4624 92.1278 95.6474 92.3382C95.7724 92.4805 95.8978 92.6228 96.0229 92.7651C96.0232 92.7654 96.0236 92.7657 96.0239 92.766C96.1976 92.9634 96.3718 93.1614 96.5471 93.3612C96.6081 93.4314 96.6686 93.5006 96.7287 93.5692C96.968 93.8425 97.2032 94.1108 97.4611 94.4326C97.491 94.4732 97.5224 94.5183 97.5453 94.5526C97.57 94.5894 97.5934 94.625 97.6151 94.6592C97.6343 94.6894 97.6522 94.7185 97.6695 94.7462C97.6719 94.7499 97.6742 94.7536 97.6765 94.7574C97.6959 94.7884 97.7146 94.8179 97.7327 94.8462C97.7507 94.8744 97.7681 94.9016 97.7858 94.9278C97.786 94.928 97.7862 94.9282 97.7864 94.9284C97.805 94.9557 97.8191 94.9764 97.8397 95.0044C97.8655 95.0397 97.8881 95.0695 97.9163 95.1049C97.9435 95.1391 97.9725 95.1743 98.0021 95.2094C98.0318 95.2444 98.0624 95.2798 98.0937 95.3154C98.125 95.351 98.157 95.3871 98.1895 95.4232C98.222 95.4592 98.2552 95.4955 98.2885 95.532C98.3219 95.5685 98.3556 95.6054 98.3896 95.6424C98.4678 95.7276 98.5167 95.8354 98.5243 95.9428C98.5318 96.0502 98.4977 96.1483 98.429 96.2163C98.3602 96.2843 98.2617 96.3172 98.1544 96.3084C98.0471 96.2996 97.94 96.2495 97.8557 96.1703C97.8328 96.1487 97.8097 96.1271 97.7866 96.1053C97.7729 96.0923 97.7591 96.0791 97.7454 96.0661C97.7084 96.0311 97.6708 95.9958 97.6335 95.9599C97.5961 95.924 97.5587 95.8876 97.521 95.8506C97.4833 95.8134 97.4452 95.7756 97.4071 95.7367C97.3692 95.6979 97.3308 95.6577 97.2925 95.6163C97.255 95.5759 97.2132 95.529 97.1768 95.4861C97.15 95.4548 97.1181 95.4152 97.0918 95.382C97.0643 95.3472 97.0377 95.3125 97.0125 95.2788C96.9871 95.245 96.963 95.2119 96.9399 95.1804C96.9374 95.177 96.9349 95.1737 96.9324 95.1703C96.912 95.1424 96.8924 95.1155 96.8736 95.0902C96.8526 95.062 96.8323 95.0356 96.8128 95.0108C96.7914 94.9835 96.7777 94.9674 96.7609 94.948C96.529 94.6991 96.2301 94.4037 95.9452 94.122C95.9094 94.0865 95.8738 94.0513 95.8386 94.0164C95.6513 93.8316 95.464 93.6474 95.2768 93.4634C95.1408 93.3297 95.0046 93.1959 94.8684 93.0617C94.6679 92.8642 94.4671 92.6659 94.2669 92.4674C94.1425 92.3441 94.0206 92.2229 93.8969 92.0996C93.5739 91.7776 93.2511 91.4533 92.9302 91.1262C92.6099 90.7995 92.2898 90.4683 91.9735 90.1331C91.6583 89.7992 91.3352 89.448 91.031 89.101C90.8076 88.8457 90.59 88.5725 90.3917 88.3167C90.2852 88.1793 90.1814 88.0441 90.0794 87.9107C90.079 87.9102 90.0787 87.9097 90.0784 87.9092C89.9889 87.7921 89.9005 87.6764 89.8122 87.5622C89.6229 87.3171 89.4345 87.0789 89.2422 86.8446C89.0502 86.6106 88.8553 86.3814 88.6548 86.1546C88.4558 85.9296 88.2496 85.7046 88.042 85.4853C87.8333 85.265 87.625 85.052 87.4035 84.8308C87.1119 84.5403 86.8182 84.256 86.5159 83.965C86.2156 83.6762 85.9115 83.3865 85.6066 83.096C85.5 82.9945 85.3934 82.8927 85.2864 82.7909C85.286 82.7905 85.2856 82.7901 85.2852 82.7897C85.0873 82.6014 84.8889 82.4127 84.6906 82.2236C84.3844 81.9316 84.0777 81.6385 83.7712 81.343C83.4647 81.0475 83.1576 80.749 82.8516 80.4462C82.5458 80.1433 82.234 79.8298 81.9286 79.5071C81.6558 79.2195 81.3834 78.9272 81.1171 78.6413C81.0468 78.5658 80.9765 78.4903 80.9061 78.4148C80.5723 78.0567 80.247 77.7121 79.9176 77.3791C79.5887 77.0462 79.2525 76.7209 78.9072 76.3987C78.5629 76.0775 78.2088 75.7577 77.8484 75.4388C77.4864 75.1186 77.1256 74.8059 76.7557 74.4886C76.3886 74.1739 76.0179 73.8595 75.6414 73.5426C75.4321 73.3664 75.2119 73.1764 75.0053 72.9956C74.7967 72.813 74.5908 72.6301 74.3882 72.449C74.306 72.3754 74.2244 72.3021 74.1432 72.2293C74.0249 72.1232 73.9077 72.018 73.7919 71.9148C73.5965 71.7406 73.4049 71.5717 73.2165 71.4098C73.0282 71.2481 72.8428 71.0937 72.6598 70.9484C72.4703 70.7982 72.3104 70.6781 72.1144 70.5392C71.6515 70.1864 71.3819 69.9505 71.0821 69.6887C71.0231 69.6372 70.9626 69.5846 70.8995 69.5299C70.5415 69.2145 70.1892 68.894 69.8452 68.574C69.498 68.2509 69.1599 67.929 68.8209 67.5995C68.4853 67.2732 68.1508 66.941 67.8207 66.607C67.4911 66.2736 67.1653 65.9376 66.8417 65.5975C66.5184 65.2577 66.1918 64.9076 65.8811 64.5685C65.7015 64.3725 65.513 64.1622 65.3389 63.9657C65.2133 63.824 65.09 63.6838 64.9692 63.5463C64.9198 63.4901 64.8708 63.4343 64.8222 63.3791C64.6546 63.1886 64.4911 63.0041 64.3311 62.8279C64.171 62.6517 64.014 62.4833 63.8569 62.3221C63.6995 62.1605 63.5419 62.0061 63.3806 61.8552C63.2132 61.6989 63.0714 61.572 62.886 61.4139C62.7651 61.311 62.6464 61.2105 62.528 61.1103C62.3507 60.9602 62.1744 60.8117 61.9963 60.6625C61.8185 60.5135 61.6424 60.3668 61.4648 60.22C61.4077 60.1728 61.3474 60.123 61.29 60.0758C61.1126 59.93 60.9366 59.7865 60.7598 59.644C60.5834 59.5019 60.4076 59.362 60.2314 59.2238C60.0544 59.0851 59.8793 58.9499 59.6995 58.8132C59.3937 58.5809 59.1192 58.3405 58.8823 58.1265C58.6428 57.9096 58.4233 57.7026 58.2098 57.5011C58.1698 57.4633 58.1298 57.4256 58.0898 57.3878C57.9177 57.2251 57.7486 57.0649 57.5811 56.9081C57.3746 56.7148 57.1705 56.5264 56.9642 56.3389C56.7598 56.153 56.5518 55.9667 56.3449 55.7854C56.1361 55.6024 55.9347 55.429 55.7157 55.2442C55.4992 55.0614 55.2744 54.8805 55.0283 54.6821C54.7843 54.4856 54.5288 54.2788 54.2734 54.066C54.0182 53.8536 53.7621 53.6345 53.5118 53.4132C53.2608 53.1915 53.0127 52.9654 52.7711 52.7394C52.5283 52.5121 52.29 52.283 52.0554 52.0527C51.8214 51.8228 51.5822 51.5829 51.3605 51.3561C51.0014 50.9889 50.6458 50.6217 50.2901 50.2531C49.9364 49.8866 49.5823 49.5181 49.2295 49.15C48.8772 48.7826 48.5249 48.4144 48.1735 48.0465C47.822 47.6784 47.4707 47.3101 47.1201 46.9423C47.0425 46.8609 46.965 46.7796 46.8874 46.6982C46.6144 46.4117 46.3413 46.1253 46.0693 45.8402C46.0675 45.8382 46.0657 45.8362 46.0638 45.8342C45.7136 45.4674 45.3697 45.1072 45.021 44.7448C44.8929 44.6118 44.7699 44.484 44.6444 44.3547C44.5187 44.2251 44.3951 44.0984 44.2699 43.9709C44.1445 43.8432 44.0194 43.7168 43.8956 43.5929C43.7703 43.4677 43.6477 43.3463 43.5228 43.2249C43.4085 43.1135 43.2937 43.0041 43.1684 42.8844C43.157 42.8735 43.1456 42.8626 43.1341 42.8517C42.997 42.7208 42.8427 42.5703 42.7024 42.4272C42.3313 42.0478 41.9676 41.6801 41.5951 41.308C41.2224 40.9356 40.8484 40.5662 40.4704 40.1947C40.3228 40.0495 40.1742 39.904 40.0258 39.7583C39.7948 39.5317 39.563 39.3042 39.331 39.0755C38.9492 38.6992 38.5682 38.3207 38.1876 37.9367C37.8085 37.5542 37.43 37.1662 37.0568 36.7764C36.6838 36.3869 36.3109 35.9907 35.9462 35.5964C35.5399 35.157 35.1377 34.7183 34.7345 34.277C34.332 33.8363 33.9301 33.3945 33.5306 32.954C33.1296 32.512 32.7303 32.0705 32.3313 31.6283C31.9321 31.1859 31.5337 30.7432 31.1354 30.2998C30.897 30.0344 30.659 29.7689 30.421 29.5031C30.2752 29.3822 30.1353 29.2667 30.0008 29.1553C29.0069 28.3327 28.2885 27.7377 27.3796 26.9138C27.2902 26.8372 27.2135 26.7789 27.1203 26.7078C27.1025 26.6943 27.0838 26.6798 27.0646 26.6651C26.943 26.572 26.8048 26.4636 26.6239 26.3015C26.263 25.9782 25.7427 25.4498 25.1891 24.6482C25.0492 24.4457 25.0817 24.1954 25.2618 24.089C25.3882 24.0145 25.5537 24.0308 25.6895 24.1169C25.5016 23.8949 25.315 23.6727 25.1288 23.4511C25.0545 23.3626 25.011 23.2532 25.0092 23.1465C25.0073 23.0399 25.0469 22.9448 25.1198 22.8812C25.1928 22.8176 25.2938 22.7905 25.4015 22.805C25.5091 22.8195 25.6145 22.8744 25.6951 22.9572C25.909 23.1772 26.122 23.3964 26.3361 23.6148C26.5502 23.8333 26.7643 24.05 26.9797 24.2666C27.1949 24.4832 27.4109 24.699 27.628 24.915C27.8443 25.13 28.0614 25.3452 28.2794 25.5602C28.4988 25.7766 28.7146 25.9883 28.934 26.2034C29.0655 26.3323 29.1986 26.4627 29.3294 26.5905C29.3781 26.6382 29.4259 26.6845 29.4735 26.731C29.5124 26.769 29.5515 26.8072 29.5917 26.8466C30.0156 27.26 30.444 27.6768 30.8692 28.0893C31.2963 28.5039 31.7233 28.9176 32.1507 29.331C32.5783 29.7446 33.006 30.1574 33.434 30.5703C33.8618 30.983 34.2897 31.3951 34.7186 31.8077C35.146 32.2188 35.5754 32.6313 36.0043 33.0422C36.3362 33.36 36.6657 33.6746 36.9963 33.9891C37.137 34.1024 37.2757 34.2152 37.4122 34.3268C37.8095 34.6516 38.2187 34.9655 38.622 35.2746C37.9646 34.664 37.4187 34.1914 36.8989 33.7415C36.8292 33.6812 36.76 33.6214 36.691 33.5616C35.987 32.9512 35.3125 32.3561 34.4674 31.4934C32.0639 29.0398 30.6741 27.6134 29.8307 26.7018C28.9876 25.7905 28.6612 25.363 28.4099 24.9107C28.0548 24.2716 27.1762 23.2313 26.6971 22.7462C26.523 22.57 26.5015 22.3088 26.6489 22.163C26.7963 22.0172 27.0571 22.0419 27.2312 22.2181C27.7371 22.7304 28.6932 23.8507 29.1158 24.6113C29.3041 24.9502 29.5585 25.3018 30.3889 26.1993C31.2193 27.0969 32.5965 28.51 35.0046 30.9683C35.8193 31.7999 36.4679 32.3731 37.1645 32.9769C37.2328 33.0361 37.3017 33.0956 37.3712 33.1557C37.3716 33.1561 37.372 33.1565 37.3724 33.1569C38.0127 33.711 38.71 34.3144 39.6077 35.1705C41.6768 37.1438 44.4884 39.7697 45.1862 40.3627C45.3232 40.4791 45.4572 40.59 45.5984 40.707C46.1405 41.1563 46.795 41.6988 48.1808 43.0103C48.4839 43.2971 48.8342 43.6379 49.2133 44.0128C49.8506 44.5071 50.4662 44.9901 50.9832 45.4284C51.4294 45.8066 51.872 46.1243 52.3089 46.4241C52.4346 46.5104 52.562 46.5966 52.689 46.6826C52.9955 46.8901 53.3021 47.0977 53.5909 47.31C53.8211 47.4792 54.0669 47.6517 54.3267 47.834C55.2731 48.498 56.4072 49.2937 57.6667 50.5488C59.002 51.8794 60.1126 53.051 61.067 54.0651C60.3787 53.3078 59.862 52.7085 59.434 52.2069C59.3533 52.1122 59.276 52.0215 59.2017 51.9341C58.6763 51.3169 58.2944 50.8681 57.8479 50.4244C55.7152 48.3051 54.8727 47.5527 53.8429 46.783C53.5718 46.5804 53.2649 46.3647 52.9342 46.1323C52.2734 45.6677 51.5176 45.1363 50.7619 44.5089C50.058 43.9246 49.2494 43.2924 48.3928 42.6225C48.3925 42.6222 48.3922 42.6219 48.3919 42.6216C48.2245 42.4907 48.0551 42.3582 47.8845 42.2245C46.8438 41.4091 45.7544 40.5463 44.7329 39.6675C44.6236 39.5735 44.4913 39.4622 44.3394 39.3346C43.4626 38.598 41.9234 37.3047 40.2727 35.4963C39.9102 35.0991 39.5522 34.6677 39.1438 34.1752C39.0194 34.0252 38.8903 33.8693 38.755 33.7072C38.1706 33.0074 37.4518 32.166 36.4499 31.0903C35.6231 30.2026 34.5929 29.1432 33.5233 28.043C32.9964 27.5011 32.4601 26.9492 31.9336 26.4031C30.3433 24.7538 28.9053 23.2225 27.4703 21.6938C27.47 21.6935 27.4697 21.6932 27.4694 21.6929C27.2999 21.5123 27.2862 21.2517 27.4389 21.1113C27.5916 20.9711 27.8528 21.0036 28.0223 21.1841C29.4582 22.7136 30.8915 24.2406 32.4766 25.8844C32.9951 26.4221 33.5272 26.9697 34.052 27.5095C35.1268 28.6151 36.1713 29.6891 37.0059 30.5851C38.0248 31.679 38.7567 32.5359 39.3492 33.2453C39.4918 33.4162 39.6255 33.5774 39.7523 33.7304C40.1563 34.2174 40.4919 34.6224 40.8357 34.9992C42.434 36.7502 43.9148 37.9948 44.7947 38.7344C44.9507 38.8655 45.0878 38.9809 45.2033 39.0804C46.2049 39.9419 47.2774 40.7917 48.3171 41.6063C48.4858 41.7385 48.6537 41.87 48.8204 42.0003C48.8208 42.0005 48.8212 42.0008 48.8216 42.001C49.678 42.6707 50.5011 43.3143 51.218 43.9096C51.9458 44.5137 52.6283 44.9927 53.2667 45.4409C53.6093 45.6813 53.939 45.9131 54.2564 46.1503C55.3489 46.9668 56.2352 47.7635 58.3748 49.8897ZM25.9808 24.4595C26.3355 24.9473 26.6648 25.3046 26.9249 25.5558C26.7229 25.3236 26.5221 25.0912 26.3218 24.858C26.2078 24.7253 26.0941 24.5925 25.9808 24.4595ZM48.7344 44.595C48.6575 44.5354 48.58 44.4754 48.5022 44.4152C48.6969 44.6015 48.8913 44.7882 49.0854 44.9745C49.3238 45.2034 49.5618 45.4324 49.7997 45.6614C49.4303 45.2885 49.0711 44.9282 48.7344 44.595ZM57.1386 51.083C55.9508 49.8993 54.9098 49.1681 53.9709 48.5088C53.7006 48.3189 53.4385 48.1347 53.184 47.9477C53.0785 47.8701 52.9716 47.7941 52.863 47.7183C53.3916 48.2636 53.8765 48.766 54.2733 49.1774C55.4574 50.4049 56.0984 51.1364 56.6618 51.7792C56.8247 51.9651 56.9814 52.1438 57.1427 52.3248C57.3021 52.4486 57.4668 52.5779 57.6308 52.711C57.8608 52.897 58.1066 53.1008 58.3385 53.2969C58.5713 53.4937 58.8056 53.6959 59.0336 53.8967C59.2634 54.0992 59.489 54.3019 59.712 54.5052C59.922 54.6965 60.1297 54.8885 60.3308 55.0743C60.3423 55.085 60.3538 55.0956 60.3654 55.1063C60.5779 55.3026 60.7846 55.4937 60.9781 55.6657C61.1752 55.8407 61.3429 55.9823 61.4998 56.0999C61.6957 56.2467 61.8951 56.399 62.0909 56.5511C62.2869 56.7032 62.4806 56.8562 62.6725 57.0099C62.8648 57.164 63.0541 57.3176 63.2429 57.4727C63.304 57.5228 63.3678 57.5753 63.4281 57.6252C63.456 57.6482 63.4838 57.6712 63.5115 57.6941C63.177 57.3559 62.8306 57.0039 62.4741 56.6385C61.959 56.1108 61.4197 55.5368 60.8247 54.9037C59.8097 53.8237 58.6326 52.5717 57.1386 51.083ZM68.6573 62.7451C68.5097 62.6003 68.2914 62.3903 68.0099 62.1195C67.9433 62.0554 67.8729 61.988 67.7994 61.9173C67.801 61.9191 67.8027 61.9208 67.8043 61.9226C67.9696 62.1151 68.123 62.292 68.2904 62.4812C68.5888 62.8184 68.8809 63.1438 69.1785 63.4698C69.4773 63.7971 69.7778 64.121 70.081 64.4428C70.3847 64.7651 70.692 65.0856 70.9991 65.4008C71.3093 65.7189 71.6175 66.0302 71.932 66.341C72.0322 66.4399 72.1331 66.5389 72.2343 66.6375C72.0247 66.4011 71.8041 66.1586 71.5712 65.9024C71.3851 65.6978 71.1911 65.4844 70.9885 65.2586C70.9109 65.1722 70.8185 65.0661 70.7107 64.9424C70.2833 64.4522 69.6129 63.6829 68.6573 62.7451ZM74.8748 68.9854C74.9509 69.0544 75.0262 69.1234 75.1001 69.1921C75.3106 69.3876 75.5127 69.5812 75.71 69.7719C75.8485 69.9059 75.9848 70.0389 76.1193 70.1698C76.1761 70.2251 76.2328 70.2802 76.289 70.3349C76.3831 70.4264 76.4768 70.517 76.5698 70.6069C75.9443 69.9493 75.3294 69.3099 74.6796 68.6525C74.6711 68.6438 74.6623 68.6352 74.6537 68.6265C74.7291 68.7488 74.8028 68.8685 74.8748 68.9854Z" fill="white"/>
</svg>
